<?xml version="1.0" encoding="utf-8"?>
<!-- Generator: Adobe Illustrator 17.1.0, SVG Export Plug-In . SVG Version: 6.00 Build 0)  -->
<!DOCTYPE svg PUBLIC "-//W3C//DTD SVG 1.1//EN" "http://www.w3.org/Graphics/SVG/1.1/DTD/svg11.dtd">
<svg version="1.1" id="Layer_1" xmlns="http://www.w3.org/2000/svg" xmlns:xlink="http://www.w3.org/1999/xlink" x="0px" y="0px"
	 viewBox="0 0 80 80" enable-background="new 0 0 80 80" xml:space="preserve">
<path fill="#FFFFFF" d="M74.8,33.3H31.6c-2.9,0-5.2,2.3-5.2,5.2v23.2c0,2.9,2.3,5.2,5.2,5.2h43.2c2.9,0,5.2-2.3,5.2-5.2V38.5
	C80,35.7,77.7,33.3,74.8,33.3z M76.7,61.7c0,1-0.8,1.8-1.8,1.8H31.6c-1,0-1.8-0.8-1.8-1.8V38.5c0-1,0.8-1.8,1.8-1.8h43.2
	c1,0,1.8,0.8,1.8,1.8V61.7z"/>
<path fill="#FFFFFF" d="M61.6,70.3C60.7,70.3,60,71,60,72v3.7c0,0.5-0.4,1-1,1H4.3c-0.5,0-1-0.4-1-1V4.3c0-0.5,0.4-1,1-1h41.8
	l0,11.6c0,0.9,0.7,1.7,1.7,1.7H60V28c0,0.9,0.7,1.7,1.7,1.7c0.9,0,1.7-0.7,1.7-1.7v-13c0-1.4-0.7-2.1-1.3-2.7l-11.2-11
	C50,0.4,48.9,0,47.8,0h0H4.3C1.9,0,0,1.9,0,4.3v71.3C0,78.1,1.9,80,4.3,80H59c2.4,0,4.3-1.9,4.3-4.3V72C63.3,71,62.5,70.3,61.6,70.3
	z M58.3,13.3h-8.8l0-8.7L58.3,13.3z"/>
<g>
	<path fill="#FFFFFF" d="M53.1,46.2c-0.5,0-1.1,0.2-1.6,0.9c-0.6,0.8-0.9,1-1.5,1c-1,0-1.7-0.5-1.7-1.5c0-1.2,1.5-3.1,4.8-3.1
		c3.4,0,5,1.7,5,3.6c0,3-3.3,3.1-3.8,4.3c-0.3,0.7-0.8,0.9-1.7,0.9c-1,0-1.4-0.6-1.4-1.4c0-1,0.7-1.7,1.7-2.2
		c1.2-0.6,1.4-0.8,1.4-1.5C54.4,46.4,53.8,46.2,53.1,46.2z M53,52.8c1.1,0,2,0.9,2,2s-0.9,2-2,2s-2-0.9-2-2S51.8,52.8,53,52.8z"/>
</g>
</svg>
