<?xml version="1.0" encoding="utf-8"?>
<!-- Generator: Adobe Illustrator 19.0.0, SVG Export Plug-In . SVG Version: 6.00 Build 0)  -->
<svg version="1.1" id="Layer_1" xmlns="http://www.w3.org/2000/svg" xmlns:xlink="http://www.w3.org/1999/xlink" x="0px" y="0px"
	 viewBox="-27 29 24 24" style="enable-background:new -27 29 24 24;" xml:space="preserve">
<style type="text/css">
	.st0{fill:none;stroke:#000000;stroke-linecap:round;stroke-linejoin:round;}
	.st1{fill:none;stroke:#000000;stroke-linecap:round;stroke-linejoin:round;stroke-miterlimit:10;}
	.st2{fill:none;}
</style>
<g>
	<polyline class="st0" points="-8.3,45.4 -8.3,42.6 -6.4,42.6 	"/>
	<line class="st0" x1="-8.3" y1="44" x2="-6.7" y2="44"/>
	<path class="st1" d="M-4.6,39.5h-12.9c-0.6,0-1.1,0.5-1.1,1.1v6.9c0,0.6,0.5,1,1.1,1h12.9c0.6,0,1-0.5,1-1v-6.9
		C-3.5,40-4,39.5-4.6,39.5z"/>
	<polyline class="st1" points="-12.7,29.5 -12.7,33.5 -8.5,33.5 	"/>
	<path class="st1" d="M-8.5,37.4v-3.9c0-0.2-0.1-0.3-0.2-0.4l-3.3-3.3c-0.1-0.1-0.4-0.2-0.6-0.2h-13c-0.4,0-0.8,0.4-0.8,0.8v21.3
		c0,0.4,0.4,0.8,0.8,0.8h16.3c0.4,0,0.8-0.4,0.8-0.8v-1.1"/>
	<path class="st0" d="M-15.5,45.4v-2.9h1.1c0,0,0.9,0,0.9,0.7c0,0.8-0.9,0.8-0.9,0.8h-1.1"/>
	<path class="st0" d="M-11.2,45.4c0.7,0,1.3-0.6,1.3-1.4c0-0.8-0.6-1.4-1.3-1.4l0,0h-1v2.9L-11.2,45.4L-11.2,45.4z"/>
</g>
<rect x="-54" y="58" class="st2" width="24" height="24"/>
</svg>
