<svg id="Layer_1" data-name="Layer 1" xmlns="http://www.w3.org/2000/svg" xmlns:xlink="http://www.w3.org/1999/xlink" viewBox="0 0 622.46 142.99">
  <defs>
    <style>
      .cls-1 {
        fill: url(#linear-gradient);
      }

      .cls-2 {
        fill: #231f20;
      }
    </style>
    <linearGradient id="linear-gradient" x1="20.94" y1="122.05" x2="122.05" y2="20.94" gradientUnits="userSpaceOnUse">
      <stop offset="0" stop-color="#049069"/>
      <stop offset="0.22" stop-color="#3d90ce"/>
      <stop offset="0.4" stop-color="#682467"/>
      <stop offset="0.55" stop-color="#c81a8b"/>
      <stop offset="0.7" stop-color="#d3403d"/>
      <stop offset="0.82" stop-color="#f04d26"/>
      <stop offset="1" stop-color="#f89520"/>
    </linearGradient>
  </defs>
  <title>Deaking_Digital_Colour</title>
  <g>
    <path id="_Compound_Path_" data-name="&lt;Compound Path&gt;" class="cls-1" d="M37.52,15.21a1.28,1.28,0,0,1,2.22-1.28l9,15.58a1.27,1.27,0,0,1,.07.16q-1.2.47-2.37,1ZM64.26,26.34q1.27-.07,2.56-0.07a1.27,1.27,0,0,0,0-.17l-3-22.84a1.28,1.28,0,0,0-2.54.34Zm-12,2.13q1.22-.38,2.47-0.69a1.27,1.27,0,0,0-.05-0.17l-6.64-16a1.28,1.28,0,1,0-2.37,1ZM40.84,33.65q1.09-.67,2.22-1.29A1.27,1.27,0,0,0,43,32.21L30.76,16.3a1.28,1.28,0,1,0-2,1.56ZM58.25,27q1.26-.22,2.54-0.38a1.26,1.26,0,0,0,0-.16L55.7,7.6a1.28,1.28,0,0,0-2.48.66ZM35.55,37.36l0,0q1-.79,2-1.54a1.27,1.27,0,0,0-.22-0.3L22.76,20.94a1.28,1.28,0,0,0-1.81,1.81Zm-24,10.7,11.36,4.7q0.6-1.14,1.26-2.24L24,50.45,12.56,45.7A1.28,1.28,0,0,0,11.58,48.07Zm-4,7.64,12.54,3.36q0.44-1.21.94-2.39l-0.15-.06L8.27,53.23A1.28,1.28,0,1,0,7.6,55.7ZM3.26,63.8l15,2q0.26-1.26.59-2.49l-0.15,0-15.09-2A1.28,1.28,0,1,0,3.26,63.8Zm13-33,14.47,11.1q0.88-.93,1.81-1.82l-0.13-.13L17.86,28.72A1.28,1.28,0,0,0,16.3,30.76Zm-2.37,9L26.52,47q0.75-1,1.55-2l-0.15-.1L15.21,37.52A1.28,1.28,0,1,0,13.93,39.74Zm91.19,4.35q0.82,1,1.6,2l20-15.33a1.28,1.28,0,0,0-1.56-2l-20,15.33Zm3.4,4.56q0.7,1.07,1.36,2.17l19.19-11.08a1.28,1.28,0,0,0-1.28-2.22L108.57,48.61Zm2.87,4.94q0.58,1.14,1.1,2.31l18.92-7.84a1.28,1.28,0,0,0-1-2.37l-19,7.86Zm4,10.85q0.3,1.24.53,2.51l23.84-3.14a1.28,1.28,0,1,0-.33-2.54l-23.92,3.15Zm-1.68-5.57q0.44,1.2.82,2.42l20.88-5.59a1.28,1.28,0,1,0-.66-2.48l-20.94,5.61ZM17.51,70.23H1.28a1.28,1.28,0,0,0,0,2.56h16Q17.37,71.49,17.51,70.23ZM72.76,26.6a1.26,1.26,0,0,0,0-.13V1.28a1.28,1.28,0,0,0-2.56,0V26.37Q71.5,26.46,72.76,26.6Zm5.79,1s0-.08,0-0.12L81.73,3.59a1.28,1.28,0,0,0-2.54-.34L76,27.1Q77.31,27.33,78.55,27.63Zm5.57,1.68,0-.09L89.76,8.27a1.28,1.28,0,0,0-2.48-.66L81.69,28.48Q82.92,28.86,84.12,29.3Zm17.11,10.64q0.93,0.88,1.81,1.81h0l19-19a1.28,1.28,0,0,0-1.81-1.81l-19,19h0ZM98.9,37.87l0,0,15.33-20a1.28,1.28,0,1,0-2-1.56l-15.33,20Q97.92,37.05,98.9,37.87ZM89.4,31.6l0-.07,7.86-19a1.28,1.28,0,1,0-2.37-1L87.08,30.51Q88.26,31,89.4,31.6Zm4.94,2.87,0-.05,11.09-19.21a1.28,1.28,0,1,0-2.22-1.28L92.17,33.12Q93.27,33.77,94.34,34.48Zm3.79,80.59a1.27,1.27,0,0,0-.11-0.15q-1,.8-2,1.55l7.27,12.59a1.28,1.28,0,0,0,2.22-1.28Zm4.94-4.52-0.12-.13q-0.89.93-1.82,1.81l11.1,14.47a1.28,1.28,0,1,0,2-1.56Zm4.23-5.05-0.14-.12q-0.76,1-1.57,2L120.23,122a1.28,1.28,0,1,0,1.81-1.81ZM79.74,124.31a1.26,1.26,0,0,0,0-.15q-1.23.33-2.49,0.59l2,15a1.28,1.28,0,0,0,1.27,1.11h0.17a1.28,1.28,0,0,0,1.1-1.44Zm46.95-12.08L110.78,100l-0.15-.09q-0.62,1.13-1.29,2.22l15.79,12.12A1.28,1.28,0,0,0,126.69,112.23Zm-40.32,9.83a1.27,1.27,0,0,0-.06-0.15q-1.18.5-2.39,0.94l3.36,12.54a1.28,1.28,0,0,0,2.48-.66Zm6.16-3.12a1.27,1.27,0,0,0-.08-0.15q-1.1.66-2.24,1.26l4.7,11.36a1.28,1.28,0,1,0,2.37-1Zm49.17-48.73H116.39q0.15,1.27.23,2.55h25.09A1.28,1.28,0,0,0,141.71,70.21Zm-12.64,33-15.58-9-0.16-.07q-0.47,1.2-1,2.37l15.46,8.93A1.28,1.28,0,0,0,129.06,103.25Zm10.67-24.07-22.86-3h-0.15q0,1.29-.07,2.56l22.75,3h0.17A1.28,1.28,0,0,0,139.73,79.18ZM17.19,77.37H17L3.26,79.18a1.28,1.28,0,0,0,.17,2.55H3.59l13.73-1.81Q17.23,78.65,17.19,77.37Zm118.19,9.92-18.88-5.06-0.16,0q-0.16,1.28-.38,2.54l18.75,5A1.28,1.28,0,1,0,135.38,87.29Zm-4,7.64-16-6.64-0.16,0q-0.31,1.25-.69,2.47l15.89,6.58A1.28,1.28,0,0,0,131.4,94.92ZM70.21,125.7v16a1.28,1.28,0,1,0,2.56,0V125.61a1.26,1.26,0,0,0,0-.14Q71.5,125.62,70.21,125.7Zm-44-21.07,0,0-9.87,7.57a1.28,1.28,0,0,0,1.56,2l9.87-7.57Q26.94,105.68,26.21,104.63ZM17.9,84.54l-0.1,0L7.6,87.29a1.28,1.28,0,1,0,.66,2.48L18.4,87Q18.12,85.8,17.9,84.54Zm14.77,27.59q-0.93-.88-1.81-1.81h0l-9.91,9.91A1.28,1.28,0,1,0,22.76,122l9.91-9.91h0Zm-13-20.54-0.08,0-8,3.31a1.28,1.28,0,1,0,1,2.37l8-3.29Q20.06,92.81,19.66,91.59Zm4,9q-0.62-1.1-1.19-2.23l-0.21.09-8.32,4.8a1.28,1.28,0,1,0,1.28,2.22l8.32-4.8Zm32.3,24-2.71,10.13a1.28,1.28,0,1,0,2.48.66l2.73-10.19s0-.07,0-0.1Q57.18,124.87,55.94,124.59Zm7.13,1.07L61.26,139.4a1.28,1.28,0,0,0,1.1,1.44h0.17a1.28,1.28,0,0,0,1.27-1.11l1.82-13.82s0-.08,0-0.12Q64.34,125.76,63.07,125.66Zm-24.71-8.88q-1-.74-2.06-1.53l-7.57,9.87a1.28,1.28,0,1,0,2,1.56l7.57-9.87Zm4,2.56-4.87,8.44a1.28,1.28,0,1,0,2.22,1.28l4.88-8.46,0-.06Q43.5,120,42.39,119.34Zm6.6,3.13-3.29,8a1.28,1.28,0,1,0,2.37,1l3.31-8,0-.08Q50.18,122.93,49,122.47Z"/>
    <g>
      <path id="_Compound_Path_2" data-name="&lt;Compound Path&gt;" class="cls-2" d="M160.63,26.58h12.13a30.66,30.66,0,0,1,7.19.75,12.15,12.15,0,0,1,5.1,2.49,10.36,10.36,0,0,1,3,4.57,21.45,21.45,0,0,1,1,7v8.87a21.45,21.45,0,0,1-1,7,10.35,10.35,0,0,1-3,4.57,12.13,12.13,0,0,1-5.1,2.49,30.59,30.59,0,0,1-7.19.75H161.59a4,4,0,0,1-1.71-.4,1.17,1.17,0,0,1-.86-0.83V28a1.27,1.27,0,0,1,.48-1A1.64,1.64,0,0,1,160.63,26.58Zm12.13,7.16H167V57.9h5.72a13.2,13.2,0,0,0,4.14-.53,5.3,5.3,0,0,0,2.46-1.6A5.81,5.81,0,0,0,180.54,53a23.56,23.56,0,0,0,.29-4V42.61a23.56,23.56,0,0,0-.29-4,5.81,5.81,0,0,0-1.18-2.75,5.31,5.31,0,0,0-2.46-1.6A13.23,13.23,0,0,0,172.76,33.74Z"/>
      <path id="_Compound_Path_3" data-name="&lt;Compound Path&gt;" class="cls-2" d="M216.64,64.69a12.66,12.66,0,0,1-2,.45q-1.18.19-2.51,0.29l-2.67.19q-1.34.08-2.51,0.08a27.16,27.16,0,0,1-5.56-.51,9.25,9.25,0,0,1-4-1.82A8.06,8.06,0,0,1,195,59.79a17.35,17.35,0,0,1-.83-5.85V46.46q0-5.08,2.94-7.62t9.51-2.54h0.59a16.77,16.77,0,0,1,5.26.69,8,8,0,0,1,3.23,1.9,6.27,6.27,0,0,1,1.6,2.83,14,14,0,0,1,.43,3.55v1.28A8.77,8.77,0,0,1,217,50.2,6.38,6.38,0,0,1,214.42,53a14.89,14.89,0,0,1-5,1.76,42.71,42.71,0,0,1-8,.62,4.07,4.07,0,0,0,.45,2,3.11,3.11,0,0,0,1.36,1.26,6.89,6.89,0,0,0,2.27.61,28.08,28.08,0,0,0,3.23.16q1,0,2.16-.11l2.19-.21q1-.11,1.9-0.24a9.36,9.36,0,0,1,1.34-.13,1.14,1.14,0,0,1,.45.11,0.87,0.87,0,0,1,.4.51,5.35,5.35,0,0,1,.27,1.18,16.33,16.33,0,0,1,.11,2.11,6.44,6.44,0,0,1-.11,1.36A1.17,1.17,0,0,1,216.64,64.69Zm-6.25-19.14v-0.8q0-2.78-4-2.78a9.47,9.47,0,0,0-2,.19,4.08,4.08,0,0,0-1.58.69,3.27,3.27,0,0,0-1.07,1.36,5.34,5.34,0,0,0-.37,2.14v3.26a40.32,40.32,0,0,0,4.28-.19,9.6,9.6,0,0,0,2.75-.64A2.93,2.93,0,0,0,210,47.55,4.13,4.13,0,0,0,210.39,45.55Z"/>
      <path id="_Compound_Path_4" data-name="&lt;Compound Path&gt;" class="cls-2" d="M244.49,46.62V62.23a1.7,1.7,0,0,1-.61,1.1,5.81,5.81,0,0,1-2,1.15,17.51,17.51,0,0,1-3.53.88,34,34,0,0,1-5.26.35,21.11,21.11,0,0,1-5.43-.59,8.59,8.59,0,0,1-3.47-1.74,6.35,6.35,0,0,1-1.87-2.91,13.61,13.61,0,0,1-.56-4.12,16.64,16.64,0,0,1,.32-3.37,6.15,6.15,0,0,1,1.23-2.67,5.79,5.79,0,0,1,2.59-1.74,13.12,13.12,0,0,1,4.41-.61,24.88,24.88,0,0,1,3.66.27q1.79,0.27,3.23.59v-2a3.81,3.81,0,0,0-1.28-3.1q-1.28-1.07-4.6-1.07-0.91,0-1.9.08t-1.92.19l-1.68.19-1.12.13a1,1,0,0,1-.91-0.53,4.18,4.18,0,0,1-.48-1.26,7.9,7.9,0,0,1-.19-1.42q0-.69,0-1a3.13,3.13,0,0,1,.13-1.42,1.1,1.1,0,0,1,.61-0.51,5.83,5.83,0,0,1,1.31-.29q0.93-.13,2.17-0.27t2.7-.21q1.47-.08,3-0.08a26.07,26.07,0,0,1,5,.43,8.46,8.46,0,0,1,3.61,1.55,6.73,6.73,0,0,1,2.16,3.13A15.66,15.66,0,0,1,244.49,46.62Zm-7.27,13v-5.4q-0.32-.11-0.88-0.24c-0.37-.09-0.79-0.17-1.26-0.24l-1.39-.19a11.61,11.61,0,0,0-1.34-.08,3.86,3.86,0,0,0-2.57.67q-0.75.67-.75,2.81a3.37,3.37,0,0,0,.78,2.57,4.48,4.48,0,0,0,2.91.69,20.22,20.22,0,0,0,2.43-.16A9.93,9.93,0,0,0,237.22,59.61Z"/>
      <path id="_Compound_Path_5" data-name="&lt;Compound Path&gt;" class="cls-2" d="M257.85,26.09V49.24L266,37.59a1.46,1.46,0,0,1,.8-0.67,6.86,6.86,0,0,1,1.26-.37,11.69,11.69,0,0,1,1.31-.19c0.43,0,.78-0.05,1.07-0.05a9.34,9.34,0,0,1,1.36.11,3.87,3.87,0,0,1,1.23.37,1.32,1.32,0,0,1,.67.72,1.4,1.4,0,0,1-.37,1.2l-7.91,11.17,9.51,14.43q0.43,0.64-.45,1a7.14,7.14,0,0,1-2.65.37l-0.94,0a10.59,10.59,0,0,1-1.42-.16,6.26,6.26,0,0,1-1.42-.43,2,2,0,0,1-1-.88l-9.25-13.68v13.2a1.85,1.85,0,0,1-.56,1.52,2.1,2.1,0,0,1-1.36.45l-1.47,0a16.72,16.72,0,0,1-1.87-.16,7,7,0,0,1-1.6-.4,0.84,0.84,0,0,1-.67-0.69v-39A0.84,0.84,0,0,1,251,24.7a7.06,7.06,0,0,1,1.6-.4,16.75,16.75,0,0,1,1.87-.16l1.47,0a2.1,2.1,0,0,1,1.36.45A1.85,1.85,0,0,1,257.85,26.09Z"/>
      <path id="_Compound_Path_6" data-name="&lt;Compound Path&gt;" class="cls-2" d="M290,58.32a0.77,0.77,0,0,1,.64.51,6.87,6.87,0,0,1,.48,1.23,10.28,10.28,0,0,1,.32,1.5c0.07,0.52.12,0.92,0.16,1.2a2,2,0,0,1-.21,1.36,1.84,1.84,0,0,1-.91.67,26,26,0,0,1-2.65.69,12.44,12.44,0,0,1-2.37.21,9.87,9.87,0,0,1-2.73-.37,5.52,5.52,0,0,1-2.26-1.26,6,6,0,0,1-1.51-2.38,10.81,10.81,0,0,1-.56-3.74V37.53a0.81,0.81,0,0,1,.69-0.67,8.72,8.72,0,0,1,1.62-.37,16.58,16.58,0,0,1,1.86-.16l1.41,0a2.55,2.55,0,0,1,1.35.37,1.11,1.11,0,0,1,.61,1V56.51a4.08,4.08,0,0,0,.24,1.6,1.3,1.3,0,0,0,1.31.53,5.39,5.39,0,0,0,1.26-.16A5.39,5.39,0,0,1,290,58.32ZM278.43,32.19V25.67a0.83,0.83,0,0,1,.66-0.69,6.94,6.94,0,0,1,1.59-.4,16.55,16.55,0,0,1,1.86-.16l1.41,0a2.42,2.42,0,0,1,1.35.4,1.2,1.2,0,0,1,.61,1V32a1.25,1.25,0,0,1-.61,1.1,2.42,2.42,0,0,1-1.35.4q-0.48,0-1.41-.05t-1.86-.19a6.88,6.88,0,0,1-1.59-.4A0.83,0.83,0,0,1,278.43,32.19Z"/>
      <path id="_Compound_Path_7" data-name="&lt;Compound Path&gt;" class="cls-2" d="M310.93,64.42V46.14a3.74,3.74,0,0,0-.51-2.22,2.74,2.74,0,0,0-2.22-.67,10.57,10.57,0,0,0-1.71.16q-1,.16-1.84.37a10.52,10.52,0,0,0-1.47.45,0.87,0.87,0,0,0-.59.4V64.26a1.17,1.17,0,0,1-.61,1.1,2.73,2.73,0,0,1-1.36.35l-1.42,0a15.91,15.91,0,0,1-1.84-.16,7.53,7.53,0,0,1-1.6-.4,0.85,0.85,0,0,1-.69-0.69V41.17a2.28,2.28,0,0,1,1.23-1.66,13.87,13.87,0,0,1,3.25-1.58,28.51,28.51,0,0,1,4.61-1.18,30.68,30.68,0,0,1,5.31-.45,14.4,14.4,0,0,1,4.85.67,5.5,5.5,0,0,1,2.72,2,7.32,7.32,0,0,1,1.17,3.18,30.46,30.46,0,0,1,.27,4.28V64.26a1.16,1.16,0,0,1-.66,1.1,3,3,0,0,1-1.41.35l-1.41,0a15.7,15.7,0,0,1-1.83-.16,6.94,6.94,0,0,1-1.57-.4A0.83,0.83,0,0,1,310.93,64.42Z"/>
      <path id="_Compound_Path_8" data-name="&lt;Compound Path&gt;" class="cls-2" d="M160.63,74.46H172a28.45,28.45,0,0,1,6.95.75,11.66,11.66,0,0,1,4.89,2.46,10.32,10.32,0,0,1,2.91,4.49,21.31,21.31,0,0,1,1,6.9v9.3a21.3,21.3,0,0,1-1,6.9,10.31,10.31,0,0,1-2.91,4.49,11.63,11.63,0,0,1-4.89,2.46,28.38,28.38,0,0,1-6.95.75H161.38a3.88,3.88,0,0,1-1.55-.35,1.05,1.05,0,0,1-.8-0.72v-36a1.22,1.22,0,0,1,.48-1A1.78,1.78,0,0,1,160.63,74.46ZM172,80.18h-6.52v27H172a15.76,15.76,0,0,0,4.49-.54,6,6,0,0,0,2.81-1.71,6.56,6.56,0,0,0,1.44-3,21.69,21.69,0,0,0,.4-4.49V90a21.7,21.7,0,0,0-.4-4.49,6.57,6.57,0,0,0-1.44-3,6.15,6.15,0,0,0-2.81-1.74A15.1,15.1,0,0,0,172,80.18Z"/>
      <path id="_Compound_Path_9" data-name="&lt;Compound Path&gt;" class="cls-2" d="M204,107.6a0.66,0.66,0,0,1,.51.4,4,4,0,0,1,.4,1,11.45,11.45,0,0,1,.27,1.18q0.11,0.62.16,1a1.54,1.54,0,0,1-1.07,1.71,18.7,18.7,0,0,1-2.35.59,13,13,0,0,1-2.14.16,9.12,9.12,0,0,1-2.54-.35,5.1,5.1,0,0,1-2.11-1.2,5.92,5.92,0,0,1-1.44-2.27,10,10,0,0,1-.53-3.5V85.15a0.62,0.62,0,0,1,.53-0.51,8.68,8.68,0,0,1,1.26-.32,10.14,10.14,0,0,1,1.47-.16l1.23,0a1.78,1.78,0,0,1,1.07.35,1.1,1.1,0,0,1,.48.94v19.72a4.26,4.26,0,0,0,.43,2.06,1.89,1.89,0,0,0,1.82.77,6,6,0,0,0,1.23-.13Q203.35,107.71,204,107.6Zm-10.8-28.38V73.6a0.65,0.65,0,0,1,.51-0.53,6.08,6.08,0,0,1,1.23-.35,10.36,10.36,0,0,1,1.47-.16l1.23,0a1.67,1.67,0,0,1,1.15.4,1.33,1.33,0,0,1,.45,1v4.92a1.35,1.35,0,0,1-.45,1,1.61,1.61,0,0,1-1.15.43c-0.32,0-.73,0-1.23-0.05s-1-.09-1.47-0.16a4.39,4.39,0,0,1-1.23-.35A0.7,0.7,0,0,1,193.25,79.22Z"/>
      <path id="_Compound_Path_10" data-name="&lt;Compound Path&gt;" class="cls-2" d="M217.34,120.59a15.46,15.46,0,0,0,3.63-.35,4.85,4.85,0,0,0,2.17-1.07,3.62,3.62,0,0,0,1-1.9,12.68,12.68,0,0,0,.27-2.78v-3.21a22.61,22.61,0,0,1-4,1.63,14.81,14.81,0,0,1-4.33.67,9.28,9.28,0,0,1-4.44-.88,5.76,5.76,0,0,1-2.38-2.32,8.36,8.36,0,0,1-.94-3.26q-0.16-1.82-.16-3.69V94.18a23.16,23.16,0,0,1,.35-4.22,7.85,7.85,0,0,1,1.26-3.15,5.94,5.94,0,0,1,2.44-2,9.43,9.43,0,0,1,3.89-.69q0.59,0,1.87.11t2.87,0.32q1.58,0.21,3.3.59a19.36,19.36,0,0,1,3.11.93,8.78,8.78,0,0,1,2.3,1.31,2.18,2.18,0,0,1,.91,1.71v25.39a18.72,18.72,0,0,1-.59,5,7.49,7.49,0,0,1-2,3.47,8.82,8.82,0,0,1-3.7,2,20.4,20.4,0,0,1-5.65.67q-2.09,0-4.53-.13a29.88,29.88,0,0,1-4.47-.56,1.27,1.27,0,0,1-1-.61,2.7,2.7,0,0,1-.21-1.15,6,6,0,0,1,.11-1.07,9.16,9.16,0,0,1,.27-1.1,2.72,2.72,0,0,1,.43-0.86,0.75,0.75,0,0,1,.59-0.35q1.28,0.21,3.39.48A33.4,33.4,0,0,0,217.34,120.59Zm7.11-14.06V91.08a1,1,0,0,0-.67-0.67,8.31,8.31,0,0,0-1.68-.61q-1-.27-2.16-0.45a13.3,13.3,0,0,0-2.11-.19,3.41,3.41,0,0,0-1.84.45,3,3,0,0,0-1.1,1.18,5.17,5.17,0,0,0-.51,1.66,13.34,13.34,0,0,0-.13,1.9v8.87a13.9,13.9,0,0,0,.13,1.92,5.19,5.19,0,0,0,.51,1.68A3,3,0,0,0,216,108a3.4,3.4,0,0,0,1.84.45,12.15,12.15,0,0,0,4.06-.64A8.45,8.45,0,0,0,224.44,106.53Z"/>
      <path id="_Compound_Path_11" data-name="&lt;Compound Path&gt;" class="cls-2" d="M247.07,107.6a0.66,0.66,0,0,1,.51.4,4,4,0,0,1,.4,1,11.57,11.57,0,0,1,.27,1.18q0.11,0.62.16,1a1.54,1.54,0,0,1-1.07,1.71,18.74,18.74,0,0,1-2.35.59,13,13,0,0,1-2.14.16,9.13,9.13,0,0,1-2.54-.35,5.1,5.1,0,0,1-2.11-1.2,5.92,5.92,0,0,1-1.44-2.27,10,10,0,0,1-.53-3.5V85.15a0.62,0.62,0,0,1,.53-0.51,8.65,8.65,0,0,1,1.26-.32,10.11,10.11,0,0,1,1.47-.16l1.23,0a1.78,1.78,0,0,1,1.07.35,1.1,1.1,0,0,1,.48.94v19.72a4.26,4.26,0,0,0,.43,2.06,1.89,1.89,0,0,0,1.82.77,6,6,0,0,0,1.23-.13Q246.37,107.71,247.07,107.6Zm-10.8-28.38V73.6a0.65,0.65,0,0,1,.51-0.53,6.06,6.06,0,0,1,1.23-.35,10.33,10.33,0,0,1,1.47-.16l1.23,0a1.68,1.68,0,0,1,1.15.4,1.33,1.33,0,0,1,.45,1v4.92a1.35,1.35,0,0,1-.45,1,1.61,1.61,0,0,1-1.15.43q-0.48,0-1.23-.05T238,80.12a4.39,4.39,0,0,1-1.23-.35A0.7,0.7,0,0,1,236.27,79.22Z"/>
      <path id="_Compound_Path_12" data-name="&lt;Compound Path&gt;" class="cls-2" d="M264.14,90.33h-5.52v14.43a3.4,3.4,0,0,0,.88,2.62,3.28,3.28,0,0,0,2.31.8,10.43,10.43,0,0,0,1.35-.08q0.61-.08,1.19-0.19a0.68,0.68,0,0,1,.69.35,3,3,0,0,1,.4,1,9.85,9.85,0,0,1,.19,1.34q0.05,0.72.05,1.26a1.3,1.3,0,0,1-1.12,1.12,9,9,0,0,1-2.41.48q-1.39.11-2.35,0.11a10.41,10.41,0,0,1-2.86-.37,5.42,5.42,0,0,1-2.27-1.28,6.24,6.24,0,0,1-1.52-2.43,11.34,11.34,0,0,1-.56-3.87V90.33h-3.06a1,1,0,0,1-.79-0.43,1.65,1.65,0,0,1-.32-1q0-.43,0-1.12a9.3,9.3,0,0,1,.16-1.39A4.6,4.6,0,0,1,249,85.2a0.73,0.73,0,0,1,.66-0.48h3V78.31a0.61,0.61,0,0,1,.51-0.51,6.39,6.39,0,0,1,1.24-.29,13.57,13.57,0,0,1,1.48-.13l1.24,0a1.78,1.78,0,0,1,1.11.35,1.11,1.11,0,0,1,.46.94v6.09h5.62a0.94,0.94,0,0,1,.82.43,1.67,1.67,0,0,1,.29,1q0,0.43,0,1.15a9.15,9.15,0,0,1-.16,1.42,4.61,4.61,0,0,1-.37,1.18A0.73,0.73,0,0,1,264.14,90.33Z"/>
      <path id="_Compound_Path_13" data-name="&lt;Compound Path&gt;" class="cls-2" d="M290.94,93.75v16.62a1.49,1.49,0,0,1-.7,1,7.06,7.06,0,0,1-2.06,1,19.55,19.55,0,0,1-3.42.8,31.11,31.11,0,0,1-4.73.32A20.78,20.78,0,0,1,275,113a8.07,8.07,0,0,1-3.37-1.66,6.48,6.48,0,0,1-1.87-2.83,12.53,12.53,0,0,1-.59-4.06,15.11,15.11,0,0,1,.37-3.53,5.58,5.58,0,0,1,1.36-2.59,6.39,6.39,0,0,1,2.65-1.6,13.39,13.39,0,0,1,4.22-.56,25.14,25.14,0,0,1,4,.32,33.9,33.9,0,0,1,3.39.69V93.86a4.31,4.31,0,0,0-1.36-3.53q-1.36-1.12-5-1.12a31.44,31.44,0,0,0-3.79.24q-2,.24-3,0.4a0.85,0.85,0,0,1-.75-0.4,2.9,2.9,0,0,1-.4-1,8,8,0,0,1-.19-1.12c0-.37-0.05-0.65-0.05-0.83a2.41,2.41,0,0,1,.11-1.15,0.84,0.84,0,0,1,.53-0.4c0.25-.07.67-0.16,1.26-0.27s1.28-.2,2.08-0.29,1.67-.16,2.62-0.21,1.92-.08,2.91-0.08a24.83,24.83,0,0,1,4.76.4A7.88,7.88,0,0,1,288.24,86a6.34,6.34,0,0,1,2,2.94A14.53,14.53,0,0,1,290.94,93.75Zm-5.83,14.48v-6.57c-0.18-.07-0.48-0.17-0.91-0.29s-0.93-.24-1.5-0.35-1.16-.2-1.76-0.27a14.76,14.76,0,0,0-1.71-.11,5.15,5.15,0,0,0-3.26.83q-1,.83-1,3.45a4.19,4.19,0,0,0,1.07,3.31,5.86,5.86,0,0,0,3.74.91q0.69,0,1.52-.08t1.58-.21q0.75-.13,1.36-0.29A3.63,3.63,0,0,0,285.11,108.24Z"/>
      <path id="_Compound_Path_14" data-name="&lt;Compound Path&gt;" class="cls-2" d="M307.4,107.6a0.66,0.66,0,0,1,.51.4,4,4,0,0,1,.4,1,11.57,11.57,0,0,1,.27,1.18q0.11,0.62.16,1a1.54,1.54,0,0,1-1.07,1.71,18.72,18.72,0,0,1-2.35.59,12,12,0,0,1-2,.16,9.91,9.91,0,0,1-2.65-.35,5.23,5.23,0,0,1-2.17-1.18,5.69,5.69,0,0,1-1.44-2.24,10.16,10.16,0,0,1-.53-3.55v-33a0.62,0.62,0,0,1,.53-0.51,8.57,8.57,0,0,1,1.26-.32,10.17,10.17,0,0,1,1.47-.16l1.23,0a1.79,1.79,0,0,1,1.07.35,1.1,1.1,0,0,1,.48.94v31.59a4.26,4.26,0,0,0,.43,2.06,1.89,1.89,0,0,0,1.82.77,6,6,0,0,0,1.23-.13Q306.7,107.71,307.4,107.6Z"/>
    </g>
  </g>
  <rect class="cls-2" x="337.36" y="36.06" width="2" height="77.53"/>
  <g>
    <path class="cls-2" d="M357,56.29v-8a15.4,15.4,0,0,1,.62-4.72,6.91,6.91,0,0,1,1.91-3.06,7.55,7.55,0,0,1,3.22-1.67,18.17,18.17,0,0,1,4.55-.5h0.31a14.78,14.78,0,0,1,1.61.07l0.59,0.06,1.45,0.31a2.87,2.87,0,0,1,1.51.51,5.89,5.89,0,0,1-.09,1q-0.09.5-.35,0.4l-0.69-.09-1.25-.19a14.47,14.47,0,0,0-1.58-.18q-0.81,0-1.75,0h-0.31a12.25,12.25,0,0,0-3.51.43,5,5,0,0,0-2.31,1.4,5.78,5.78,0,0,0-1.28,2.56,16.46,16.46,0,0,0-.4,3.9v7.61a16.41,16.41,0,0,0,.4,3.91,5.83,5.83,0,0,0,1.28,2.55,5,5,0,0,0,2.3,1.41,11.93,11.93,0,0,0,3.44.43H367a11.2,11.2,0,0,0,2.87-.26l1.11-.33a1.5,1.5,0,0,1,1.37.52,1.75,1.75,0,0,1,.4,1,0.42,0.42,0,0,1-.41.27l-1.44.32-1.4.31a9,9,0,0,1-1.55.08H367.6a19,19,0,0,1-4.7-.51,7.84,7.84,0,0,1-3.3-1.68,7,7,0,0,1-2-3.06A14.81,14.81,0,0,1,357,56.29Z"/>
    <path class="cls-2" d="M376.65,65.78V47.84a1.11,1.11,0,0,1,.47-0.74,4.73,4.73,0,0,1,1.36-.77,12,12,0,0,1,2.16-.6,15,15,0,0,1,2.85-.25q0.53,0,1.32.07t1.38,0.18a1.51,1.51,0,0,1,.59.19,0.47,0.47,0,0,1,.17.41,2.7,2.7,0,0,1-.17,1,0.41,0.41,0,0,1-.38.35L385,47.45a8.33,8.33,0,0,0-1.45-.11,9.66,9.66,0,0,0-1.86.17,12.29,12.29,0,0,0-1.54.39,5.22,5.22,0,0,0-1,.45,0.65,0.65,0,0,0-.38.38V65.42a0.8,0.8,0,0,1-.21.68,0.86,0.86,0,0,1-.5.15,3.33,3.33,0,0,1-.91-0.14A0.54,0.54,0,0,1,376.65,65.78Z"/>
    <path class="cls-2" d="M389.11,56.65V52.07a9,9,0,0,1,.47-3.11,4.82,4.82,0,0,1,1.37-2,5.44,5.44,0,0,1,2.24-1.11,12.4,12.4,0,0,1,3-.34h0.57q6.54,0,6.54,5.33v0.94a8.39,8.39,0,0,1-.43,2.87,3.71,3.71,0,0,1-1.74,1.93,10.49,10.49,0,0,1-3.7,1.09,47.17,47.17,0,0,1-6.34.34,12.15,12.15,0,0,0,.3,2.9,4.66,4.66,0,0,0,1,2,4.22,4.22,0,0,0,1.88,1.18,9.57,9.57,0,0,0,3,.39,17.58,17.58,0,0,0,2.84-.22l2.33-.37a0.56,0.56,0,0,1,.43.07,1.57,1.57,0,0,1,.19.82,0.9,0.9,0,0,1,0,.59,0.65,0.65,0,0,1-.43.24,23.78,23.78,0,0,1-3,.5,26.58,26.58,0,0,1-2.73.16,11.1,11.1,0,0,1-3.87-.57,5.22,5.22,0,0,1-2.38-1.73,7,7,0,0,1-1.22-3A23.66,23.66,0,0,1,389.11,56.65Zm2-.33a50.2,50.2,0,0,0,5.16-.21,9.85,9.85,0,0,0,3.08-.74,2.78,2.78,0,0,0,1.49-1.46,6.46,6.46,0,0,0,.38-2.37V50.71A3.22,3.22,0,0,0,400.09,48a6.1,6.1,0,0,0-3.77-.91,9.87,9.87,0,0,0-2.12.21,3.81,3.81,0,0,0-1.64.77,3.67,3.67,0,0,0-1.05,1.51,6.59,6.59,0,0,0-.38,2.4v4.31Z"/>
    <path class="cls-2" d="M407.47,59.51V52.27a15.57,15.57,0,0,1,.18-2.33,5.68,5.68,0,0,1,.8-2.2,4.73,4.73,0,0,1,1.8-1.63,6.59,6.59,0,0,1,3.15-.64,12.21,12.21,0,0,1,1.74.13q0.87,0.13,1.63.3a11.41,11.41,0,0,1,1.35.39l1,0.38v-8.6q0-.26.56-0.36a5.48,5.48,0,0,1,.92-0.1,0.56,0.56,0,0,1,.48.2,1.31,1.31,0,0,1,.15.73V63.85a3.26,3.26,0,0,1-.09.92,0.85,0.85,0,0,1-.53.46,13.55,13.55,0,0,1-2,.48l-1.71.33q-0.2,0-1,.12t-2,.08a8.68,8.68,0,0,1-3.53-.59,4.6,4.6,0,0,1-1.94-1.54,5.07,5.07,0,0,1-.84-2.15A16.22,16.22,0,0,1,407.47,59.51Zm2-.71q0,1.16.1,2.18a4.35,4.35,0,0,0,.55,1.79A3.09,3.09,0,0,0,411.55,64a6.48,6.48,0,0,0,2.69.45,13.49,13.49,0,0,0,1.73-.13l1-.13L418,64a3.32,3.32,0,0,0,1.12-.35V48.66a1.76,1.76,0,0,0-.55-0.34,7.65,7.65,0,0,0-1.18-.43q-0.71-.2-1.63-0.38a10.07,10.07,0,0,0-1.86-.17,5.15,5.15,0,0,0-2.5.5,3.29,3.29,0,0,0-1.31,1.29,4.5,4.5,0,0,0-.51,1.8q-0.08,1-.08,2.08V58.8Z"/>
    <path class="cls-2" d="M425.85,56.65V52.07a9,9,0,0,1,.47-3.11,4.82,4.82,0,0,1,1.37-2,5.44,5.44,0,0,1,2.24-1.11,12.4,12.4,0,0,1,3-.34h0.57q6.54,0,6.54,5.33v0.94a8.39,8.39,0,0,1-.43,2.87,3.71,3.71,0,0,1-1.74,1.93,10.49,10.49,0,0,1-3.7,1.09,47.17,47.17,0,0,1-6.34.34,12.15,12.15,0,0,0,.3,2.9,4.66,4.66,0,0,0,1,2,4.22,4.22,0,0,0,1.88,1.18,9.57,9.57,0,0,0,3,.39,17.58,17.58,0,0,0,2.84-.22l2.33-.37a0.56,0.56,0,0,1,.43.07,1.57,1.57,0,0,1,.19.82,0.9,0.9,0,0,1,0,.59,0.65,0.65,0,0,1-.43.24,23.78,23.78,0,0,1-3,.5,26.58,26.58,0,0,1-2.73.16,11.1,11.1,0,0,1-3.87-.57,5.22,5.22,0,0,1-2.38-1.73,7,7,0,0,1-1.22-3A23.66,23.66,0,0,1,425.85,56.65Zm2-.33a50.2,50.2,0,0,0,5.16-.21,9.85,9.85,0,0,0,3.08-.74,2.78,2.78,0,0,0,1.49-1.46,6.46,6.46,0,0,0,.38-2.37V50.71A3.22,3.22,0,0,0,436.83,48a6.1,6.1,0,0,0-3.77-.91,9.87,9.87,0,0,0-2.12.21,3.81,3.81,0,0,0-1.64.77,3.67,3.67,0,0,0-1.05,1.51,6.59,6.59,0,0,0-.38,2.4v4.31Z"/>
    <path class="cls-2" d="M444.5,65.78V48.48a1.39,1.39,0,0,1,.79-1,9.48,9.48,0,0,1,2.06-1,19.35,19.35,0,0,1,2.91-.75,18.32,18.32,0,0,1,3.33-.3,8.42,8.42,0,0,1,2.35.28,3.31,3.31,0,0,1,1.57,1,3.93,3.93,0,0,1,.85,1.8,13.14,13.14,0,0,1,.26,2.83V65.42a0.89,0.89,0,0,1-.18.68,0.75,0.75,0,0,1-.49.15,3.07,3.07,0,0,1-.9-0.14,0.51,0.51,0,0,1-.45-0.32V51.25a9.86,9.86,0,0,0-.14-1.78,2.68,2.68,0,0,0-.51-1.2,2.22,2.22,0,0,0-1-.7,5.43,5.43,0,0,0-1.73-.23,12.55,12.55,0,0,0-2.25.21,15.42,15.42,0,0,0-2.13.53,9.54,9.54,0,0,0-1.58.66,1,1,0,0,0-.61.56V65.42a0.85,0.85,0,0,1-.19.68,0.78,0.78,0,0,1-.49.15A3.45,3.45,0,0,1,445,66.1,0.54,0.54,0,0,1,444.5,65.78Z"/>
    <path class="cls-2" d="M461.73,47.47a3.57,3.57,0,0,1,.15-1,0.58,0.58,0,0,1,.57-0.5H465V40.42a0.54,0.54,0,0,1,.49-0.32,3.75,3.75,0,0,1,1-.14,0.5,0.5,0,0,1,.45.25,1,1,0,0,1,.16.57V46h4.31a0.47,0.47,0,0,1,.57.49,4.15,4.15,0,0,1-.13,1,0.58,0.58,0,0,1-.59.52H467.1V61.3a3.74,3.74,0,0,0,.61,2.2,2.36,2.36,0,0,0,2.08.88,4,4,0,0,0,.89-0.09l1-.24a0.43,0.43,0,0,1,.43.41,3.1,3.1,0,0,1,.14.92,0.76,0.76,0,0,1-.71.56,8.59,8.59,0,0,1-1.24.24,10,10,0,0,1-1.13.06,5.15,5.15,0,0,1-1.61-.25,3.39,3.39,0,0,1-1.31-.79,3.83,3.83,0,0,1-.9-1.44,6.41,6.41,0,0,1-.34-2.24V48h-2.71A0.45,0.45,0,0,1,461.73,47.47Z"/>
    <path class="cls-2" d="M475.72,40.85V38.27a0.57,0.57,0,0,1,.46-0.36,3.14,3.14,0,0,1,1.11-.17,0.55,0.55,0,0,1,.53.3,1.5,1.5,0,0,1,.16.71v1.67a1.5,1.5,0,0,1-.15.67,0.55,0.55,0,0,1-.54.3,3.13,3.13,0,0,1-1.11-.17A0.57,0.57,0,0,1,475.72,40.85Zm0,20.81V45.93a0.54,0.54,0,0,1,.5-0.3,4.46,4.46,0,0,1,1-.12,0.47,0.47,0,0,1,.44.25,1.14,1.14,0,0,1,.14.58v15a3.81,3.81,0,0,0,.52,2,2.11,2.11,0,0,0,2,.84,3.88,3.88,0,0,0,1-.11l1-.22q0.18,0,.33.41a3,3,0,0,1,.18.89,0.76,0.76,0,0,1-.68.67q-0.71.19-1.24,0.27a6.9,6.9,0,0,1-1.09.08,4.5,4.5,0,0,1-1.5-.25,3.75,3.75,0,0,1-1.29-.77,3.47,3.47,0,0,1-.91-1.41A6.27,6.27,0,0,1,475.76,61.66Z"/>
    <path class="cls-2" d="M484.13,60.24q0-3.16,1.47-4.43a6.93,6.93,0,0,1,4.61-1.28,20,20,0,0,1,5.91,1V51.21a5.51,5.51,0,0,0-.27-1.87,2.45,2.45,0,0,0-.92-1.2,4.5,4.5,0,0,0-1.7-.66,13.85,13.85,0,0,0-2.65-.21,18.25,18.25,0,0,0-2.56.16l-2.15.3a0.34,0.34,0,0,1-.42-0.33l-0.19-.75a0.43,0.43,0,0,1,.26-0.55l2.25-.36a23.31,23.31,0,0,1,3.7-.27,14.87,14.87,0,0,1,3,.27,5,5,0,0,1,2.12.92,3.92,3.92,0,0,1,1.24,1.76,8.09,8.09,0,0,1,.41,2.8V64.35a0.91,0.91,0,0,1-.63.61,9.09,9.09,0,0,1-1.62.6,18,18,0,0,1-2.27.48,17.21,17.21,0,0,1-2.57.19,8.46,8.46,0,0,1-5.24-1.37Q484.13,63.5,484.13,60.24Zm2.11,0.11a4.07,4.07,0,0,0,1.14,3.31,5.88,5.88,0,0,0,3.72.94,16,16,0,0,0,3.15-.35,12.75,12.75,0,0,0,1.27-.34,1,1,0,0,0,.59-0.36V57.26a1.53,1.53,0,0,0-.65-0.28q-0.58-.16-1.42-0.36t-1.8-.32a13.33,13.33,0,0,0-1.75-.13,9.46,9.46,0,0,0-1.88.17,2.84,2.84,0,0,0-1.34.63,2.77,2.77,0,0,0-.79,1.28A7.09,7.09,0,0,0,486.24,60.35Z"/>
    <path class="cls-2" d="M503,61.66V38a0.54,0.54,0,0,1,.5-0.3,4.46,4.46,0,0,1,1-.12,0.47,0.47,0,0,1,.44.25,1.15,1.15,0,0,1,.14.58v22.9a3.81,3.81,0,0,0,.52,2.05,2.11,2.11,0,0,0,2,.84,3.9,3.9,0,0,0,1-.11l1-.22q0.18,0,.33.4a3.07,3.07,0,0,1,.18.9,0.76,0.76,0,0,1-.68.67q-0.71.19-1.24,0.27a6.66,6.66,0,0,1-1.05.08,5,5,0,0,1-1.52-.23,3.38,3.38,0,0,1-1.3-.77,3.64,3.64,0,0,1-.91-1.41A6.23,6.23,0,0,1,503,61.66Z"/>
    <path class="cls-2" d="M511.21,65.21a2,2,0,0,1,.25-1,0.52,0.52,0,0,1,.47-0.15l2.46,0.22q1.17,0.1,2.57.1a8,8,0,0,0,3.71-.69,2.54,2.54,0,0,0,1.3-2.45,3.31,3.31,0,0,0-.75-2.23,7.91,7.91,0,0,0-1.88-1.57,26,26,0,0,0-2.45-1.33,16.34,16.34,0,0,1-2.43-1.42,7.42,7.42,0,0,1-1.85-1.87,4.73,4.73,0,0,1-.75-2.73,4.54,4.54,0,0,1,.52-2.3,3.76,3.76,0,0,1,1.4-1.41,6,6,0,0,1,2-.7,14.48,14.48,0,0,1,2.42-.19q1.64,0,2.84.07a15.17,15.17,0,0,1,2.09.26,0.78,0.78,0,0,1,.47.21,0.51,0.51,0,0,1,.1.31q0,1.35-.54,1.35h-0.05l-2.1-.27a20,20,0,0,0-2.4-.14,8.11,8.11,0,0,0-3.45.62,2.24,2.24,0,0,0-1.29,2.22,2.7,2.7,0,0,0,.75,1.94,8.55,8.55,0,0,0,1.88,1.44q1.13,0.66,2.44,1.28a14,14,0,0,1,2.43,1.46,7.57,7.57,0,0,1,1.86,2,6.15,6.15,0,0,1,.26,5.33,4.15,4.15,0,0,1-1.36,1.56A5.62,5.62,0,0,1,520,66a14.39,14.39,0,0,1-2.79.25q-1.18,0-2.26-.1l-3.36-.31a0.62,0.62,0,0,1-.37-0.19,0.42,0.42,0,0,1-.06-0.25A1.22,1.22,0,0,1,511.21,65.21Z"/>
    <path class="cls-2" d="M533.1,47.43a3.45,3.45,0,0,1,.15-1,0.57,0.57,0,0,1,.55-0.5h2.93V41.86a4.75,4.75,0,0,1,1.16-3.32,4.24,4.24,0,0,1,3.31-1.28q0.68,0,1.13,0t0.79,0.09a3.94,3.94,0,0,1,.61.15l0.59,0.2a0.86,0.86,0,0,1,.71.75,2,2,0,0,1-.19.93,0.37,0.37,0,0,1-.41.28,13.54,13.54,0,0,0-1.33-.43,6.34,6.34,0,0,0-1.49-.14,2.61,2.61,0,0,0-2.15.77,3.32,3.32,0,0,0-.61,2.13V46h4.59a0.77,0.77,0,0,1,.38.09,0.4,0.4,0,0,1,.16.38,3.18,3.18,0,0,1-.15.91,0.57,0.57,0,0,1-.55.49h-4.44V65.42q0,0.82-.62.83a3.64,3.64,0,0,1-1-.14,0.53,0.53,0,0,1-.48-0.32V47.84h-3.08Q533.08,47.84,533.1,47.43Z"/>
    <path class="cls-2" d="M546.12,60V51.78q0-3.37,1.76-4.84t5.6-1.47h0.07q3.87,0,5.64,1.47T561,51.78V60q0,3.37-1.77,4.8t-5.64,1.43h-0.07q-3.84,0-5.6-1.43T546.12,60Zm2,0a4.26,4.26,0,0,0,1.18,3.3q1.18,1.08,4.12,1.08h0.11q2.94,0,4.12-1.09A4.27,4.27,0,0,0,558.86,60V51.74a4.4,4.4,0,0,0-1.18-3.37q-1.18-1.11-4.12-1.11h-0.11q-2.94,0-4.12,1.11a4.4,4.4,0,0,0-1.18,3.37V60Z"/>
    <path class="cls-2" d="M565.59,65.78V47.84a1.11,1.11,0,0,1,.47-0.74,4.73,4.73,0,0,1,1.36-.77,12,12,0,0,1,2.16-.6,15,15,0,0,1,2.85-.25q0.53,0,1.32.07t1.38,0.18a1.51,1.51,0,0,1,.59.19,0.47,0.47,0,0,1,.17.41,2.7,2.7,0,0,1-.17,1,0.41,0.41,0,0,1-.38.35l-1.37-.27a8.33,8.33,0,0,0-1.45-.11,9.66,9.66,0,0,0-1.86.17,12.29,12.29,0,0,0-1.54.39,5.22,5.22,0,0,0-1,.45,0.65,0.65,0,0,0-.38.38V65.42a0.8,0.8,0,0,1-.21.68,0.86,0.86,0,0,1-.5.15,3.33,3.33,0,0,1-.91-0.14A0.54,0.54,0,0,1,565.59,65.78Z"/>
    <path class="cls-2" d="M357.44,104.78v-28a0.58,0.58,0,0,1,.57-0.35,5.38,5.38,0,0,1,.86-0.09,0.67,0.67,0,0,1,.68.83v9.57a9.86,9.86,0,0,1,1.27-.77,10.3,10.3,0,0,1,1.71-.7,19.36,19.36,0,0,1,2-.5,10.69,10.69,0,0,1,2.1-.21,6.23,6.23,0,0,1,2.7.49,3.35,3.35,0,0,1,1.49,1.38,5.42,5.42,0,0,1,.63,2.13,26.9,26.9,0,0,1,.13,2.74v13.18a0.89,0.89,0,0,1-.18.68,0.72,0.72,0,0,1-.47.15,3.18,3.18,0,0,1-.91-0.14,0.52,0.52,0,0,1-.46-0.32V91.42q0-1.15-.09-2.1a4.28,4.28,0,0,0-.43-1.59,2.39,2.39,0,0,0-1-1,3.85,3.85,0,0,0-1.82-.36,10,10,0,0,0-2.24.27,13.94,13.94,0,0,0-2.09.64,9.51,9.51,0,0,0-1.58.79,2,2,0,0,0-.75.69v15.66a0.88,0.88,0,0,1-.18.68,0.77,0.77,0,0,1-.5.15,3.49,3.49,0,0,1-.94-0.14A0.54,0.54,0,0,1,357.44,104.78Z"/>
    <path class="cls-2" d="M376.61,79.85V77.27a0.57,0.57,0,0,1,.46-0.36,3.13,3.13,0,0,1,1.11-.17,0.55,0.55,0,0,1,.53.3,1.5,1.5,0,0,1,.16.71v1.67a1.5,1.5,0,0,1-.15.67,0.55,0.55,0,0,1-.54.3,3.12,3.12,0,0,1-1.11-.17A0.57,0.57,0,0,1,376.61,79.85Zm0,20.81V84.93a0.54,0.54,0,0,1,.5-0.3,4.4,4.4,0,0,1,1-.12,0.47,0.47,0,0,1,.44.25,1.14,1.14,0,0,1,.14.58v15a3.81,3.81,0,0,0,.52,2,2.11,2.11,0,0,0,2,.84,3.9,3.9,0,0,0,1-.11l1-.22q0.18,0,.33.41a3,3,0,0,1,.18.89,0.76,0.76,0,0,1-.68.67q-0.71.19-1.24,0.27a6.79,6.79,0,0,1-1.09.08,4.5,4.5,0,0,1-1.5-.25,3.75,3.75,0,0,1-1.29-.77,3.47,3.47,0,0,1-.91-1.41A6.27,6.27,0,0,1,376.65,100.66Z"/>
    <path class="cls-2" d="M385.34,112.48a3,3,0,0,1,.13-0.88,0.48,0.48,0,0,1,.44-0.42l3.27,0.48a20.28,20.28,0,0,0,2.83.25,9.2,9.2,0,0,0,2.79-.34,3.1,3.1,0,0,0,1.58-1.08,4.11,4.11,0,0,0,.71-1.9,20.81,20.81,0,0,0,.17-2.86v-2.48a10.91,10.91,0,0,1-2.79,1.37,11.45,11.45,0,0,1-3.81.61,5.41,5.41,0,0,1-2.8-.62,4,4,0,0,1-1.54-1.62,6.48,6.48,0,0,1-.64-2.2,20.36,20.36,0,0,1-.14-2.32V91.2a15.71,15.71,0,0,1,.19-2.47,6.17,6.17,0,0,1,.73-2.15A4.18,4.18,0,0,1,388,85.06a5.21,5.21,0,0,1,2.65-.59q0.46,0,1.27.07t1.78,0.23q1,0.16,2,.41a11.1,11.1,0,0,1,1.82.63,4.44,4.44,0,0,1,1.35.91,1.62,1.62,0,0,1,.52,1.16v17.88a19.75,19.75,0,0,1-.28,3.61,5.36,5.36,0,0,1-1.09,2.48,4.63,4.63,0,0,1-2.31,1.42,14.17,14.17,0,0,1-3.94.45,25.08,25.08,0,0,1-2.92-.18l-2.93-.35a0.64,0.64,0,0,1-.45-0.25A0.91,0.91,0,0,1,385.34,112.48Zm2.31-14.66q0,1,.07,2a5.82,5.82,0,0,0,.39,1.79,3,3,0,0,0,1,1.29,3.15,3.15,0,0,0,1.91.5,11.41,11.41,0,0,0,2.25-.22,10.89,10.89,0,0,0,1.94-.56,6.75,6.75,0,0,0,1.38-.72,1.75,1.75,0,0,0,.65-0.68V88.34a1,1,0,0,0-.61-0.72A8.22,8.22,0,0,0,395.1,87a14.73,14.73,0,0,0-2-.49,12,12,0,0,0-2.05-.19,3.19,3.19,0,0,0-1.92.49,3,3,0,0,0-1,1.28,5.8,5.8,0,0,0-.39,1.78q-0.07,1-.07,2v6Z"/>
    <path class="cls-2" d="M404.46,104.78v-28a0.58,0.58,0,0,1,.57-0.35,5.38,5.38,0,0,1,.86-0.09,0.67,0.67,0,0,1,.68.83v9.57a9.86,9.86,0,0,1,1.27-.77,10.3,10.3,0,0,1,1.71-.7,19.36,19.36,0,0,1,2-.5,10.69,10.69,0,0,1,2.1-.21,6.23,6.23,0,0,1,2.7.49,3.35,3.35,0,0,1,1.49,1.38,5.42,5.42,0,0,1,.63,2.13,26.9,26.9,0,0,1,.13,2.74v13.18a0.89,0.89,0,0,1-.18.68,0.72,0.72,0,0,1-.47.15,3.18,3.18,0,0,1-.91-0.14,0.52,0.52,0,0,1-.46-0.32V91.42q0-1.15-.09-2.1a4.28,4.28,0,0,0-.43-1.59,2.39,2.39,0,0,0-1-1,3.85,3.85,0,0,0-1.82-.36,10,10,0,0,0-2.24.27,13.94,13.94,0,0,0-2.09.64,9.51,9.51,0,0,0-1.58.79,2,2,0,0,0-.75.69v15.66a0.88,0.88,0,0,1-.18.68,0.77,0.77,0,0,1-.5.15,3.49,3.49,0,0,1-.94-0.14A0.54,0.54,0,0,1,404.46,104.78Z"/>
    <path class="cls-2" d="M431.25,114.17V88a1.56,1.56,0,0,1,.55-1.18,5.59,5.59,0,0,1,1.38-.9,8.43,8.43,0,0,1,1.89-.62l2-.43a14.94,14.94,0,0,1,1.8-.28q0.84-.07,1.3-0.07a4.59,4.59,0,0,1,2.62.66,4.52,4.52,0,0,1,1.49,1.63,5.85,5.85,0,0,1,.64,2.06,17.28,17.28,0,0,1,.13,2v8a18.33,18.33,0,0,1-.17,2.54,5.36,5.36,0,0,1-.7,2.06,3.57,3.57,0,0,1-1.56,1.38,6.34,6.34,0,0,1-2.73.5,10.23,10.23,0,0,1-1.83-.17,17.76,17.76,0,0,1-1.82-.43,16.18,16.18,0,0,1-1.65-.58,7.1,7.1,0,0,1-1.27-.66v10.4a0.88,0.88,0,0,1-.18.67,0.78,0.78,0,0,1-.5.15,3.45,3.45,0,0,1-.94-0.14A0.54,0.54,0,0,1,431.25,114.17Zm2.11-13a1.73,1.73,0,0,0,.72.68,8.35,8.35,0,0,0,1.48.72,12.25,12.25,0,0,0,2,.56,10.37,10.37,0,0,0,2.08.22,3.1,3.1,0,0,0,2.6-1,6,6,0,0,0,.77-3.53V91.18a10.82,10.82,0,0,0-.21-2.36,3.78,3.78,0,0,0-.63-1.47,2.31,2.31,0,0,0-1-.77,3.81,3.81,0,0,0-1.37-.23,8.27,8.27,0,0,0-1.91.26l-2.05.49a6.6,6.6,0,0,0-1.66.61,1.34,1.34,0,0,0-.76.74v12.74Z"/>
    <path class="cls-2" d="M449.45,95.65V91.07a9.05,9.05,0,0,1,.47-3.11,4.82,4.82,0,0,1,1.37-2,5.46,5.46,0,0,1,2.24-1.11,12.43,12.43,0,0,1,3-.34h0.57q6.54,0,6.54,5.33v0.94a8.4,8.4,0,0,1-.43,2.87,3.72,3.72,0,0,1-1.74,1.93,10.47,10.47,0,0,1-3.7,1.09,47.06,47.06,0,0,1-6.34.34,12.15,12.15,0,0,0,.3,2.9,4.67,4.67,0,0,0,1,2,4.22,4.22,0,0,0,1.88,1.18,9.58,9.58,0,0,0,3,.39,17.58,17.58,0,0,0,2.84-.22l2.33-.37a0.56,0.56,0,0,1,.43.07,1.57,1.57,0,0,1,.19.83,0.89,0.89,0,0,1,0,.59,0.64,0.64,0,0,1-.43.24,23.52,23.52,0,0,1-3,.5,26.58,26.58,0,0,1-2.73.16,11.09,11.09,0,0,1-3.87-.57,5.21,5.21,0,0,1-2.38-1.73,7,7,0,0,1-1.22-3A23.65,23.65,0,0,1,449.45,95.65Zm2-.33a50.2,50.2,0,0,0,5.16-.21,9.85,9.85,0,0,0,3.08-.74,2.78,2.78,0,0,0,1.49-1.46,6.46,6.46,0,0,0,.38-2.37V89.71A3.22,3.22,0,0,0,460.42,87a6.1,6.1,0,0,0-3.77-.91,9.84,9.84,0,0,0-2.12.21,3.81,3.81,0,0,0-1.64.77,3.68,3.68,0,0,0-1.05,1.51,6.59,6.59,0,0,0-.38,2.4v4.31Z"/>
    <path class="cls-2" d="M468.1,104.78V86.84a1.11,1.11,0,0,1,.47-0.74,4.72,4.72,0,0,1,1.36-.77,12,12,0,0,1,2.16-.6,15,15,0,0,1,2.85-.25q0.53,0,1.32.07t1.38,0.18a1.51,1.51,0,0,1,.59.19,0.48,0.48,0,0,1,.17.41,2.7,2.7,0,0,1-.17,1,0.41,0.41,0,0,1-.38.35l-1.37-.27a8.33,8.33,0,0,0-1.45-.11,9.73,9.73,0,0,0-1.86.17,12.19,12.19,0,0,0-1.54.39,5.25,5.25,0,0,0-1,.45,0.65,0.65,0,0,0-.38.38v16.69a0.8,0.8,0,0,1-.21.68,0.86,0.86,0,0,1-.5.15,3.37,3.37,0,0,1-.91-0.14A0.54,0.54,0,0,1,468.1,104.78Z"/>
    <path class="cls-2" d="M479.52,86.43a3.46,3.46,0,0,1,.15-1,0.57,0.57,0,0,1,.55-0.5h2.93V80.86a4.75,4.75,0,0,1,1.16-3.32,4.24,4.24,0,0,1,3.31-1.28q0.68,0,1.13,0c0.3,0,.56.06,0.79,0.09a4.06,4.06,0,0,1,.61.15l0.59,0.2a0.86,0.86,0,0,1,.71.75,2,2,0,0,1-.19.93,0.37,0.37,0,0,1-.41.28,13.58,13.58,0,0,0-1.33-.43,6.4,6.4,0,0,0-1.49-.14,2.61,2.61,0,0,0-2.15.77,3.32,3.32,0,0,0-.61,2.13V85h4.59a0.76,0.76,0,0,1,.38.09,0.4,0.4,0,0,1,.16.38,3.18,3.18,0,0,1-.15.91,0.57,0.57,0,0,1-.55.49h-4.44v17.58q0,0.82-.62.82a3.68,3.68,0,0,1-1-.14,0.53,0.53,0,0,1-.48-0.32V86.84h-3.08Q479.5,86.84,479.52,86.43Z"/>
    <path class="cls-2" d="M492.53,99V90.78q0-3.37,1.76-4.84t5.6-1.47H500q3.87,0,5.64,1.47t1.77,4.84V99q0,3.37-1.77,4.8T500,105.24h-0.07q-3.84,0-5.6-1.43T492.53,99Zm2,0a4.26,4.26,0,0,0,1.18,3.3q1.18,1.08,4.12,1.08H500q2.94,0,4.12-1.09A4.26,4.26,0,0,0,505.27,99V90.75a4.4,4.4,0,0,0-1.18-3.37q-1.18-1.11-4.12-1.11h-0.11q-2.94,0-4.12,1.11a4.4,4.4,0,0,0-1.18,3.37V99Z"/>
    <path class="cls-2" d="M512,104.78V86.84a1.11,1.11,0,0,1,.47-0.74,4.72,4.72,0,0,1,1.36-.77,12,12,0,0,1,2.16-.6,15,15,0,0,1,2.85-.25q0.53,0,1.32.07t1.38,0.18a1.51,1.51,0,0,1,.59.19,0.48,0.48,0,0,1,.17.41,2.7,2.7,0,0,1-.17,1,0.41,0.41,0,0,1-.38.35l-1.37-.27a8.33,8.33,0,0,0-1.45-.11,9.73,9.73,0,0,0-1.86.17,12.19,12.19,0,0,0-1.54.39,5.25,5.25,0,0,0-1,.45,0.65,0.65,0,0,0-.38.38v16.69a0.8,0.8,0,0,1-.21.68,0.86,0.86,0,0,1-.5.15,3.37,3.37,0,0,1-.91-0.14A0.54,0.54,0,0,1,512,104.78Z"/>
    <path class="cls-2" d="M525.51,104.78V87.55a1.44,1.44,0,0,1,.64-1,6.68,6.68,0,0,1,1.81-1,15.79,15.79,0,0,1,2.78-.79,18.27,18.27,0,0,1,3.56-.32,4.57,4.57,0,0,1,2.59.61,4,4,0,0,1,1.33,1.5,9,9,0,0,1,2.9-1.42,15.37,15.37,0,0,1,4.88-.69,5,5,0,0,1,2.63.61,3.93,3.93,0,0,1,1.46,1.54,6,6,0,0,1,.62,2.08,18.69,18.69,0,0,1,.14,2.23v13.49a1,1,0,0,1-.17.58,0.54,0.54,0,0,1-.47.25,3.52,3.52,0,0,1-1-.14,0.53,0.53,0,0,1-.47-0.32V91.5q0-.9-0.07-1.82a5.13,5.13,0,0,0-.39-1.65,2.7,2.7,0,0,0-2.75-1.69,12.83,12.83,0,0,0-2.48.23,11.17,11.17,0,0,0-2,.57,6.14,6.14,0,0,0-1.33.7,1,1,0,0,0-.48.62v16a1.06,1.06,0,0,1-.16.58,0.55,0.55,0,0,1-.5.25,3.45,3.45,0,0,1-1-.14,0.51,0.51,0,0,1-.46-0.32V91.5q0-.9-0.07-1.82a5.13,5.13,0,0,0-.39-1.65,2.71,2.71,0,0,0-2.76-1.69,12.82,12.82,0,0,0-4.46.78,5.73,5.73,0,0,0-1.33.68,1,1,0,0,0-.49.62v16a1,1,0,0,1-.17.58,0.54,0.54,0,0,1-.47.25,3.55,3.55,0,0,1-1-.14A0.52,0.52,0,0,1,525.51,104.78Z"/>
    <path class="cls-2" d="M554.9,99.24q0-3.16,1.47-4.43A6.93,6.93,0,0,1,561,93.53a20,20,0,0,1,5.91,1V90.21a5.52,5.52,0,0,0-.27-1.87,2.45,2.45,0,0,0-.92-1.2,4.49,4.49,0,0,0-1.7-.66,13.85,13.85,0,0,0-2.65-.21,18.25,18.25,0,0,0-2.56.16l-2.15.3a0.34,0.34,0,0,1-.42-0.33L556,85.65a0.43,0.43,0,0,1,.26-0.55l2.25-.36a23.25,23.25,0,0,1,3.7-.27,14.91,14.91,0,0,1,3,.27,5,5,0,0,1,2.12.92,3.92,3.92,0,0,1,1.24,1.76,8.1,8.1,0,0,1,.41,2.8v13.15a0.91,0.91,0,0,1-.63.61,9.09,9.09,0,0,1-1.62.6,18.06,18.06,0,0,1-2.27.48,17.14,17.14,0,0,1-2.57.19,8.45,8.45,0,0,1-5.24-1.37Q554.9,102.5,554.9,99.24ZM557,99.35a4.07,4.07,0,0,0,1.14,3.31,5.88,5.88,0,0,0,3.72.94,14.57,14.57,0,0,0,1.54-.09,14.83,14.83,0,0,0,1.61-.26,12.49,12.49,0,0,0,1.27-.34,1,1,0,0,0,.59-0.36V96.26a1.54,1.54,0,0,0-.65-0.28q-0.58-.17-1.42-0.36t-1.8-.32a13.41,13.41,0,0,0-1.75-.13,9.46,9.46,0,0,0-1.88.17,2.85,2.85,0,0,0-1.34.63,2.77,2.77,0,0,0-.79,1.28A7.09,7.09,0,0,0,557,99.35Z"/>
    <path class="cls-2" d="M573.69,104.78V87.48a1.39,1.39,0,0,1,.79-1,9.42,9.42,0,0,1,2.06-1,19.24,19.24,0,0,1,2.91-.75,18.27,18.27,0,0,1,3.33-.3,8.4,8.4,0,0,1,2.35.28,3.31,3.31,0,0,1,1.57,1,3.93,3.93,0,0,1,.85,1.8,13.15,13.15,0,0,1,.26,2.83v14.08a0.89,0.89,0,0,1-.18.68,0.75,0.75,0,0,1-.49.15,3.07,3.07,0,0,1-.9-0.14,0.51,0.51,0,0,1-.45-0.32V90.25a9.85,9.85,0,0,0-.14-1.78,2.68,2.68,0,0,0-.51-1.2,2.23,2.23,0,0,0-1-.7,5.46,5.46,0,0,0-1.73-.23,12.51,12.51,0,0,0-2.25.21,15.28,15.28,0,0,0-2.13.53,9.54,9.54,0,0,0-1.58.66,1,1,0,0,0-.61.56v16.11a0.85,0.85,0,0,1-.19.68,0.78,0.78,0,0,1-.49.15,3.49,3.49,0,0,1-.94-0.14A0.54,0.54,0,0,1,573.69,104.78Z"/>
    <path class="cls-2" d="M592.54,97.62V92.1q0-4,1.67-5.8t5.65-1.82a20.69,20.69,0,0,1,2.54.15,10.78,10.78,0,0,1,1.59.28,2.38,2.38,0,0,1,.57.18,0.33,0.33,0,0,1,.17.31,0.82,0.82,0,0,1,0,.17,3.2,3.2,0,0,1-.2.94,0.35,0.35,0,0,1-.39.23,4.56,4.56,0,0,1-.59-0.07l-1-.17q-0.6-.1-1.28-0.16t-1.36-.05a5.32,5.32,0,0,0-4,1.34q-1.31,1.34-1.31,4.5v5.49q0,3.27,1.33,4.56a5.7,5.7,0,0,0,4.11,1.29,13.3,13.3,0,0,0,1.76-.12l2.39-.32a0.29,0.29,0,0,1,.37.21,5.9,5.9,0,0,1,.15.68,0.41,0.41,0,0,1-.2.51,3.17,3.17,0,0,1-.73.18l-2.48.4a17,17,0,0,1-2.72.26q-3.21,0-4.6-1.82T592.54,97.62Z"/>
    <path class="cls-2" d="M608.23,95.65V91.07A9.05,9.05,0,0,1,608.7,88a4.82,4.82,0,0,1,1.37-2,5.46,5.46,0,0,1,2.24-1.11,12.43,12.43,0,0,1,3-.34h0.57q6.54,0,6.54,5.33v0.94a8.4,8.4,0,0,1-.43,2.87,3.72,3.72,0,0,1-1.74,1.93,10.47,10.47,0,0,1-3.7,1.09,47.06,47.06,0,0,1-6.34.34,12.15,12.15,0,0,0,.3,2.9,4.67,4.67,0,0,0,1,2,4.22,4.22,0,0,0,1.88,1.18,9.58,9.58,0,0,0,3,.39,17.58,17.58,0,0,0,2.84-.22l2.33-.37a0.56,0.56,0,0,1,.43.07,1.57,1.57,0,0,1,.19.83,0.89,0.89,0,0,1,0,.59,0.64,0.64,0,0,1-.43.24,23.52,23.52,0,0,1-3,.5,26.58,26.58,0,0,1-2.73.16,11.09,11.09,0,0,1-3.87-.57,5.21,5.21,0,0,1-2.38-1.73,7,7,0,0,1-1.22-3A23.65,23.65,0,0,1,608.23,95.65Zm2-.33a50.2,50.2,0,0,0,5.16-.21,9.85,9.85,0,0,0,3.08-.74A2.78,2.78,0,0,0,620,92.91a6.46,6.46,0,0,0,.38-2.37V89.71A3.22,3.22,0,0,0,619.2,87a6.1,6.1,0,0,0-3.77-.91,9.84,9.84,0,0,0-2.12.21,3.81,3.81,0,0,0-1.64.77,3.68,3.68,0,0,0-1.05,1.51,6.59,6.59,0,0,0-.38,2.4v4.31Z"/>
  </g>
</svg>
