<svg xmlns="http://www.w3.org/2000/svg" viewBox="0 0 32 32"><defs><style>.a{fill:none;stroke:#682266;stroke-linecap:round;stroke-linejoin:round;stroke-width:1.5px;}</style></defs><title>news-btn</title><path class="a" d="M27.15,6.68l-9.94,8.77a2.07,2.07,0,0,1-2.7,0L4.57,6.68"/><line class="a" x1="11.23" y1="16.35" x2="4.57" y2="21.79"/><path class="a" d="M27.29,24.69a3,3,0,0,0,3.14-2.81V6.59a2.87,2.87,0,0,0-2.95-2.82h-23A2.86,2.86,0,0,0,1.58,6.59V21.87a2.86,2.86,0,0,0,2.94,2.81H16.34"/><circle class="a" cx="21.81" cy="22.22" r="6" transform="translate(-9.32 21.93) rotate(-45)"/><polyline class="a" points="19.4 23.25 20.83 24.55 24.76 21.15"/></svg>