<svg xmlns="http://www.w3.org/2000/svg" viewBox="0 0 32 32"><defs><style>.a{fill:none;stroke:#682266;stroke-linecap:round;stroke-linejoin:round;stroke-width:1.5px;}</style></defs><title>news-btn</title><polyline class="a" points="22.58 1.63 22.58 6.48 27.55 6.48"/><path class="a" d="M27.55,25.61a.88.88,0,0,1-.87.87H9.42a.87.87,0,0,1-.87-.87V2.5a.88.88,0,0,1,.87-.88H23.13a.64.64,0,0,1,.5.26l3.66,3.57a.87.87,0,0,1,.26.62Z"/><line class="a" x1="23.24" y1="13.52" x2="13.24" y2="13.52"/><line class="a" x1="23.24" y1="17.52" x2="13.24" y2="17.52"/><line class="a" x1="23.24" y1="21.52" x2="13.24" y2="21.52"/><line class="a" x1="19.37" y1="9.5" x2="13.12" y2="9.5"/><path class="a" d="M5.42,5.35a.91.91,0,0,0-.91.91V29.5a.91.91,0,0,0,.91.91H24.26a.91.91,0,0,0,.91-.91"/></svg>