<?xml version="1.0" standalone="no"?>
<!DOCTYPE svg PUBLIC "-//W3C//DTD SVG 1.1//EN" "http://www.w3.org/Graphics/SVG/1.1/DTD/svg11.dtd" >
<svg xmlns="http://www.w3.org/2000/svg">
<metadata></metadata>
<defs>
<font id="worldly_lightworldly_light" horiz-adv-x="976" >
<font-face units-per-em="2048" ascent="1536" descent="-512" />
<missing-glyph horiz-adv-x="411" />
<glyph horiz-adv-x="0" />
<glyph unicode="&#xd;" horiz-adv-x="0" />
<glyph horiz-adv-x="0" />
<glyph horiz-adv-x="0" />
<glyph unicode=" "  horiz-adv-x="411" />
<glyph unicode="&#x09;" horiz-adv-x="411" />
<glyph unicode="&#xa0;" horiz-adv-x="411" />
<glyph unicode="!" horiz-adv-x="395" d="M139 31v151q0 10 25.5 19.5t58.5 9.5q18 0 27.5 -16.5t9.5 -36.5v-101q0 -23 -9 -38t-28 -15q-33 0 -58.5 8.5t-25.5 18.5zM139 412v1056q0 10 25.5 19.5t58.5 9.5q16 0 26.5 -15.5t10.5 -37.5v-1008q0 -23 -10 -38t-27 -15q-33 0 -58.5 9.5t-25.5 19.5z" />
<glyph unicode="&#x22;" horiz-adv-x="559" d="M98 1090v430q0 10 26 19t58 9q23 0 30 -15t7 -38v-381q0 -23 -7 -38t-30 -15q-33 0 -58.5 9t-25.5 20zM340 1090v430q0 10 25.5 19t58.5 9q23 0 30 -15t7 -38v-381q0 -23 -7.5 -38t-29.5 -15q-33 0 -58.5 9t-25.5 20z" />
<glyph unicode="#" horiz-adv-x="1257" d="M143 473q0 16 3.5 41t19.5 25h192l74 430h-180q-18 0 -19 22q0 16 3.5 41t19.5 25h199l73 407q2 10 11.5 14.5t20.5 5.5t21.5 0t16.5 -1q20 -6 14 -37l-67 -389h364l74 407q2 10 11.5 14.5t20.5 5.5t21.5 0t16.5 -1q20 -6 14 -37l-68 -389h142q23 0 22 -23 q0 -18 -4 -41.5t-20 -23.5h-164l-72 -430h152q23 0 22 -23q0 -18 -4 -41.5t-20 -23.5h-172l-78 -439q-4 -25 -13.5 -31t-19.5 -6q-6 0 -17.5 1t-20.5 5.5t-15 9.5t-4 15l80 445h-367l-78 -439q-4 -25 -13 -31t-20 -6q-6 0 -17 1t-20.5 5.5t-15.5 9.5t-4 15l80 445h-174 q-20 0 -21 22zM449 539h364l74 430h-367z" />
<glyph unicode="$" horiz-adv-x="997" d="M88 63q4 27 11 49.5t30 16.5q53 -14 141 -32.5t191 -18.5q57 0 119.5 10t115 37t85 75t32.5 126q0 94 -50 163.5t-126 130t-165 116t-165 119t-126 141t-50 182.5q0 74 26.5 129t72.5 94t108.5 61.5t136.5 30.5v129q0 10 22.5 19.5t53.5 9.5q23 0 28 -15.5t5 -33.5v-103 q31 -2 69.5 -5t77.5 -7t76 -11.5t61 -15.5q25 -8 31 -16t2 -27q-4 -23 -12 -41t-33 -14q-70 14 -135.5 23.5t-136.5 9.5q-70 0 -130.5 -12.5t-105.5 -38t-70.5 -65.5t-25.5 -97q0 -82 50 -144.5t126 -120t165 -112.5t165 -123t126 -154t50 -200q0 -88 -31 -150.5t-83 -104.5 t-120.5 -64.5t-144.5 -28.5v-121q0 -18 -5 -33.5t-28 -15.5q-29 0 -52.5 9t-23.5 19v137q-43 2 -91 6.5t-92 10.5t-82 14t-62 17q-23 8 -27 16t-4 24z" />
<glyph unicode="%" horiz-adv-x="1830" d="M111 1079v172q0 131 65.5 200t200.5 69h16q80 0 131 -22.5t82 -65.5t42 -105.5t11 -144.5v-172q0 -129 -65.5 -198t-200.5 -69h-16q-80 0 -131 21.5t-82 64.5t-42 105.5t-11 144.5zM217 1065q0 -51 6 -94t23.5 -74t49.5 -47t85 -16h8q51 0 84 15t50.5 44t23.5 70t6 90 v139q0 55 -5 98t-22.5 74t-50.5 47t-86 16h-8q-53 0 -86 -16t-50.5 -46t-22.5 -72t-5 -95v-133zM467 8l844 1538q6 10 30.5 4t42.5 -16q8 -4 14.5 -14.5t2.5 -22.5t-12.5 -26.5t-14.5 -26.5l-823 -1501q-4 -8 -16.5 -10.5t-34.5 8.5q-16 8 -29.5 29.5t-3.5 37.5zM1178 311 v172q0 131 65.5 200t200.5 69h14q80 0 132 -22.5t82 -65.5t41 -105.5t11 -142.5v-172q0 -266 -266 -267h-14q-80 0 -131 21.5t-82 63.5t-42 104.5t-11 144.5zM1284 299q0 -51 6 -94t23.5 -74t49.5 -48t85 -17h6q51 0 84 15t51.5 45t24.5 71t6 90v137q0 55 -6 99t-23.5 75 t-50.5 47.5t-86 16.5h-6q-53 0 -86 -16.5t-50.5 -46.5t-22.5 -73t-5 -96v-131z" />
<glyph unicode="&#x26;" horiz-adv-x="1431" d="M115 379v27q0 94 23.5 155.5t61.5 100t87 61t98 37.5q-41 12 -84 33.5t-79 60.5t-58.5 95.5t-22.5 137.5v17q0 115 36 191.5t104.5 121.5t167 63.5t223.5 18.5q10 0 46 -2t77 -6t74.5 -13.5t39.5 -23.5q2 -27 -5 -29t-7 -6q-43 0 -89 -15t-97 -13q-66 2 -121 0t-103 -13 q-117 -23 -170 -85t-53 -185q0 -96 33 -160q41 -82 137 -111.5t219 -29.5h342v311q0 10 27 16.5t55 6.5q27 0 29 -18.5t2 -39.5v-276h238q31 0 30 -27q0 -25 -8 -53.5t-31 -28.5h-229v-458q0 -66 28.5 -112t102.5 -46q27 0 49.5 7t63.5 17q12 4 22 -18t15 -45q2 -4 2 -10 q-4 -14 -15 -23q-45 -23 -83 -29t-85 -6q-106 0 -159.5 70t-53.5 250v403h-370q-78 0 -147.5 -9t-123 -38.5t-85 -85t-31.5 -147.5v-60q0 -55 17 -95t47 -68.5t70 -48t83 -31.5q68 -20 136 -25.5t146 -3.5q66 2 115 -13.5t80 -11.5q25 0 24 -26q0 -16 -31.5 -27.5 t-75.5 -18.5t-92 -11.5t-79 -4.5q-27 0 -50.5 1t-45.5 3q-96 6 -181.5 30t-149 71t-100 120.5t-36.5 180.5z" />
<glyph unicode="'" horiz-adv-x="296" d="M98 1087v431q0 10 26 19t58 9q25 0 31 -16.5t6 -36.5v-381q0 -23 -6 -38t-31 -15q-33 0 -58.5 8t-25.5 20z" />
<glyph unicode="(" horiz-adv-x="557" d="M131 662q0 276 79 527t241 443q6 6 16 1t17.5 -15t10.5 -22.5t-6 -22.5q-55 -80 -98 -185.5t-73.5 -224.5t-47 -247.5t-16.5 -253.5q0 -127 16.5 -255t47 -247t73.5 -224.5t98 -185.5q8 -10 5.5 -22.5t-10 -22.5t-17.5 -15t-16 1q-162 193 -241 443.5t-79 527.5z" />
<glyph unicode=")" horiz-adv-x="557" d="M137 -272.5q-2 12.5 4 22.5q55 80 99.5 185.5t75 224.5t47 247t16.5 255q0 125 -16.5 253.5t-47 247.5t-74.5 224.5t-100 185.5q-6 10 -4 22.5t10.5 22.5t17.5 15t15 -1q164 -193 242 -443.5t78 -526.5t-78 -527.5t-242 -443.5q-6 -6 -15 -1t-17.5 15t-10.5 22.5z" />
<glyph unicode="*" horiz-adv-x="1091" d="M217 1235q0 2 3 14.5t7 25.5t11.5 23.5t15.5 10.5q10 0 18.5 -4.5t18.5 -8.5q53 -29 110.5 -49t112.5 -41l-12 164q-2 23 -4 42.5t-2 39.5q-2 25 7 30t34 5q37 0 48 -3t11 -32q0 -20 -1 -39.5t-3 -42.5l-14 -164l223 90q10 4 18 8.5t19 4.5q8 0 16 -10.5t12 -23.5 t7.5 -25.5t3.5 -14.5q0 -8 -12.5 -15.5t-29 -13.5t-36 -11t-33.5 -9l-162 -47l160 -191q8 -10 13 -16t5 -14q0 -10 -11 -18.5t-25.5 -15.5t-26.5 -12l-12 -4q-12 0 -18.5 10.5t-14.5 22.5l-127 197q-20 -31 -44 -71t-46.5 -76t-42 -59.5t-27.5 -23.5l-13 4q-12 5 -26 12 t-25.5 15t-11.5 19q0 8 5.5 14t13.5 16l159 191l-163 47q-16 4 -35 9t-35 11t-27.5 13.5t-11.5 15.5z" />
<glyph unicode="+" horiz-adv-x="1261" d="M137 522q0 25 7.5 52.5t31.5 27.5h397v406q0 29 27 28q27 0 53.5 -7t26.5 -30v-397h407q29 0 29 -27q0 -25 -7 -52t-30 -27h-399v-408q0 -31 -27 -31q-25 0 -52.5 7t-27.5 32v400h-405q-31 0 -31 26z" />
<glyph unicode="," horiz-adv-x="370" d="M42 -207q-5 8 1 35l61 272q4 23 29 29t62 6q29 0 32.5 -14t-6.5 -43l-84 -252q-10 -29 -26.5 -35t-51.5 -6q-12 0 -17 8z" />
<glyph unicode="-" horiz-adv-x="706" d="M102 580q0 25 6.5 52t30.5 27h441q31 0 30 -26q0 -25 -6 -52.5t-31 -27.5h-440q-31 0 -31 27z" />
<glyph unicode="." horiz-adv-x="319" d="M98 4v150q0 10 26 18t58 8q23 0 30 -15t7 -38v-96q0 -23 -7 -39.5t-30 -16.5q-33 0 -58.5 9.5t-25.5 19.5z" />
<glyph unicode="/" horiz-adv-x="901" d="M72 -90l622 1655q15 36 54 22q23 -8 42 -19.5t15 -23.5l-625 -1648q-6 -18 -18 -28.5t-33 -2.5q-23 6 -43 17.5t-14 27.5z" />
<glyph unicode="0" horiz-adv-x="1208" d="M119 498v477q0 143 25.5 242.5t81 162t143.5 91t215 28.5h39q125 0 214 -28.5t145 -91t82 -162t26 -242.5v-477q0 -143 -26 -242.5t-82 -162t-145 -90.5t-214 -28h-39q-127 0 -215 28t-143.5 90.5t-81 161.5t-25.5 243zM240 498q0 -117 17 -197t57 -129t106.5 -70.5 t163.5 -21.5h39q96 0 162.5 21.5t106.5 70.5t57.5 129t17.5 197v479q0 117 -17.5 196.5t-57.5 129t-106.5 71t-162.5 21.5h-39q-96 0 -163 -21.5t-107 -71t-57 -129t-17 -196.5v-479z" />
<glyph unicode="1" horiz-adv-x="825" d="M188 1237l250 242q10 10 34 15t50 5q18 0 25.5 -6t7.5 -12v-1450q0 -23 -7 -39.5t-28 -16.5q-33 0 -58.5 9.5t-25.5 19.5v1335l-155 -159q-23 -23 -45.5 -18t-45.5 28q-27 27 -2 47z" />
<glyph unicode="2" horiz-adv-x="1032" d="M37 39q0 20 13 52t30 54q156 164 271.5 286t197.5 212t134 156.5t82 119t41 97.5t11 94q0 158 -91 219.5t-259 61.5q-106 0 -185 -17.5t-157 -40.5q-16 -4 -25.5 13.5t-19.5 50.5q-4 16 6 26.5t47 20.5q74 23 164 39t197 16q98 0 180 -18.5t140 -62.5t91 -119.5 t33 -188.5q0 -57 -11.5 -109.5t-41 -108.5t-82.5 -126t-135 -161t-197 -213t-270 -283h719q47 0 47 -37q0 -20 -7.5 -46t-17.5 -26h-852q-23 0 -38 10t-15 29z" />
<glyph unicode="3" horiz-adv-x="1028" d="M59 27q0 6 1 21t4.5 29.5t9.5 26t16 9.5q20 -2 55 -7.5t77 -10.5t88 -9t91 -4q66 0 134.5 11t124 44t91 92.5t35.5 155.5v41q0 98 -29.5 158.5t-80.5 93.5t-120 44t-146 11h-58q-12 0 -24.5 22.5t-12.5 51.5q0 18 11.5 24.5t29.5 6.5h25q80 0 149.5 13t120.5 45t81 83 t30 125v16q0 156 -85 216.5t-269 60.5q-47 0 -106.5 -5.5t-170.5 -21.5q-8 0 -18.5 23.5t-10.5 50.5q0 14 34 24.5t84 17.5t106.5 10t101.5 3q111 0 195 -17.5t142 -59.5t88 -114.5t30 -183.5v-24q0 -80 -23.5 -133.5t-61.5 -89t-83 -55t-88 -29.5q51 -6 101 -24.5t90 -59.5 t65.5 -107.5t25.5 -167.5v-59q0 -117 -40 -194t-106.5 -123t-154.5 -64.5t-184 -18.5q-49 0 -112.5 4.5t-120 11.5t-94.5 16t-38 20z" />
<glyph unicode="4" horiz-adv-x="1122" d="M20 367q0 53 17 75l731 1024q16 20 37.5 26.5t40.5 6.5q18 0 25.5 -15.5t7.5 -35.5v-1010h159q16 0 30.5 -7t14.5 -25q0 -29 -8 -52.5t-16 -23.5h-180v-301q0 -23 -8.5 -38.5t-28.5 -15.5q-33 0 -57.5 9.5t-24.5 19.5v326h-688q-23 0 -37.5 7t-14.5 30zM156 438h604v858z " />
<glyph unicode="5" horiz-adv-x="1146" d="M76 59q4 27 12 50.5t21 23.5q82 -23 182 -37t205 -14q88 0 162.5 19.5t130 63.5t87 114.5t31.5 175.5q0 199 -89 291t-300 92h-270q-25 0 -37 9t-6 46l96 569q4 27 26.5 33t63.5 6h539q12 0 22.5 -5t10.5 -23q0 -23 -9 -51.5t-34 -28.5h-506l-82 -449h215 q244 0 362.5 -111.5t118.5 -363.5v-20q0 -135 -42 -226.5t-114.5 -145.5t-170 -78t-205.5 -24q-86 0 -186.5 10.5t-198.5 34.5q-16 4 -27.5 14.5t-7.5 24.5z" />
<glyph unicode="6" horiz-adv-x="1165" d="M98 442v21q0 166 46 317.5t133.5 282.5t211 238.5t281.5 185.5q16 8 28.5 9t20.5 -9q16 -23 19.5 -50.5t-25.5 -43.5q-63 -37 -134 -83t-141.5 -111.5t-135 -155t-115.5 -214.5q66 66 146.5 85.5t170.5 19.5h19q229 0 336.5 -107.5t107.5 -357.5v-27q0 -131 -28.5 -220 t-87 -144t-147.5 -79t-212 -24h-19q-123 0 -212 24t-147 79t-87 144t-29 220zM221 442q0 -80 12.5 -146.5t50.5 -114.5t106.5 -73.5t182.5 -25.5h19q113 0 182.5 25.5t108.5 73.5t51 114.5t12 146.5v27q0 80 -12 146.5t-51 114.5t-108.5 73.5t-182.5 25.5h-19 q-123 0 -190.5 -28.5t-100 -78.5t-42 -116.5t-17.5 -142.5z" />
<glyph unicode="7" horiz-adv-x="1032" d="M106 1440q0 18 14.5 25.5t31.5 7.5h847q8 0 13.5 -10.5t5.5 -24.5q0 -16 -2 -34t-10 -30l-693 -1366q-10 -23 -35.5 -28t-60.5 -5q-16 0 -27.5 11.5t0.5 29.5l680 1350h-737q-10 0 -18.5 23.5t-8.5 50.5z" />
<glyph unicode="8" horiz-adv-x="1232" d="M119 412q0 113 22.5 182.5t59.5 110t85 63.5t97 39q-41 16 -77 39.5t-64.5 58.5t-45 87t-16.5 126q0 201 96.5 291t311.5 90h57q397 0 406 -342q2 -63 -6.5 -107t-24.5 -85q-25 -66 -72 -101t-98 -57q49 -16 96 -37.5t84 -62.5t60.5 -109t23.5 -178q0 -129 -29.5 -215 t-89 -136.5t-146.5 -71t-204 -20.5h-57q-115 0 -203 20.5t-147.5 70t-89 133.5t-29.5 211zM240 420q0 -78 13 -140.5t51 -105.5t106.5 -66.5t177.5 -23.5h57q106 0 174 22.5t107 65.5t52 103.5t13 136.5q0 184 -83 261t-263 77h-57q-180 0 -264 -76t-84 -254zM297 1128 q0 -51 9 -100t40 -87t87 -60.5t153 -22.5h59q94 0 151.5 22.5t88 60.5t41 86t10.5 99q0 63 -10.5 112.5t-41 83.5t-88 51.5t-151.5 17.5h-57q-94 0 -151.5 -17.5t-88.5 -51.5t-41 -83t-10 -111z" />
<glyph unicode="9" horiz-adv-x="1155" d="M96 1004v32q0 129 29 218t87 144.5t147.5 80t209.5 24.5h19q121 0 210 -24.5t147.5 -80t87 -144.5t28.5 -218v-24q0 -207 -34 -361.5t-94.5 -267.5t-140 -187.5t-173 -120.5t-193.5 -68.5t-199 -29.5q-6 -2 -20 1.5t-19 13.5q-8 29 -5.5 52.5t16.5 27.5 q139 12 246.5 41.5t207.5 105.5q104 78 162.5 193.5t93.5 281.5q-29 -49 -69.5 -79.5t-86.5 -49t-96.5 -24.5t-99.5 -6h-18q-229 0 -336 109.5t-107 359.5zM219 1004q0 -82 12.5 -149t50 -115t106 -74.5t181.5 -26.5h19q123 0 190.5 31.5t100 84t42 119t15.5 138.5l2 24 q6 80 -5 145.5t-50 113.5t-111 74t-184 26h-19q-113 0 -181.5 -26t-106 -74t-50 -113.5t-12.5 -145.5v-32z" />
<glyph unicode=":" horiz-adv-x="518" d="M201 25v151q0 10 25.5 19.5t58.5 9.5q23 0 30 -15.5t7 -37.5v-101q0 -23 -7.5 -38t-29.5 -15q-33 0 -58.5 8.5t-25.5 18.5zM201 930v151q0 10 25.5 18.5t58.5 8.5q23 0 30 -15.5t7 -37.5v-101q0 -23 -7.5 -38t-29.5 -15q-33 0 -58.5 9.5t-25.5 19.5z" />
<glyph unicode=";" horiz-adv-x="573" d="M148.5 -174q-3.5 8 3.5 33l69 291q4 16 31 22t67 6q23 0 35 -13t0 -42l-121 -262q-14 -31 -28.5 -37t-42.5 -6q-10 0 -13.5 8zM223 930v151q0 10 25.5 18.5t58.5 8.5q29 0 33 -17.5t4 -39.5v-93q0 -23 -4 -40t-33 -17q-33 0 -58.5 9.5t-25.5 19.5z" />
<glyph unicode="&#x3c;" horiz-adv-x="1083" d="M14 510v63l940 412v-106l-764 -336l764 -338v-105z" />
<glyph unicode="=" horiz-adv-x="1259" d="M133 299v102h991v-102h-991zM135 717v100h989v-100h-989z" />
<glyph unicode="&#x3e;" horiz-adv-x="1085" d="M129 100v105l764 338l-764 336v106l938 -412v-63z" />
<glyph unicode="?" horiz-adv-x="1042" d="M141 1456q-6 31 45 39q47 10 105.5 17.5t134.5 7.5q94 0 175 -14.5t139.5 -53.5t92 -106.5t33.5 -171.5q0 -66 -26.5 -126.5t-67.5 -118t-88 -113.5t-88 -113.5t-67.5 -117t-26.5 -120.5v-100q0 -18 -4 -34t-27 -16q-33 -2 -59.5 8.5t-26.5 20.5v121q0 68 26.5 131 t66.5 123.5t86 119t86 114t66.5 108.5t26.5 106q0 76 -22.5 124t-63.5 75t-99 37t-132 10q-37 0 -67.5 -2t-58.5 -5t-56.5 -8t-63.5 -12q-12 0 -22.5 22t-16.5 48zM385 18v140q0 10 25.5 19t58.5 9q29 0 33 -16t4 -39v-84q0 -23 -4 -40t-33 -17q-33 0 -58.5 9t-25.5 19z" />
<glyph unicode="@" horiz-adv-x="1738" d="M119 680q0 182 68.5 329.5t179 252t253 161t289.5 56.5q154 0 284 -51.5t225 -139.5t148.5 -206.5t53.5 -254.5q0 -102 -22.5 -196t-68.5 -168t-116 -118t-164 -44q-41 0 -76.5 8t-62.5 25.5t-41 46.5t-10 70q-57 -88 -123 -118t-125 -30q-84 0 -141.5 24.5t-92 65.5 t-51 93.5t-16.5 107.5q0 80 28.5 162t82 148.5t130 107.5t173.5 41q145 0 215.5 -73t70.5 -189q0 -74 -25.5 -139.5t-45.5 -112.5q-10 -27 -10.5 -53.5t12 -48t39 -36t69.5 -14.5q49 0 97.5 22.5t87.5 75t62.5 136.5t23.5 208q0 123 -48.5 226.5t-131.5 179.5t-193.5 118 t-237.5 42q-150 0 -276.5 -59.5t-218.5 -159t-143.5 -228.5t-51.5 -268q0 -170 57.5 -298t153.5 -213t222 -128t261 -43q18 0 33 -8t19 -31q12 -31 0.5 -39t-47.5 -8q-168 0 -314.5 50t-254 147.5t-169 241t-61.5 329.5zM610 600q0 -88 49 -149.5t158 -61.5q68 0 122 42 t92 103.5t59.5 128t21.5 115.5q0 100 -50 145.5t-153 43.5q-68 -2 -122 -36t-94 -87t-61.5 -117.5t-21.5 -126.5z" />
<glyph unicode="A" horiz-adv-x="1196" d="M43 -2q0 4 1 8t3 10l488 1452q4 16 30.5 23.5t61.5 7.5q27 0 39 -35l483 -1448q2 -6 3 -10t1 -8q0 -14 -11.5 -18.5t-21.5 -4.5q-43 0 -65.5 6t-30.5 29l-158 484h-534l-168 -494q-6 -18 -32 -21.5t-54 -3.5q-14 0 -24.5 4.5t-10.5 18.5zM362 600h472l-220 666 q-6 18 -9 38.5t-7 36.5q-4 -16 -7 -36.5t-9 -38.5z" />
<glyph unicode="B" horiz-adv-x="1263" d="M145 31v1390q0 31 12.5 42.5t53.5 11.5h514q117 0 192.5 -30t119.5 -81t61.5 -118.5t17.5 -143.5v-12q0 -152 -52 -224.5t-140 -93.5q33 -6 71.5 -25.5t71.5 -59.5t55.5 -105.5t22.5 -161.5v-39q0 -113 -27.5 -186.5t-82 -116.5t-132.5 -60.5t-178 -17.5h-504 q-25 0 -50.5 8t-25.5 23zM268 109h459q80 0 136.5 12t91 43t51 84t16.5 133v39q0 156 -69.5 225.5t-223.5 69.5h-461v-606zM268 815h453q152 0 212 67.5t60 207.5v12q0 59 -13 108.5t-45 84t-83 53t-127 18.5h-457v-551z" />
<glyph unicode="C" horiz-adv-x="1056" d="M119 518v438q0 154 31.5 257.5t97 167t164 91t231.5 27.5h16q49 0 105.5 -4t103.5 -11t79 -16.5t32 -21.5q0 -29 -5 -56.5t-20 -25.5q-12 2 -38.5 7t-65.5 10t-85 9.5t-97 4.5h-17q-113 0 -190.5 -23.5t-125.5 -76t-69.5 -139.5t-21.5 -212v-414q0 -127 21.5 -213 t69.5 -139t125 -76.5t187 -23.5h17q109 0 183.5 14t100.5 18q16 2 22.5 -28.5t6.5 -52.5q0 -10 -28.5 -20.5t-75 -17.5t-103.5 -11.5t-115 -4.5h-16q-133 0 -230.5 28t-162 91.5t-96 167t-31.5 256.5z" />
<glyph unicode="D" horiz-adv-x="1255" d="M147 31v1390q0 35 18.5 44.5t41.5 9.5h375q141 0 245.5 -28t173 -92.5t102.5 -168t34 -256.5v-387q0 -154 -34 -257.5t-102.5 -167t-173 -91t-245.5 -27.5h-359q-25 0 -50.5 8t-25.5 23zM270 109h312q117 0 197.5 22.5t133 74.5t76 138t23.5 211v363q0 125 -23.5 210.5 t-76 138t-133 76t-197.5 23.5h-312v-1257z" />
<glyph unicode="E" horiz-adv-x="1085" d="M147 31v1388q0 53 37 54h760q16 0 30.5 -7.5t14.5 -25.5q0 -27 -7 -51.5t-17 -24.5h-695v-561h629q16 0 31.5 -7.5t15.5 -25.5q0 -25 -9 -50.5t-19 -25.5h-648v-585h674q16 0 30.5 -7.5t14.5 -25.5q0 -27 -7 -51.5t-17 -24.5h-744q-23 0 -48.5 8.5t-25.5 22.5z" />
<glyph unicode="F" horiz-adv-x="1013" d="M147 4v1430q0 23 12.5 31t51.5 8h733q16 0 30.5 -7.5t14.5 -25.5q0 -27 -7 -51.5t-17 -24.5h-695v-561h592q18 0 31.5 -7.5t13.5 -25.5q0 -29 -8 -52.5t-18 -23.5h-611v-665q0 -23 -8 -38.5t-29 -15.5q-29 0 -57.5 9.5t-28.5 19.5z" />
<glyph unicode="G" horiz-adv-x="1265" d="M119 518v438q0 154 35.5 257.5t108.5 167t181.5 91t255.5 27.5h43q88 0 164 -5t131.5 -14.5t87 -20.5t31.5 -25q0 -23 -11 -53.5t-28 -28.5q-33 8 -67.5 15t-76.5 12t-95.5 8.5t-122.5 3.5h-43q-127 0 -215 -22.5t-145.5 -75t-83 -138.5t-25.5 -211v-414 q0 -125 24.5 -211t77.5 -138t136 -75.5t200 -23.5h20q88 0 159 9t163 26v555q0 12 23.5 19t58.5 7q25 0 33 -13t8 -44v-543q0 -37 -7 -48t-24 -17q-27 -10 -73 -20.5t-103 -18.5t-118.5 -13.5t-119.5 -5.5h-20q-143 0 -248.5 28t-175.5 91.5t-104.5 167t-34.5 256.5z" />
<glyph unicode="H" horiz-adv-x="1329" d="M147 4v1466q0 10 29 19.5t57 9.5q23 0 30 -15.5t7 -39.5v-623h789v645q0 10 27.5 21.5t60.5 11.5q23 0 29 -17t6 -40v-1411q0 -23 -6.5 -39.5t-28.5 -16.5q-33 0 -60.5 9.5t-27.5 19.5v709h-789v-684q0 -23 -7 -38.5t-30 -15.5q-29 0 -57.5 9.5t-28.5 19.5z" />
<glyph unicode="I" horiz-adv-x="415" d="M147 4v1464q0 10 28 20.5t58 10.5q20 0 28.5 -16.5t8.5 -38.5v-1415q0 -23 -8 -38.5t-29 -15.5q-31 0 -58.5 9.5t-27.5 19.5z" />
<glyph unicode="J" horiz-adv-x="425" d="M-188 27q4 23 13 46t21 19q41 -10 79 -16t79 -6q76 0 113 43t37 155v1200q0 10 27.5 20.5t60.5 10.5q20 0 28.5 -16.5t8.5 -38.5v-1174q0 -160 -59.5 -233.5t-194.5 -73.5q-37 0 -79 5t-96 18q-14 4 -28 11q-11 5 -11 19q0 5 1 11z" />
<glyph unicode="K" horiz-adv-x="1177" d="M147 4v1464q0 10 28 20.5t58 10.5q20 0 28.5 -16.5t8.5 -38.5v-664l684 688q16 18 42 24.5t65 6.5q10 0 22.5 -4t12.5 -18q0 -12 -31 -50l-664 -663l711 -719q33 -33 33 -49q0 -14 -12.5 -17.5t-22.5 -3.5q-39 0 -65.5 5.5t-43.5 23.5l-731 744v-719q0 -23 -8 -38.5 t-29 -15.5q-31 0 -58.5 9.5t-27.5 19.5z" />
<glyph unicode="L" horiz-adv-x="968" d="M147 27v1441q0 10 28 20.5t61 10.5q20 0 28 -16.5t8 -38.5v-1335h621q16 0 30.5 -7.5t14.5 -25.5q0 -29 -7.5 -52.5t-17.5 -23.5h-702q-33 0 -48.5 8t-15.5 19z" />
<glyph unicode="M" horiz-adv-x="2007" d="M100 10l303 1460q4 14 28 21.5t54 7.5q29 0 39 -29l451 -1226q10 -29 18 -59.5t15 -57.5q6 27 13 56.5t17 58.5l449 1228q4 14 28.5 21.5t51.5 7.5q20 0 28.5 -8t12.5 -21l299 -1460q1 -6 1 -10q0 -14 -10 -19q-12 -6 -22 -6q-41 0 -66.5 6.5t-29.5 24.5l-242 1229 q-4 12 -5 28.5t-3 34.5q-4 -27 -8 -39t-9 -24l-442 -1227q-10 -33 -47 -33q-31 0 -54.5 8.5t-29.5 24.5l-444 1227q-4 14 -9.5 31.5t-7.5 33.5l-8 -63l-246 -1231q-4 -18 -31.5 -24.5t-62.5 -6.5q-7 -1 -21 7q-10 6 -11 20q0 3 1 8z" />
<glyph unicode="N" horiz-adv-x="1339" d="M150 4v1464q0 10 23.5 20.5t55.5 10.5q12 0 22.5 -9t14.5 -20l809 -1263v1263q0 10 25.5 19.5t60.5 9.5q18 0 24.5 -17.5t6.5 -39.5v-1413q0 -23 -9 -38.5t-26 -15.5q-23 0 -50.5 7.5t-31.5 17.5l-809 1266v-1237q0 -23 -7 -38.5t-26 -15.5q-33 0 -58 9.5t-25 19.5z" />
<glyph unicode="O" horiz-adv-x="1363" d="M119 518v438q0 154 33.5 257.5t102.5 167t173 91t246 27.5h16q141 0 244.5 -27.5t173.5 -91t103.5 -167t33.5 -257.5v-438q0 -154 -33.5 -257t-103.5 -166.5t-173.5 -91.5t-244.5 -28h-16q-141 0 -245.5 28t-173.5 91.5t-102.5 167t-33.5 256.5zM244 522 q0 -125 23.5 -209t75.5 -135t133 -73.5t198 -22.5h16q117 0 198 22.5t133 73.5t75.5 135t23.5 209v430q0 125 -23.5 209t-75.5 135.5t-133 73t-198 21.5h-16q-117 0 -198 -21.5t-133 -73t-75.5 -135.5t-23.5 -209v-430z" />
<glyph unicode="P" horiz-adv-x="1155" d="M145 4v1415q0 37 10.5 45.5t26.5 8.5h426q137 0 228.5 -23t143.5 -72t73.5 -129t21.5 -196v-21q0 -121 -22.5 -200.5t-76.5 -128t-144.5 -69t-223.5 -20.5h-340v-585q0 -23 -8 -38.5t-27 -15.5q-31 0 -59.5 9.5t-28.5 19.5zM268 723h340q102 0 169 13.5t105 48t53 95 t15 152.5v21q0 94 -15 154.5t-53 95t-105 48t-169 13.5h-340v-641z" />
<glyph unicode="Q" horiz-adv-x="1527" d="M100 608v346q0 152 34 255.5t102.5 166t172 90t242.5 27.5h17q139 0 242.5 -27.5t172 -90t102.5 -166t34 -255.5v-434q0 -240 -86 -364l86 -52q20 -12 29 -28q4 -7 4 -14q0 -9 -5 -17q-16 -27 -37.5 -45t-31.5 -14l-136 82q-119 -80 -331 -86h-117q-141 6 -235.5 40.5 t-151.5 108.5t-82 190.5t-25 286.5zM225 530q0 -123 23.5 -207.5t75 -137t132.5 -75t195 -22.5h17q164 0 258 47l-4 2q-10 6 -5 35t21 55q10 16 29.5 14.5t38.5 -12.5l18 -10q72 102 72 311v412q0 123 -23.5 208t-75 137t-133.5 74.5t-196 22.5h-17q-115 0 -195.5 -22.5 t-132 -74.5t-75 -137t-23.5 -208v-412z" />
<glyph unicode="R" horiz-adv-x="1173" d="M145 4v1417q0 23 9.5 38.5t29.5 15.5h424q137 0 228.5 -22.5t143.5 -73t73.5 -130.5t21.5 -196v-21q0 -96 -14 -167.5t-49 -121t-96.5 -78t-153.5 -40.5l319 -582q4 -10 10.5 -21.5t6.5 -21.5q0 -14 -12.5 -19.5t-26.5 -5.5q-29 0 -60.5 12.5t-48.5 43.5l-321 583h-361 v-585q0 -23 -8 -38.5t-27 -15.5q-31 0 -59.5 9.5t-28.5 19.5zM268 723h344q102 0 168 12.5t104 47t52 94t14 155.5v21q0 94 -14 155.5t-52 96t-104 48t-168 13.5h-344v-643z" />
<glyph unicode="S" horiz-adv-x="974" d="M51 63q4 27 11 49.5t30 16.5q53 -14 141.5 -32.5t190.5 -18.5q57 0 119.5 10t115 37t85 75t32.5 126q0 94 -50 163.5t-126 130t-165 116t-164.5 119t-126 141t-50.5 182.5q0 84 34 144t92.5 100t135 58.5t164.5 18.5q29 0 71 -3t86 -7t85 -12.5t69 -16.5q25 -8 31 -16 t2 -27q-4 -23 -12 -41t-33 -14q-70 14 -135.5 23.5t-136.5 9.5q-70 0 -130.5 -12.5t-105.5 -38t-70.5 -65.5t-25.5 -97q0 -82 50 -144.5t126 -120t165 -112.5t165 -123t126 -154t50 -200q0 -98 -39 -166t-102.5 -110t-146.5 -59.5t-171 -17.5q-43 0 -95 4.5t-101 10.5 t-91 14t-69 19q-23 8 -27 16t-4 24z" />
<glyph unicode="T" horiz-adv-x="1060" d="M4 1397q0 27 8 51.5t19 24.5h977q18 0 33.5 -7.5t15.5 -25.5q0 -29 -8.5 -52.5t-18.5 -23.5h-438v-1335q0 -23 -8.5 -38.5t-26.5 -15.5q-33 0 -60.5 9.5t-27.5 19.5v1360h-416q-23 0 -36 7t-13 26z" />
<glyph unicode="U" horiz-adv-x="1316" d="M147 510v956q0 10 28 21.5t61 11.5q18 0 26 -17.5t8 -39.5v-928q0 -121 21.5 -204t65.5 -133t115 -72.5t169 -22.5h16q104 0 178 22.5t121.5 72.5t69 133t21.5 204v952q0 10 27.5 21.5t58.5 11.5q20 0 28 -17.5t8 -39.5v-932q0 -152 -31.5 -253t-95 -164.5t-160 -90.5 t-225.5 -27h-16q-125 0 -217 27t-153.5 90.5t-92.5 164.5t-31 253z" />
<glyph unicode="V" horiz-adv-x="1124" d="M43 1456q-3 10 -3 17q0 12 8 17q13 9 26 9q41 0 65.5 -7t32.5 -30l379 -1251q4 -10 8 -39t6 -39q2 18 5.5 42t7.5 36l376 1253q12 23 31 29t55 6q18 0 35 -7q10 -4 10 -17q0 -8 -4 -19l-454 -1450q-4 -12 -12.5 -21.5t-24.5 -9.5q-47 0 -66.5 7.5t-25.5 19.5z" />
<glyph unicode="W" horiz-adv-x="1880" d="M41 1470q0 29 33 29q35 0 59.5 -6t32.5 -33l356 -1237q6 -20 6 -38.5t2 -39.5q2 20 2 39t7 39l333 1221q10 35 36 45t55 10q18 0 26 -10t17 -39l356 -1227q6 -20 7 -38.5t3 -39.5q2 20 3 39t5 39l334 1239q6 25 32 31t60 6q33 0 33 -29q0 -14 -6 -32l-403 -1415 q-8 -27 -16.5 -37.5t-24.5 -10.5q-23 0 -47.5 11.5t-30.5 33.5l-361 1211q-4 16 -5 32.5t-5 32.5q-4 -16 -6 -32.5t-6 -32.5l-340 -1208q-14 -47 -41 -48q-23 0 -47.5 11.5t-30.5 33.5l-422 1418q-6 18 -6 32z" />
<glyph unicode="X" horiz-adv-x="1093" d="M58 -12q-2 3 -2 9q0 14 16 40l397 700l-395 701q-20 35 -14 48t28 13q45 0 66.5 -5t35.5 -30l357 -626l356 626q14 25 36 30t65 5q24 0 30 -13q1 -3 2 -7q0 -14 -16 -41l-395 -701l397 -700q15 -26 15 -40q0 -5 -2 -9q-7 -14 -29 -13q-35 0 -60.5 5.5t-40.5 27.5 l-358 633l-359 -633q-14 -23 -39.5 -28t-60.5 -5q-23 -1 -30 13z" />
<glyph unicode="Y" horiz-adv-x="1112" d="M48 1488q9 11 32 11q41 0 63.5 -5t30.5 -21l381 -771l381 768q10 18 32.5 23.5t63.5 5.5q23 0 31 -11q3 -4 3 -11q0 -9 -7 -23l-443 -879v-546q0 -23 -7 -38.5t-27 -15.5q-33 0 -59.5 9.5t-26.5 19.5v571l-445 879q-7 13 -7 22q0 7 4 12z" />
<glyph unicode="Z" horiz-adv-x="1118" d="M55 37q0 16 4 41.5t19 48.5l811 1239h-774q-10 0 -16.5 23.5t-6.5 52.5q0 18 12.5 25.5t28.5 7.5h862q20 0 34.5 -8.5t14.5 -30.5q0 -16 -7 -45t-15 -41l-807 -1239h807q16 0 30.5 -8.5t14.5 -26.5q0 -29 -9.5 -52.5t-19.5 -23.5h-956q-27 0 -27 37z" />
<glyph unicode="[" horiz-adv-x="552" d="M145 -317v1859q0 41 33 41h201q16 0 29.5 -8t13.5 -21q0 -27 -8 -47t-17 -20h-133v-1749h133q8 0 16.5 -22.5t8.5 -47.5q0 -12 -14.5 -19t-30.5 -7h-201q-31 0 -31 41z" />
<glyph unicode="\" horiz-adv-x="788" d="M31 1546q-4 8 13 23.5t46 25.5q16 6 28.5 -4t20.5 -30l615 -1624q4 -10 -17.5 -25.5t-44.5 -24.5q-12 -4 -25.5 4.5t-23.5 30.5z" />
<glyph unicode="]" horiz-adv-x="550" d="M131 -332q0 25 9.5 47.5t15.5 22.5h133v1749h-133q-6 0 -15.5 20.5t-9.5 46.5q0 12 14.5 20.5t30.5 8.5h199q33 0 33 -41v-1859q0 -41 -29 -41h-203q-16 0 -30.5 7t-14.5 19z" />
<glyph unicode="^" horiz-adv-x="1257" d="M156 791l473 602l473 -602l-84 -66l-389 502l-389 -502z" />
<glyph unicode="_" horiz-adv-x="837" d="M33 -98q0 25 7 51.5t30 26.5h698q29 0 29 -25q0 -27 -7 -53.5t-30 -26.5h-699q-29 0 -28 27z" />
<glyph unicode="`" horiz-adv-x="399" d="M-20 1601.5q0 12.5 11 19.5t30.5 11t39.5 4q10 0 21.5 -3t17.5 -13l142 -174q25 -31 23.5 -42t-15.5 -11q-23 0 -38 7t-34 23l-178 150q-20 16 -20 28.5z" />
<glyph unicode="a" d="M86 303q0 172 80 241.5t250 69.5q88 0 179 -17t144 -36v234q0 61 -14 102t-47 65.5t-87 36t-136 11.5q-72 0 -142.5 -8.5t-130.5 -20.5q-18 -4 -24 18.5t-11 42.5q-4 25 15 31q31 10 122 22.5t201 12.5q92 0 162 -14.5t115 -50t67.5 -96t22.5 -152.5v-717 q0 -16 -34 -33.5t-88 -33t-123.5 -26t-139.5 -10.5q-188 0 -284.5 75t-96.5 253zM199 297q0 -129 62.5 -180t203.5 -51q37 0 84 5t88 14t69.5 18.5t32.5 19.5v342q-4 6 -35.5 15t-77.5 19.5t-98.5 17.5t-95.5 7q-59 0 -103 -9t-73 -34.5t-43 -69.5t-14 -114z" />
<glyph unicode="b" horiz-adv-x="1015" d="M145 88v1423q0 10 27 17.5t55 7.5q33 0 33 -51v-481q55 41 144.5 72.5t199.5 31.5q98 0 156.5 -30.5t89.5 -82t40 -118t9 -136.5v-403q0 -66 -10 -131.5t-49 -116.5t-113 -83t-199 -32q-80 0 -173 8.5t-175 41.5q-23 10 -29 22t-6 41zM260 115q0 -4 22.5 -11.5 t60.5 -13.5t86 -10t99 -4q94 0 145.5 23.5t76 62.5t29.5 87t5 95v389q0 47 -4 96.5t-22.5 88t-59.5 63.5t-114 25q-61 0 -118.5 -13.5t-102 -32t-73 -39t-30.5 -34.5v-772z" />
<glyph unicode="c" horiz-adv-x="864" d="M119 391v301q0 217 91 316.5t308 99.5q74 0 138.5 -8t86.5 -15q19 -4 31 -10q9 -5 9 -17q0 -4 -1 -9q-4 -37 -11 -51.5t-21 -12.5q-8 0 -32 4t-56.5 9.5t-69.5 8.5t-74 3q-145 0 -216 -73t-71 -245v-299q0 -178 72 -248.5t223 -70.5q45 0 95.5 6t130.5 18q16 2 20 -13 t8 -42q4 -25 -10 -32t-31 -11q-35 -8 -97 -16.5t-136 -8.5q-207 0 -297 99.5t-90 316.5z" />
<glyph unicode="d" horiz-adv-x="1005" d="M119 342v395q0 61 10 127t44 120t98.5 89t172.5 35q47 0 94.5 -7t88.5 -16.5t73.5 -21.5t55.5 -21v469q0 14 30.5 19.5t49.5 5.5q18 0 26 -11t8 -40v-1379q0 -35 -5 -50t-29 -25q-25 -10 -68 -20.5t-93 -18.5t-103.5 -12.5t-96.5 -4.5q-123 0 -193.5 32t-106.5 84 t-46 117.5t-10 133.5zM231 381q0 -63 5.5 -118.5t30 -97.5t76.5 -66.5t146 -24.5q41 0 87.5 4t85 11t64.5 14.5t30 13.5v815q-4 6 -30 18.5t-64.5 23.5t-89 20.5t-101.5 9.5q-88 0 -136 -27t-71.5 -70t-28 -98t-4.5 -113v-315z" />
<glyph unicode="e" horiz-adv-x="999" d="M117 498v250q0 100 25.5 169.5t74.5 111.5t122 60.5t165 18.5h31q356 0 356 -291v-51q0 -92 -23.5 -156.5t-94.5 -105.5t-201 -59.5t-345 -18.5q0 -92 16.5 -158.5t54.5 -109.5t102.5 -64.5t162.5 -21.5q82 0 155 12t126 20q16 2 23 -4t10 -45q4 -23 -1.5 -32t-23.5 -13 q-78 -18 -161 -26.5t-148 -8.5q-129 0 -211 31t-130 94.5t-66.5 161.5t-18.5 236zM227 516q174 0 281.5 11.5t168 40t81 79.5t20.5 129v45q0 96 -62.5 145.5t-205.5 49.5q-63 0 -115.5 -11.5t-89.5 -42t-57.5 -82t-20.5 -130.5v-234z" />
<glyph unicode="f" horiz-adv-x="651" d="M23 1001q0 25 8 52.5t30 27.5h160v224q0 111 62.5 181t179.5 70q37 0 61.5 -2t43 -5t33.5 -8t32 -11q39 -14 39 -41q0 -31 -10.5 -50.5t-22.5 -15.5q-43 16 -72.5 23.5t-81.5 7.5q-84 0 -117.5 -42t-33.5 -116v-215h252q12 0 21 -5t9 -21q0 -23 -8 -49.5t-30 -26.5h-244 v-959q0 -45 -33 -45q-29 0 -54.5 7.5t-25.5 17.5v979h-168q-31 0 -30 22z" />
<glyph unicode="g" horiz-adv-x="1032" d="M131 -420q0 23 7 43.5t24 20.5q74 -14 154.5 -23.5t148.5 -9.5q106 0 168.5 18.5t95.5 58.5t43 103.5t10 155.5v135q-57 -41 -152 -74t-208 -33q-96 0 -152.5 34t-84 88.5t-35 120t-7.5 126.5v397q0 68 10.5 134.5t40 117.5t84 83t144.5 32q25 0 69 -4t97 -12.5 t107.5 -22.5t99.5 -34.5t73.5 -49.5t28.5 -63v-975q0 -115 -15.5 -197t-59.5 -135t-126 -77.5t-215 -24.5q-78 0 -159.5 6t-159.5 22q-20 4 -25.5 13.5t-5.5 25.5zM258 379q0 -53 4 -107.5t21.5 -97.5t54.5 -70.5t104 -27.5q63 0 123 12t106 30.5t75.5 39.5t35.5 37v702 q0 20 -33.5 39.5t-84 36t-110.5 27t-112 10.5q-68 0 -104.5 -27t-54 -70t-21.5 -97t-4 -109v-328z" />
<glyph unicode="h" horiz-adv-x="1050" d="M143 0v1530q2 14 31 19t47 5q37 0 37 -45v-522q27 20 69 42t93 38t108.5 27.5t114.5 11.5q94 0 148.5 -26.5t82 -75t34.5 -116t7 -149.5v-719q0 -29 -10 -37t-26 -8q-25 0 -50.5 7.5t-25.5 17.5v729q0 63 -5 114.5t-23.5 86.5t-54.5 54.5t-99 19.5q-59 0 -122 -14.5 t-114 -35t-86 -43t-41 -37.5v-854q0 -29 -10 -37t-27 -8q-25 0 -51.5 7.5t-26.5 17.5z" />
<glyph unicode="i" horiz-adv-x="512" d="M139 1360v141q0 10 24.5 19.5t59.5 9.5q20 0 28.5 -16.5t8.5 -38.5v-91q0 -20 -8 -36.5t-29 -16.5q-35 0 -59.5 9.5t-24.5 19.5zM141 225v858q0 10 27 16.5t55 6.5q16 0 23.5 -13.5t7.5 -31.5v-821q0 -66 28.5 -112t106.5 -46q29 0 52.5 6t52.5 12q10 2 18 -22 q10 -30 10 -48q0 -25 -37 -36q-39 -10 -67.5 -14.5t-59.5 -4.5q-43 0 -81.5 13.5t-69.5 42t-48.5 77t-17.5 117.5z" />
<glyph unicode="j" horiz-adv-x="391" d="M-113 -377q0 29 6.5 47.5t18.5 16.5q23 -4 49.5 -8.5t65.5 -4.5q37 0 58 13.5t32.5 35t15.5 50t4 57.5v1253q0 10 25.5 16.5t54.5 6.5q18 0 26.5 -13.5t8.5 -31.5v-1231q0 -123 -46 -190.5t-155 -67.5q-35 0 -59.5 1t-61.5 11q-23 4 -33 12.5t-10 26.5zM133 1360v141 q0 10 25.5 19.5t58.5 9.5q23 0 31 -16.5t8 -38.5v-91q0 -20 -8 -36.5t-31 -16.5q-33 0 -58.5 9.5t-25.5 19.5z" />
<glyph unicode="k" horiz-adv-x="882" d="M143 0v1511q0 10 27 17.5t55 7.5q33 0 33 -51v-907l463 501q14 14 37.5 21.5t42.5 7.5q20 0 38.5 -9t-3.5 -40l-455 -494l493 -551q10 -11 10 -18t-8 -12q-8 -4 -19 -6.5t-21 -2.5q-20 0 -43 4.5t-39 24.5l-496 549v-526q0 -51 -33 -52q-29 0 -55.5 7.5t-26.5 17.5z" />
<glyph unicode="l" horiz-adv-x="507" d="M141 225v1288q0 10 27 16.5t55 6.5q16 0 23.5 -13.5t7.5 -31.5v-1251q0 -66 28.5 -112t106.5 -46q29 0 52.5 6t52.5 12q10 2 18 -22q10 -30 10 -48q0 -25 -37 -36q-39 -10 -67.5 -14.5t-57.5 -4.5q-43 0 -82.5 12.5t-70.5 42t-48.5 77t-17.5 118.5z" />
<glyph unicode="m" horiz-adv-x="1654" d="M137 0v940q0 23 35 52.5t98.5 55t151.5 43t194 17.5q92 0 140.5 -34t72.5 -83q47 41 158 79t266 38q90 0 143.5 -33t80 -84t34 -113.5t7.5 -121.5v-736q0 -18 -9.5 -31.5t-25.5 -13.5q-29 0 -54.5 7.5t-25.5 17.5v723q0 49 -4 99t-21.5 90t-52.5 66t-98 26 q-72 0 -135.5 -12.5t-109.5 -31t-72.5 -38t-26.5 -33.5v-869q0 -18 -8.5 -31.5t-26.5 -13.5q-29 0 -53.5 7.5t-24.5 17.5v723q0 49 -4 99t-21.5 90t-52.5 66t-98 26q-72 0 -134.5 -12.5t-108.5 -30t-72.5 -37t-26.5 -33.5v-871q0 -18 -9.5 -31.5t-25.5 -13.5 q-29 0 -54.5 7.5t-25.5 17.5z" />
<glyph unicode="n" horiz-adv-x="1044" d="M135 0v944q0 25 43 53.5t112.5 53t159 41t181.5 16.5q76 0 129 -15.5t86 -52t47 -98t14 -154.5v-768q0 -29 -10 -37t-27 -8q-25 0 -50 7.5t-25 17.5v791q0 57 -7.5 97t-28 65.5t-57 38t-94.5 12.5q-59 0 -122.5 -11.5t-116 -29t-86 -36t-33.5 -30.5v-877q0 -29 -10.5 -37 t-26.5 -8q-25 0 -51.5 7.5t-26.5 17.5z" />
<glyph unicode="o" horiz-adv-x="1046" d="M119 315v449q0 184 96 264t305 80h4q211 0 307.5 -80t96.5 -264v-449q0 -184 -96.5 -262t-307.5 -78h-4q-209 0 -305 78t-96 262zM231 315q0 -121 64.5 -180t224.5 -59h6q160 0 224.5 59.5t64.5 179.5v449q0 123 -64.5 183.5t-224.5 60.5h-6q-160 0 -224.5 -60.5 t-64.5 -183.5v-449z" />
<glyph unicode="p" horiz-adv-x="1019" d="M143 -512v1430q0 37 30 64.5t75 49t102.5 35.5t110.5 23.5t99 13.5t71 4q90 0 143 -36t81 -89t35 -112.5t7 -108.5v-434q0 -74 -9 -138.5t-38 -112.5t-85 -75t-149 -27q-49 0 -100 9.5t-99 24t-90 32.5t-69 37v-570q0 -29 -10 -37t-27 -8q-25 0 -51.5 7.5t-26.5 17.5z M258 199q6 -16 39 -37t81 -39.5t106.5 -30.5t113.5 -12q100 0 142 54t42 192v417q0 78 -12 128.5t-35.5 80t-57.5 42t-77 12.5q-47 0 -104.5 -10.5t-108.5 -26t-88 -36t-41 -40.5v-694z" />
<glyph unicode="q" horiz-adv-x="1005" d="M119 344v397q0 68 9 134.5t37 117.5t79 83t135 32q25 0 71 -4t100 -12.5t111.5 -21.5t103.5 -31.5t75.5 -44t29.5 -56.5v-1430q0 -18 -9 -31.5t-25 -13.5q-29 0 -54.5 7.5t-25.5 17.5v590q-59 -37 -157.5 -69t-219.5 -32q-90 0 -142.5 34t-79 87.5t-32.5 119t-6 126.5z M231 379q0 -53 3.5 -107.5t19.5 -97.5t49 -70.5t92 -27.5q68 0 130.5 12t111.5 30.5t81 39.5t38 37v718q0 16 -36 34t-89 31t-116.5 22.5t-119.5 9.5q-59 0 -92 -27t-49 -70t-19.5 -97t-3.5 -109v-328z" />
<glyph unicode="r" horiz-adv-x="735" d="M135 0v979q0 18 25.5 40.5t74 42t118 33t155.5 13.5q29 0 72 -4t75 -10q23 -4 32 -10.5t9 -22.5q0 -35 -9 -55.5t-21 -18.5q-41 8 -75 13.5t-79 5.5q-53 0 -101.5 -8.5t-84 -20.5t-56 -24.5t-20.5 -20.5v-912q0 -29 -11.5 -37t-27.5 -8q-23 0 -49.5 7.5t-26.5 17.5z" />
<glyph unicode="s" horiz-adv-x="860" d="M80 31q4 45 13.5 55t25.5 8q72 -10 138.5 -14t141.5 -4q129 0 199 38t70 134q0 74 -41 122t-102.5 86t-133.5 72.5t-133 77.5t-102 102.5t-41 149.5q0 76 28.5 125t76.5 76.5t110.5 38t132.5 10.5q90 0 155.5 -4t114.5 -14q20 -4 25.5 -11.5t5.5 -17.5q0 -72 -30 -72h-3 q-53 6 -115.5 12.5t-130.5 6.5q-117 0 -187.5 -33t-70.5 -119q0 -63 41 -106t102.5 -79t133 -70t133 -80t102.5 -110.5t41 -158.5q0 -80 -26.5 -132t-74.5 -85t-116.5 -46.5t-152.5 -13.5q-66 0 -146 5.5t-162 17.5q-16 4 -20 10q-3 4 -3 13q0 4 1 10z" />
<glyph unicode="t" horiz-adv-x="643" d="M31 1001q0 27 8 53.5t31 26.5h139v305q0 10 26.5 17.5t55.5 7.5q16 0 24.5 -13.5t8.5 -31.5v-285h235q31 0 31 -26q0 -25 -7 -52.5t-32 -27.5h-227v-729q0 -72 33.5 -120t113.5 -48q27 0 48.5 5t53.5 13q16 2 23.5 -22.5t7.5 -50.5q0 -20 -39 -31q-37 -10 -67.5 -13.5 t-61.5 -3.5q-47 0 -88 13.5t-71.5 43t-49 79t-18.5 122.5v742h-148q-31 0 -30 26z" />
<glyph unicode="u" horiz-adv-x="1046" d="M135 326v757q0 10 25.5 17.5t50.5 7.5q16 0 27.5 -8t11.5 -37v-731q0 -63 10 -111.5t36 -81.5t73 -49t120 -16q49 0 103.5 6t99.5 14t74 17.5t29 13.5v958q0 10 25.5 17.5t49.5 7.5q16 0 26.5 -8t10.5 -37v-973q0 -27 -10 -35t-29 -16q-53 -20 -157.5 -42t-221.5 -22 q-109 0 -177 22.5t-108 68t-54.5 111t-14.5 149.5z" />
<glyph unicode="v" horiz-adv-x="882" d="M39 1081q0 27 37 27q43 0 61.5 -9t28.5 -46l248 -813q10 -35 15 -59.5t11 -61.5q6 41 12.5 68.5t14.5 52.5l248 813q10 37 28.5 46t63.5 9q35 0 35 -27q0 -6 -2 -14t-6 -18l-334 -1026q-10 -29 -18.5 -38.5t-22.5 -9.5q-20 0 -45 10.5t-33 34.5l-334 1029q-4 10 -6 18 t-2 14z" />
<glyph unicode="w" horiz-adv-x="1538" d="M43 1063v14q0 31 33 31q23 0 50.5 -5t31.5 -22l262 -858q10 -35 15 -64.5t9 -58.5q4 31 8.5 62t14.5 61l248 860q4 14 23.5 19.5t43.5 5.5q31 0 37 -21l250 -862q6 -23 13.5 -55.5t11.5 -67.5q4 33 9 61.5t15 59.5l262 858q4 16 31 21.5t51 5.5q14 0 24.5 -6t10.5 -23 q0 -6 -2 -13t-6 -17l-340 -1041q-10 -33 -37 -33q-20 0 -45 5.5t-29 19.5l-256 850q-4 10 -8 29.5t-6 35.5q-2 -16 -6 -35.5t-8 -29.5l-254 -842q-10 -33 -37 -33q-23 0 -45.5 4.5t-26.5 20.5l-344 1047q-4 8 -4 16z" />
<glyph unicode="x" horiz-adv-x="874" d="M43 -2q0 12 10 29l312 518l-308 512q-6 10 -7 18t-1 12q0 14 11.5 17.5t21.5 3.5q29 0 53.5 -5t34.5 -22l266 -460l271 460q8 16 33.5 21.5t54.5 5.5q10 0 21 -3t11 -18q0 -16 -10 -30l-307 -512l313 -518q10 -16 11 -31q0 -12 -11.5 -16.5t-19.5 -4.5q-27 0 -55.5 5.5 t-36.5 19.5l-275 469l-272 -469q-10 -16 -38 -20.5t-52 -4.5q-8 0 -19.5 4.5t-11.5 18.5z" />
<glyph unicode="y" horiz-adv-x="1048" d="M137 -418q0 68 27 68q6 0 32.5 -4t68.5 -10.5t93.5 -10.5t106.5 -4q61 0 120.5 11.5t107.5 46t77 99t29 173.5v131q-31 -18 -74 -37.5t-95 -35t-109.5 -25t-112.5 -9.5q-135 0 -190.5 70t-55.5 229v809q0 10 25.5 17.5t50.5 7.5q16 0 27 -8t11 -37v-776q0 -123 38 -165 t126 -42q59 0 123 13t115 32.5t85 40t36 35.5v882q0 10 26.5 17.5t48.5 7.5q27 0 33 -19.5t6 -48.5v-1089q0 -227 -102 -329.5t-334 -102.5q-127 0 -207 13t-96 17q-23 6 -30 11.5t-7 21.5z" />
<glyph unicode="z" horiz-adv-x="851" d="M51 39q0 35 21 61l559 883h-488q-29 0 -36 17.5t-7 50.5q0 23 20.5 26.5t41.5 3.5h575q16 0 29.5 -5t13.5 -19q0 -16 -3 -38t-13 -36l-563 -887h573q14 0 25.5 -6t11.5 -22q0 -25 -6.5 -46.5t-16.5 -21.5h-702q-20 0 -27.5 8t-7.5 31z" />
<glyph unicode="{" horiz-adv-x="778" d="M143 629q0 18 11.5 24t27.5 6q68 0 113 54.5t45 165.5v432q0 123 64.5 204.5t199.5 81.5q23 0 43.5 -5t20.5 -21q0 -29 -6.5 -52.5t-16.5 -23.5q-80 0 -132 -49t-52 -166v-397q0 -25 -4 -65t-20.5 -81t-49.5 -77.5t-90 -55.5q59 -14 92 -53t49.5 -82t20.5 -81t4 -50v-397 q0 -117 53 -166t133 -49q10 0 16.5 -24t6.5 -52q0 -16 -20.5 -21.5t-43.5 -5.5q-137 0 -201.5 82t-64.5 205v432q0 37 -11.5 75t-33 70.5t-50 53t-63.5 20.5q-27 0 -34 25.5t-7 42.5z" />
<glyph unicode="|" horiz-adv-x="473" d="M184 -301v1804q0 14 23.5 21.5t52.5 7.5q18 0 25.5 -15.5t7.5 -33.5v-1764q0 -18 -7 -33.5t-26 -15.5q-29 0 -52.5 7.5t-23.5 21.5z" />
<glyph unicode="}" horiz-adv-x="774" d="M111 -350q0 29 7 52.5t13 23.5q82 0 134 49t52 166v397q0 12 4.5 50t20.5 81t50 82t93 53q-59 18 -92 55t-49 78t-20.5 81t-4.5 65v397q0 117 -52 166t-132 49q-8 0 -15 23.5t-7 52.5q0 16 20.5 21t42.5 5q135 0 199.5 -81.5t64.5 -204.5v-432q0 -111 45 -165.5 t115 -54.5q14 0 26.5 -6t12.5 -24q0 -16 -7 -42t-36 -26q-35 0 -63.5 -20.5t-49 -53t-33 -70.5t-12.5 -75v-432q0 -123 -64.5 -205t-199.5 -82q-23 0 -43 5t-20 22z" />
<glyph unicode="~" horiz-adv-x="1005" d="M80 436q2 68 26.5 114t62.5 73.5t81 39t82 11.5q49 0 94 -23.5t88 -51.5t85 -51.5t87 -23.5q27 0 52.5 9.5t47 28t35 45t13.5 61.5q0 8 15 14t33.5 5t33 -8t14.5 -22q-2 -72 -27.5 -117.5t-63.5 -73.5t-81 -38t-80 -10q-49 0 -93 23.5t-86 52t-85 52t-88 23.5 q-27 0 -52.5 -9t-47 -27.5t-35 -45t-13.5 -61.5q0 -10 -15.5 -15t-33.5 -5t-33.5 7t-15.5 23z" />
<glyph horiz-adv-x="0" />
<glyph unicode="&#xa1;" horiz-adv-x="395" d="M139 -356v1056q0 10 25.5 19.5t58.5 9.5q16 0 26.5 -15.5t10.5 -37.5v-1008q0 -23 -10 -38t-27 -15q-33 0 -58.5 9.5t-25.5 19.5zM139 930v151q0 10 25.5 18.5t58.5 8.5q18 0 27.5 -15.5t9.5 -37.5v-101q0 -20 -9 -36.5t-28 -16.5q-33 0 -58.5 9.5t-25.5 19.5z" />
<glyph unicode="&#xa2;" horiz-adv-x="864" d="M119 391v301q0 197 75.5 296t251.5 116v207q0 12 24 19t52 7q18 0 25.5 -14t7.5 -33v-182q53 -4 83 -7t47 -5t28.5 -4t29.5 -7q16 -4 29.5 -9t9.5 -27q-4 -37 -11 -51.5t-21 -12.5q-8 0 -32 4t-56.5 9.5t-69.5 8.5t-74 3q-145 0 -216 -73t-71 -245v-299q0 -178 72 -248.5 t223 -70.5q45 0 95.5 6t130.5 18q16 2 20 -13t8 -42q4 -23 -9 -31t-32 -12q-37 -6 -59.5 -10t-40.5 -6t-37.5 -3t-46.5 -4v-159q0 -18 -7 -33.5t-26 -15.5q-29 0 -52.5 7t-23.5 19v182q-176 14 -251.5 112.5t-75.5 301.5z" />
<glyph unicode="&#xa3;" horiz-adv-x="1153" d="M184 33q0 29 9.5 48t17.5 23q262 172 262 426q0 51 -6 101.5t-14 101.5h-189q-31 0 -31 27t6.5 53.5t30.5 26.5h164q-10 53 -16 107t-6 112v45q0 111 29.5 186.5t81.5 121.5t126 66.5t162 20.5q57 0 116.5 -6t119.5 -20q41 -10 38 -35q0 -8 -4 -20.5t-9 -23t-12 -18.5 t-13 -6q-53 10 -101.5 16.5t-109.5 6.5q-59 0 -114.5 -12.5t-97.5 -45t-67 -88t-25 -143.5v-45q0 -57 7.5 -111.5t17.5 -107.5h182q31 0 31 -27q0 -25 -6 -52.5t-31 -27.5h-155q8 -49 14 -100t6 -105q0 -39 -11.5 -94t-38 -113.5t-68.5 -114.5t-105 -97h688q18 0 32.5 -8.5 t14.5 -24.5q0 -29 -9 -52.5t-20 -23.5h-850q-16 0 -31.5 7t-15.5 26z" />
<glyph unicode="&#xa4;" horiz-adv-x="1165" d="M119 154l131 133q-41 51 -64.5 114.5t-23.5 135.5q0 74 24.5 140t71.5 118l-137 143l67 66l140 -140q53 41 116.5 63.5t135.5 22.5t135 -22.5t116 -63.5l144 140l72 -66l-146 -145q43 -53 68.5 -118t25.5 -138q0 -74 -25.5 -137.5t-66.5 -114.5l139 -129l-69 -68 l-137 127q-53 -41 -119 -64.5t-137 -23.5q-76 0 -141.5 23.5t-119.5 66.5l-131 -129zM270 539q0 -63 24.5 -120t65.5 -97.5t97.5 -65.5t122.5 -25q63 0 119.5 25t97.5 65.5t65.5 97t24.5 120.5q0 63 -24.5 119.5t-65.5 97.5t-97.5 65.5t-119.5 24.5q-66 0 -122.5 -24.5 t-97.5 -65.5t-65.5 -97.5t-24.5 -119.5z" />
<glyph unicode="&#xa5;" horiz-adv-x="1132" d="M57.5 1486q5.5 13 32.5 13q31 0 62.5 -10t48.5 -43l364 -727l367 727q16 33 48 43t62 10q27 0 33 -13t-12 -48l-410 -793h314q27 0 26 -22q0 -23 -6 -46.5t-29 -23.5h-331v-191h338q29 0 28 -24q0 -23 -6 -46.5t-29 -23.5h-331v-239q0 -23 -7.5 -38.5t-27.5 -15.5 q-33 0 -59.5 9.5t-26.5 19.5v264h-340q-29 0 -29 23q0 25 6.5 48t28.5 23h334v191h-340q-29 0 -29 22q0 23 6.5 46.5t28.5 23.5h305l-407 793q-18 35 -12.5 48z" />
<glyph unicode="&#xa6;" horiz-adv-x="473" d="M184 -195v736q0 10 23.5 17t52.5 7q18 0 25.5 -13t7.5 -34v-692q0 -18 -7 -31.5t-26 -13.5q-29 0 -52.5 7t-23.5 17zM184 803v735q0 10 23.5 18.5t52.5 8.5q18 0 25.5 -15.5t7.5 -33.5v-693q0 -18 -7 -32.5t-26 -14.5q-29 0 -52.5 8.5t-23.5 18.5z" />
<glyph unicode="&#xa7;" horiz-adv-x="860" d="M80 -104q4 45 13 55t26 8q72 -10 138.5 -14t141.5 -4q129 0 199 37.5t70 134.5q0 47 -18.5 83.5t-49.5 67.5t-72 55.5t-86 47.5h-32q-66 0 -146 5t-162 17q-16 4 -20 10.5t-2 22.5q4 45 13.5 56t25.5 7q6 0 24.5 -3t40 -5t42 -4t30.5 -2q-61 43 -101 102.5t-40 149.5 q0 111 56 164t144 71q-41 25 -76.5 52.5t-63.5 62.5t-44 78t-16 98q0 76 28.5 125t76.5 77t110.5 38t132.5 10q90 0 155.5 -4t114.5 -14q20 -4 25.5 -11.5t5.5 -17.5q0 -76 -33 -72q-53 6 -115.5 12.5t-130.5 6.5q-117 0 -187.5 -33t-70.5 -119q0 -53 28 -91t73 -68.5 t101 -58.5t114 -58q59 -2 105 -6t85 -11q20 -4 25.5 -11t5.5 -17q0 -76 -33 -72q-10 0 -17 1t-18 3q39 -41 61.5 -93t22.5 -122q0 -100 -42 -158.5t-117 -87.5q68 -47 113.5 -112.5t45.5 -167.5q0 -80 -26.5 -132.5t-74.5 -85t-116.5 -46t-152.5 -13.5q-66 0 -146 5t-162 18 q-16 4 -20 10t-2 23zM227 721q0 -47 22.5 -82t59.5 -63.5t85 -53t98 -51.5q86 12 131 51t45 117q0 43 -14.5 77t-40 61.5t-59.5 50t-73 44.5q-115 0 -184.5 -33.5t-69.5 -117.5z" />
<glyph unicode="&#xa8;" horiz-adv-x="462" d="M18 1325v139q0 10 26 18.5t58 8.5q25 0 32 -15.5t7 -37.5v-86q0 -23 -7 -38.5t-32 -15.5q-33 0 -58.5 8.5t-25.5 18.5zM326 1325v139q0 10 25.5 18.5t58.5 8.5q25 0 30.5 -15.5t5.5 -37.5v-86q0 -23 -6 -38.5t-30 -15.5q-33 0 -58.5 8.5t-25.5 18.5z" />
<glyph unicode="&#xa9;" horiz-adv-x="1722" d="M115 725q0 143 48 281.5t141 248t233.5 176t324.5 66.5q186 0 325.5 -64.5t231.5 -169t138.5 -239.5t46.5 -276q0 -145 -47.5 -284.5t-141.5 -248.5t-232.5 -176.5t-322.5 -67.5q-188 0 -328.5 64.5t-232.5 170t-138 242t-46 277.5zM195 727q0 -129 40.5 -251t123.5 -217 t208 -153.5t293 -58.5q166 0 290 60.5t208 159t125 224t41 254.5q0 127 -41 249t-123 217.5t-207 153.5t-291 58t-291 -60t-208.5 -158.5t-125.5 -223.5t-42 -254zM492 590v301q0 215 99 300t302 85h10q31 0 70 -4t72.5 -10.5t57 -16.5t23.5 -22q0 -4 -4 -16.5t-10 -25 t-12 -20.5t-13 -8q-47 12 -89 19.5t-95 7.5h-10q-78 0 -133 -16.5t-90 -52.5t-50.5 -93t-15.5 -141v-275q0 -84 15.5 -141.5t50.5 -93t90 -52t133 -16.5h10q53 0 95 8t89 19q6 0 12.5 -8.5t12.5 -20.5t10 -23.5t4 -15.5q0 -16 -23.5 -24.5t-57 -12.5t-72.5 -7t-70 -9l-10 -2 q-102 0 -177 19.5t-125 64.5t-74.5 119.5t-24.5 183.5z" />
<glyph unicode="&#xaa;" horiz-adv-x="1001" d="M102 913q0 125 58.5 175.5t181.5 50.5q63 0 130 -12.5t103 -24.5v168q0 88 -44 121.5t-160 33.5q-66 0 -112 -6t-87 -14q-12 -2 -16 13.5t-9 31.5q-2 18 11 23q23 6 88 15t147 9q133 0 198.5 -48t65.5 -179v-518q0 -12 -24.5 -25.5t-63.5 -25t-89 -18.5t-101 -7 q-137 0 -207 54t-70 183zM184 909q0 -94 45 -131t148 -37q27 0 60.5 4.5t63 10.5t51 13t23.5 13v248q-2 4 -25.5 12.5t-56 15.5t-70.5 12t-69 5q-86 0 -128 -32.5t-42 -133.5z" />
<glyph unicode="&#xab;" horiz-adv-x="1009" d="M74 592l329 401q12 16 41 23.5t52 1.5q18 -2 13 -22.5t-22.5 -49t-41 -59.5t-42.5 -56l-184 -239l268 -352q49 -63 9 -74q-35 -6 -72 17.5t-59 52.5zM492 592l325 401q12 16 42 23.5t52 1.5q18 -2 13.5 -22.5t-22 -49t-41 -59.5t-42.5 -56l-180 -239l264 -352 q49 -68 8 -74q-35 -8 -72.5 17.5t-58.5 52.5z" />
<glyph unicode="&#xac;" horiz-adv-x="1257" d="M133 702v101h991v-516h-100v415h-891z" />
<glyph unicode="&#xad;" horiz-adv-x="706" d="M106 580q0 25 6.5 52t30.5 27h441q31 0 30 -26q0 -25 -5.5 -52.5t-30.5 -27.5h-441q-31 0 -31 27z" />
<glyph unicode="&#xae;" horiz-adv-x="1722" d="M115 725q0 143 48 281.5t141 248t233.5 176t324.5 66.5q186 0 325.5 -64.5t231.5 -169t138.5 -239.5t46.5 -276q0 -145 -47.5 -284.5t-141.5 -248.5t-232.5 -176.5t-322.5 -67.5q-188 0 -328.5 64.5t-232.5 170t-138 242t-46 277.5zM195 727q0 -129 40.5 -251t123.5 -217 t208 -153.5t293 -58.5q166 0 290 60.5t208 159t125 224t41 254.5q0 127 -41 249t-123 217.5t-207 153.5t-291 58t-291 -60t-208.5 -158.5t-125.5 -223.5t-42 -254zM549 217v989q0 16 8 28.5t25 12.5h303q98 0 163.5 -14t104.5 -49t55.5 -92.5t16.5 -141.5v-18 q0 -135 -45 -201.5t-172 -85.5l221 -397q2 -4 6 -14.5t4 -20.5q0 -12 -13.5 -15t-23.5 -3q-20 0 -49 8t-41 30l-223 404h-232v-406q0 -37 -28 -36q-23 0 -51.5 6t-28.5 16zM657 733h228q70 0 113.5 7.5t69.5 29t35 60t9 102.5v18q0 61 -9 100.5t-35 61t-69.5 28.5t-113.5 7 h-228v-414z" />
<glyph unicode="&#xaf;" horiz-adv-x="499" d="M49 1393q0 16 3 40.5t20 24.5h340q10 0 22 -6t12 -16q0 -16 -5 -41t-19 -25h-338q-12 0 -23.5 6t-11.5 17z" />
<glyph unicode="&#xb0;" horiz-adv-x="847" d="M152 1358q0 49 17 97t52 86t85 61.5t116 23.5q68 0 118 -23.5t84.5 -61.5t52 -87t17.5 -98q0 -51 -17.5 -99.5t-52 -86t-85 -60.5t-117.5 -23q-66 0 -117 24t-85 61.5t-51 86t-17 99.5zM250 1356q0 -33 10 -64.5t31.5 -56.5t53.5 -40t75 -15t76.5 14t55 40t33 57.5 t11.5 66.5q0 33 -11.5 64.5t-33 56t-53 40t-74.5 15.5t-76 -15.5t-54.5 -41t-32.5 -57t-11 -64.5z" />
<glyph unicode="&#xb1;" horiz-adv-x="1282" d="M129 -31q0 27 7 53.5t30 26.5h960q29 0 29 -26q0 -25 -7 -52.5t-30 -27.5h-960q-29 0 -29 26zM156 598q0 25 7 52.5t32 27.5h397v405q0 29 26 29q27 0 53.5 -7t26.5 -30v-397h408q29 0 29 -27t-7.5 -53.5t-29.5 -26.5h-400v-407q0 -31 -26 -31q-25 0 -52.5 7t-27.5 32 v399h-406q-31 0 -30 27z" />
<glyph unicode="&#xb2;" horiz-adv-x="667" d="M53 848q0 16 7.5 44t17.5 42q137 145 219 238.5t127 153.5t59.5 95t14.5 64q0 39 -16.5 64.5t-44 41t-62.5 21.5t-74 6t-77 -5t-70 -9q-10 0 -18.5 24.5t-12.5 40.5t3 21.5t21 9.5q47 10 85 14t75 4q55 0 109.5 -11t97.5 -39t68.5 -73t25.5 -110q0 -35 -15 -77 t-58 -105.5t-122 -155.5t-204 -229h391q29 0 29 -27q0 -18 -4.5 -45t-14.5 -27h-526q-16 0 -23.5 9.5t-7.5 19.5z" />
<glyph unicode="&#xb3;" horiz-adv-x="638" d="M41 848q0 4 2 15t7 23.5t11.5 22t14.5 9.5q31 -8 72.5 -11.5t78.5 -3.5q74 0 118 14.5t68.5 38t34 53t11.5 60.5q0 29 -6.5 57.5t-26.5 51t-60 36t-108 13.5h-37q-10 0 -18 19.5t-8 39.5q0 27 26 27h21q102 0 150 50t48 105q0 29 -7 56.5t-29.5 49t-63.5 35t-111 13.5 q-27 0 -55.5 -3t-79.5 -11q-6 0 -11 7t-9 18.5t-7.5 23.5t-3.5 22q0 12 20.5 19.5t48.5 12.5t54.5 6t38.5 1q156 0 242 -51t86 -192v-15q0 -43 -13.5 -75.5t-34 -54t-45 -35t-46.5 -19.5q27 -6 54.5 -18.5t50 -34t36.5 -56t14 -88.5v-37q0 -68 -29.5 -113.5t-77.5 -73.5 t-108.5 -39t-124.5 -11q-20 0 -52 2t-62.5 6t-52 13.5t-21.5 21.5z" />
<glyph unicode="&#xb4;" horiz-adv-x="430" d="M33 1402q-10 5 0 21l137 209q8 12 35.5 10t44.5 -12q29 -16 35 -29.5t0 -21.5l-162 -168q-18 -16 -29.5 -15t-34.5 1q-16 0 -26 5z" />
<glyph unicode="&#xb5;" horiz-adv-x="1044" d="M135 -457v1540q0 10 25.5 17.5t50.5 7.5q16 0 27.5 -8t11.5 -37v-731q0 -63 10 -111.5t36 -81.5t73 -49t120 -16q49 0 103.5 6t99.5 14t74 17.5t29 13.5v958q0 10 25.5 17.5t49.5 7.5q16 0 26.5 -8t10.5 -37v-973q0 -27 -10 -35t-29 -16q-53 -20 -157.5 -42t-221.5 -22 q-82 0 -140 13.5t-99 38.5v-463q0 -18 -9.5 -33.5t-27.5 -15.5q-27 0 -52.5 7t-25.5 21z" />
<glyph unicode="&#xb6;" horiz-adv-x="1011" d="M92 1085q0 78 26.5 152t80 132t133.5 94t184 36h332q20 0 28.5 -16.5t8.5 -38.5v-1415q0 -23 -8.5 -38.5t-28.5 -15.5q-31 0 -58.5 9.5t-27.5 19.5v1376h-111v-1351q0 -23 -8 -38.5t-29 -15.5q-33 0 -59.5 9.5t-26.5 19.5v678q-111 0 -192.5 35t-136 91t-81 129 t-26.5 148z" />
<glyph unicode="&#xb7;" horiz-adv-x="516" d="M186 489v150q0 10 25 19.5t59 9.5q25 0 31 -15.5t6 -38.5v-100q0 -23 -6 -38t-31 -15q-35 0 -59.5 9t-24.5 19z" />
<glyph unicode="&#xb8;" horiz-adv-x="385" d="M-6 -326q-8 10 1 31t30 16q16 -6 39.5 -13t46.5 -7q39 0 66.5 21.5t27.5 68.5q0 39 -23.5 55.5t-51.5 22.5t-48 9.5t-14 15.5l47 92h61l-35 -66q27 -2 54.5 -10t49 -23.5t35 -40t11.5 -59.5q-2 -43 -18.5 -69.5t-39 -41t-49 -19.5t-47.5 -7q-35 -4 -80 3t-63 21z" />
<glyph unicode="&#xb9;" horiz-adv-x="546" d="M105.5 1530.5q-11.5 13.5 3.5 28.5l143 131q18 16 39.5 20t30.5 4q16 -2 31.5 -8t15.5 -14v-852q0 -14 -7.5 -24.5t-21.5 -10.5q-20 0 -50 6t-30 16v750q-29 -27 -50.5 -40t-35.5 -19.5t-24.5 -6.5t-16.5 2q-16 4 -27.5 17.5z" />
<glyph unicode="&#xba;" horiz-adv-x="745" d="M86 928v323q0 133 68.5 190.5t220.5 57.5h2q154 0 222.5 -57.5t68.5 -190.5v-323q0 -135 -69 -190.5t-222 -55.5h-2q-152 0 -220.5 55.5t-68.5 190.5zM166 928q0 -86 46 -129t163 -43h4q117 0 163 43t46 129v323q0 88 -46 131t-163 43h-4q-117 0 -163 -43t-46 -131v-323z " />
<glyph unicode="&#xbb;" horiz-adv-x="1009" d="M82 984.5q-8 23.5 12 25.5q23 6 51.5 -1.5t40.5 -23.5l326 -401l-287 -357q-23 -27 -59.5 -51t-71.5 -18q-39 7 8 73l265 353l-181 239q-12 14 -34.5 45t-42 62t-27.5 54.5zM497 987.5q-5 20.5 13 22.5q23 6 51.5 -1.5t40.5 -23.5l330 -401l-291 -357q-23 -27 -59.5 -51 t-71.5 -18q-41 10 8 73l268 353l-184 239q-18 25 -42.5 56.5t-41 59.5t-21.5 48.5z" />
<glyph unicode="&#xbc;" horiz-adv-x="1921" d="M126.5 1369q-11.5 13 2.5 28l143 131q18 16 40 20t30 4q16 -2 31.5 -8t15.5 -14v-852q0 -14 -7 -24.5t-22 -10.5q-20 0 -49.5 6t-29.5 17v749q-29 -27 -50.5 -40t-36 -19t-24.5 -6t-16 2q-16 4 -27.5 17zM420 8l844 1538q4 10 27 5t46 -17t17 -37q-4 -12 -12.5 -26.5 t-14.5 -26.5l-823 -1501q-4 -8 -16.5 -10.5t-34.5 8.5q-16 8 -29.5 29.5t-3.5 37.5zM1145 262q0 16 4 36.5t12 31.5l432 581q10 12 31 16.5t35 4.5q25 0 24 -29v-571h91q29 0 28 -27q0 -23 -4 -47.5t-14 -24.5h-101v-182q0 -33 -30 -33q-20 0 -49 5.5t-29 15.5v194h-399 q-12 0 -21.5 7.5t-9.5 21.5zM1253 322h326v450z" />
<glyph unicode="&#xbd;" horiz-adv-x="1865" d="M126.5 1324q-11.5 13 2.5 28l143 131q18 16 40 20t30 4q16 -2 31.5 -8t15.5 -14v-852q0 -14 -7 -24.5t-22 -10.5q-20 0 -49.5 6t-29.5 17v749q-29 -27 -50.5 -40t-36 -19t-24.5 -6t-16 2q-16 4 -27.5 17zM377 -29l862 1575q6 8 29.5 5t50.5 -17q23 -16 20 -35 q-6 -12 -14 -25.5t-16 -27.5l-826 -1499q-10 -16 -21 -26.5t-30 -0.5q-27 16 -43 30.5t-12 20.5zM1171 61q0 16 7.5 44t17.5 42q137 145 219 238.5t127 154t59.5 95.5t14.5 63q0 39 -16.5 64.5t-44 41t-62.5 21.5t-74 6t-76.5 -5t-70.5 -9q-10 0 -18.5 24.5t-12.5 41.5 q-4 16 3 21t22 9q47 10 85 14.5t74 4.5q55 0 109.5 -11.5t97.5 -39t68.5 -72.5t25.5 -111q0 -35 -15 -76.5t-58 -105t-122 -156t-204 -229.5h391q29 0 29 -27q0 -18 -4 -44.5t-14 -26.5h-527q-16 0 -23.5 9t-7.5 19z" />
<glyph unicode="&#xbe;" horiz-adv-x="2011" d="M119 686q0 4 2 15.5t7 23.5t11.5 21.5t14.5 9.5q31 -8 72.5 -11.5t78.5 -3.5q74 0 118 14.5t68.5 38t34 53.5t11.5 60q0 29 -6.5 57.5t-27 51t-60.5 36t-107 13.5h-37q-10 0 -18.5 19.5t-8.5 39.5q0 27 27 27h20q102 0 150.5 50t48.5 106q0 29 -7 56.5t-29.5 49 t-63.5 34.5t-111 13q-27 0 -55.5 -3t-79.5 -11q-6 0 -11 7t-9.5 18.5t-7.5 23.5t-3 23q0 12 20.5 19t48.5 12t54.5 6t38.5 1q156 0 242 -51t86 -192v-15q0 -43 -13.5 -75.5t-34 -54t-45 -35t-46.5 -19.5q27 -6 54 -18.5t49.5 -34t37 -56t14.5 -87.5v-37q0 -68 -29.5 -114 t-77.5 -73.5t-108.5 -39t-124.5 -11.5q-20 0 -52 2t-62.5 6t-52 13.5t-21.5 21.5zM532 8l844 1538q4 10 27.5 5t46.5 -17t16 -37q-4 -12 -12 -26.5t-14 -26.5l-824 -1501q-4 -8 -16 -10.5t-35 8.5q-16 8 -29.5 29.5t-3.5 37.5zM1235 262q0 16 4 36.5t12 31.5l432 581 q10 12 31 16.5t35 4.5q25 0 25 -29v-571h90q29 0 28 -27q0 -23 -4 -47.5t-14 -24.5h-100v-182q0 -33 -31 -33q-20 0 -49 5.5t-29 15.5v194h-399q-12 0 -21.5 7.5t-9.5 21.5zM1343 322h326v450z" />
<glyph unicode="&#xbf;" horiz-adv-x="1015" d="M164 -78q0 66 26.5 126.5t67.5 117.5t88 113.5t88 114t67.5 116.5t26.5 121v100q0 18 4.5 33.5t26.5 15.5q33 2 59.5 -8t26.5 -20v-121q0 -68 -26.5 -131.5t-66.5 -124t-86 -118.5t-86 -113.5t-66.5 -108.5t-26.5 -107q0 -76 22.5 -124t63.5 -74.5t99 -36.5t132 -10 q37 0 67.5 2t58.5 5t56.5 8t63.5 11q12 0 22.5 -21.5t16.5 -47.5q6 -31 -45 -39q-47 -10 -105.5 -17.5t-134.5 -7.5q-94 0 -175 14.5t-139.5 53.5t-92 106.5t-33.5 171.5zM524 965v84q0 23 4 40t33 17q33 0 58.5 -9.5t25.5 -19.5v-139q0 -10 -25.5 -19.5t-58.5 -9.5 q-29 0 -33 16.5t-4 39.5z" />
<glyph unicode="&#xc0;" horiz-adv-x="1140" d="M43 -2q0 4 1 8t3 10l488 1452q4 16 30.5 23.5t61.5 7.5q27 0 39 -35l483 -1448q2 -6 3 -10t1 -8q0 -14 -11.5 -18.5t-21.5 -4.5q-43 0 -65.5 6t-30.5 29l-158 484h-534l-168 -494q-6 -18 -32 -21.5t-54 -3.5q-14 0 -24.5 4.5t-10.5 18.5zM334 1775.5q0 12.5 11 19.5 t30.5 11t40.5 4q10 0 21.5 -3t17.5 -13l141 -174q25 -31 23.5 -42t-15.5 -11q-23 0 -38 7t-34 23l-178 150q-20 16 -20 28.5zM362 600h472l-220 666q-6 18 -9 38.5t-7 36.5q-4 -16 -7 -36.5t-9 -38.5z" />
<glyph unicode="&#xc1;" horiz-adv-x="1140" d="M43 -2q0 4 1 8t3 10l488 1452q4 16 30.5 23.5t61.5 7.5q27 0 39 -35l483 -1448q2 -6 3 -10t1 -8q0 -14 -11.5 -18.5t-21.5 -4.5q-43 0 -65.5 6t-30.5 29l-158 484h-534l-168 -494q-6 -18 -32 -21.5t-54 -3.5q-14 0 -24.5 4.5t-10.5 18.5zM362 600h472l-220 666 q-6 18 -9 38.5t-7 36.5q-4 -16 -7 -36.5t-9 -38.5zM483 1579l138 209q8 12 35.5 10t43.5 -12q29 -16 35 -29.5t0 -21.5l-162 -168q-18 -16 -29.5 -15.5t-33.5 0.5q-16 0 -26.5 5.5t-0.5 21.5z" />
<glyph unicode="&#xc2;" horiz-adv-x="1140" d="M43 -2q0 4 1 8t3 10l488 1452q4 16 30.5 23.5t61.5 7.5q27 0 39 -35l483 -1448q2 -6 3 -10t1 -8q0 -14 -11.5 -18.5t-21.5 -4.5q-43 0 -65.5 6t-30.5 29l-158 484h-534l-168 -494q-6 -18 -32 -21.5t-54 -3.5q-14 0 -24.5 4.5t-10.5 18.5zM332 1603.5q2 10.5 22 24.5 l195 141q6 6 10 7.5t8 1.5t8.5 -1t10.5 -8l200 -141q20 -14 22.5 -24.5t-5.5 -20.5q-12 -12 -29.5 -19.5t-21.5 -2.5l-185 114l-178 -114q-4 -4 -21.5 3t-27.5 19q-10 10 -8 20.5zM362 600h472l-220 666q-6 18 -9 38.5t-7 36.5q-4 -16 -7 -36.5t-9 -38.5z" />
<glyph unicode="&#xc3;" horiz-adv-x="1153" d="M51 -2q0 4 1 8t3 10l488 1452q4 16 30.5 23.5t61.5 7.5q27 0 39 -35l483 -1448q2 -6 3 -10t1 -8q0 -14 -11 -18.5t-22 -4.5q-43 0 -65.5 6t-30.5 29l-158 484h-534l-168 -494q-6 -18 -31.5 -21.5t-54.5 -3.5q-14 0 -24.5 4.5t-10.5 18.5zM365 1577q2 41 16 68.5t35.5 43 t44.5 20.5t41 5q25 0 44 -10t38.5 -20.5t38 -19.5t41.5 -9q12 -2 25 2t25.5 11t20.5 18.5t8 23.5q0 6 9.5 8t20.5 2t20.5 -5t9.5 -13q-2 -41 -16.5 -68.5t-35 -43t-43 -20.5t-40.5 -5q-25 0 -45.5 9t-40 20.5t-39 20.5t-39.5 9q-23 0 -50.5 -13.5t-27.5 -41.5q0 -6 -9 -9.5 t-21.5 -2t-21.5 5.5t-9 14zM371 600h471l-219 666q-6 18 -9.5 38.5t-7.5 36.5q-4 -16 -7 -36.5t-9 -38.5z" />
<glyph unicode="&#xc4;" horiz-adv-x="1140" d="M43 -2q0 4 1 8t3 10l488 1452q4 16 30.5 23.5t61.5 7.5q27 0 39 -35l483 -1448q2 -6 3 -10t1 -8q0 -14 -11.5 -18.5t-21.5 -4.5q-43 0 -65.5 6t-30.5 29l-158 484h-534l-168 -494q-6 -18 -32 -21.5t-54 -3.5q-14 0 -24.5 4.5t-10.5 18.5zM346 1595v140q0 10 25.5 18 t58.5 8q25 0 32 -15t7 -38v-86q0 -23 -7 -38t-32 -15q-33 0 -58.5 8t-25.5 18zM362 600h472l-220 666q-6 18 -9 38.5t-7 36.5q-4 -16 -7 -36.5t-9 -38.5zM653 1595v140q0 10 26 18t58 8q25 0 31 -15t6 -38v-86q0 -23 -6 -38t-31 -15q-33 0 -58.5 8t-25.5 18z" />
<glyph unicode="&#xc5;" horiz-adv-x="1153" d="M51 -2q0 4 1 8t3 10l480 1430q-66 12 -106 58t-40 116q0 82 55.5 131t133.5 49q80 0 136 -49t56 -133q0 -53 -26.5 -93t-69.5 -63l483 -1446q2 -6 3 -10t1 -8q0 -14 -11 -18.5t-22 -4.5q-43 0 -65.5 6t-30.5 29l-158 484h-534l-168 -494q-6 -18 -31.5 -21.5t-54.5 -3.5 q-14 0 -24.5 4.5t-10.5 18.5zM371 600h471l-219 666q-6 18 -9.5 38.5t-7.5 36.5q-4 -16 -7 -36.5t-9 -38.5zM469 1620q0 -45 31 -74.5t80 -29.5q47 0 78.5 29.5t31.5 74.5q0 43 -31.5 76t-80.5 33q-47 0 -78 -32t-31 -77z" />
<glyph unicode="&#xc6;" horiz-adv-x="1900" d="M68 35q4 8 8 17t8 20l805 1337q29 45 47 54.5t51 9.5h768q16 0 30.5 -5.5t14.5 -27.5q0 -31 -8 -53.5t-18 -22.5h-695v-561h631q18 0 31.5 -5t13.5 -28q0 -29 -8 -52.5t-18 -23.5h-650v-585h676q16 0 30.5 -5.5t14.5 -27.5q0 -29 -8 -52.5t-18 -23.5h-742 q-23 0 -52.5 8.5t-29.5 22.5v461h-481l-246 -426q-23 -41 -51.5 -54.5t-52.5 -13.5q-63 0 -51 37zM532 600h418v729z" />
<glyph unicode="&#xc7;" horiz-adv-x="1067" d="M119 518v438q0 154 31.5 257.5t97 167t164 91t231.5 27.5h16q49 0 105.5 -4t103.5 -11t79 -16.5t32 -21.5q0 -29 -5 -56.5t-20 -25.5q-12 2 -38.5 7t-65.5 10t-85 9.5t-97 4.5h-17q-113 0 -190.5 -23.5t-125.5 -76t-69.5 -139.5t-21.5 -212v-414q0 -127 21.5 -213 t69.5 -139t125 -76.5t187 -23.5h17q109 0 183.5 14t100.5 19q16 2 22.5 -29t6.5 -53q0 -10 -28.5 -20.5t-75 -17.5t-103.5 -11.5t-115 -4.5h-14l-18 -34q27 -2 54.5 -10.5t49 -24t34.5 -40t11 -59.5q-2 -43 -18.5 -69.5t-39 -40.5t-49 -19.5t-47.5 -7.5q-35 -4 -79.5 3.5 t-63.5 21.5q-8 10 1 30.5t30 16.5q16 -6 39.5 -13.5t46.5 -7.5q39 0 66.5 21.5t27.5 69.5q0 39 -23.5 54t-51 21.5t-48 10.5t-14.5 16l31 63q-117 6 -204 37t-143.5 94.5t-85 164t-28.5 245.5z" />
<glyph unicode="&#xc8;" horiz-adv-x="1085" d="M147 31v1388q0 53 37 54h760q16 0 30.5 -7.5t14.5 -25.5q0 -27 -7 -51.5t-17 -24.5h-695v-561h629q16 0 31.5 -7.5t15.5 -25.5q0 -25 -9 -50.5t-19 -25.5h-648v-585h674q16 0 30.5 -7.5t14.5 -25.5q0 -27 -7 -51.5t-17 -24.5h-744q-23 0 -48.5 8.5t-25.5 22.5z M336 1777.5q0 12.5 11 19.5t30.5 11t40.5 4q10 0 21.5 -3t17.5 -13l141 -174q25 -31 24 -42t-16 -11q-23 0 -38 7t-33 23l-179 150q-20 16 -20 28.5z" />
<glyph unicode="&#xc9;" horiz-adv-x="1085" d="M147 31v1388q0 53 37 54h760q16 0 30.5 -7.5t14.5 -25.5q0 -27 -7 -51.5t-17 -24.5h-695v-561h629q16 0 31.5 -7.5t15.5 -25.5q0 -25 -9 -50.5t-19 -25.5h-648v-585h674q16 0 30.5 -7.5t14.5 -25.5q0 -27 -7 -51.5t-17 -24.5h-744q-23 0 -48.5 8.5t-25.5 22.5zM485 1581 l138 209q8 12 35.5 10t43.5 -12q29 -16 35 -29.5t0 -21.5l-162 -168q-18 -16 -29 -15.5t-34 0.5q-16 0 -26.5 5.5t-0.5 21.5z" />
<glyph unicode="&#xca;" horiz-adv-x="1085" d="M147 31v1388q0 53 37 54h760q16 0 30.5 -7.5t14.5 -25.5q0 -27 -7 -51.5t-17 -24.5h-695v-561h629q16 0 31.5 -7.5t15.5 -25.5q0 -25 -9 -50.5t-19 -25.5h-648v-585h674q16 0 30.5 -7.5t14.5 -25.5q0 -27 -7 -51.5t-17 -24.5h-744q-23 0 -48.5 8.5t-25.5 22.5z M332 1603.5q2 10.5 22 24.5l195 141q6 6 10 7.5t8 1.5t8.5 -1t10.5 -8l200 -141q20 -14 22.5 -24.5t-5.5 -20.5q-12 -12 -29.5 -19.5t-21.5 -2.5l-185 114l-178 -114q-4 -4 -21.5 3t-27.5 19q-10 10 -8 20.5z" />
<glyph unicode="&#xcb;" horiz-adv-x="1085" d="M147 31v1388q0 53 37 54h760q16 0 30.5 -7.5t14.5 -25.5q0 -27 -7 -51.5t-17 -24.5h-695v-561h629q16 0 31.5 -7.5t15.5 -25.5q0 -25 -9 -50.5t-19 -25.5h-648v-585h674q16 0 30.5 -7.5t14.5 -25.5q0 -27 -7 -51.5t-17 -24.5h-744q-23 0 -48.5 8.5t-25.5 22.5zM348 1595 v140q0 10 25.5 18t58.5 8q25 0 32 -15t7 -38v-86q0 -23 -7 -38t-32 -15q-33 0 -58.5 8t-25.5 18zM655 1595v140q0 10 26 18t58 8q25 0 31 -15t6 -38v-86q0 -23 -6 -38t-31 -15q-33 0 -58.5 8t-25.5 18z" />
<glyph unicode="&#xcc;" horiz-adv-x="415" d="M-20 1777.5q0 12.5 11 19.5t30.5 11t39.5 4q10 0 21.5 -3t17.5 -13l142 -174q25 -31 23.5 -42t-15.5 -11q-23 0 -38 7t-34 23l-178 150q-20 16 -20 28.5zM147 4v1464q0 10 28 20.5t58 10.5q20 0 28.5 -16.5t8.5 -38.5v-1415q0 -23 -8 -38.5t-29 -15.5q-31 0 -58.5 9.5 t-27.5 19.5z" />
<glyph unicode="&#xcd;" horiz-adv-x="415" d="M129 1581l137 209q8 12 36 10t44 -12q29 -16 35 -29.5t0 -21.5l-162 -168q-18 -16 -29.5 -15.5t-33.5 0.5q-16 0 -26.5 5.5t-0.5 21.5zM147 4v1464q0 10 28 20.5t58 10.5q20 0 28.5 -16.5t8.5 -38.5v-1415q0 -23 -8 -38.5t-29 -15.5q-31 0 -58.5 9.5t-27.5 19.5z" />
<glyph unicode="&#xce;" horiz-adv-x="415" d="M-22 1603.5q2 10.5 22 24.5l195 141q6 6 10 7.5t8 1.5t8 -1t10 -8l201 -141q20 -14 22.5 -24.5t-5.5 -20.5q-12 -12 -30 -19.5t-22 -2.5l-184 114l-178 -114q-4 -4 -21.5 3t-27.5 19q-10 10 -8 20.5zM147 4v1464q0 10 28 20.5t58 10.5q20 0 28.5 -16.5t8.5 -38.5v-1415 q0 -23 -8 -38.5t-29 -15.5q-31 0 -58.5 9.5t-27.5 19.5z" />
<glyph unicode="&#xcf;" horiz-adv-x="415" d="M-8 1595v140q0 10 25.5 18t58.5 8q25 0 32 -15t7 -38v-86q0 -23 -7.5 -38t-31.5 -15q-33 0 -58.5 8t-25.5 18zM147 4v1464q0 10 28 20.5t58 10.5q20 0 28.5 -16.5t8.5 -38.5v-1415q0 -23 -8 -38.5t-29 -15.5q-31 0 -58.5 9.5t-27.5 19.5zM299 1595v140q0 10 25.5 18 t58.5 8q25 0 31 -15t6 -38v-86q0 -23 -6 -38t-31 -15q-33 0 -58.5 8t-25.5 18z" />
<glyph unicode="&#xd0;" horiz-adv-x="1286" d="M-29 766q0 35 8.5 59.5t20.5 24.5h154v569q0 23 5.5 38.5t30.5 15.5h422q141 0 245 -28t173.5 -91.5t103 -168t33.5 -257.5v-383q0 -154 -33.5 -258.5t-103 -168t-173 -91t-245.5 -27.5h-374q-25 0 -54.5 8t-29.5 23v696h-131q-23 0 -37.5 6t-14.5 33zM285 109h327 q143 0 226.5 30.5t124.5 93t52 157.5t11 224v244q0 129 -11 223.5t-52 158t-124 94t-227 30.5h-327v-514h135q23 0 38 -6t15 -31q0 -33 -9.5 -59.5t-19.5 -26.5h-159v-618z" />
<glyph unicode="&#xd1;" horiz-adv-x="1425" d="M152 4v1464q0 10 23.5 20.5t55.5 10.5q12 0 22.5 -9t14.5 -20l809 -1263v1263q0 10 25.5 19.5t60.5 9.5q18 0 24.5 -17.5t6.5 -39.5v-1413q0 -23 -9 -38.5t-26 -15.5q-23 0 -50.5 7.5t-31.5 17.5l-809 1266v-1237q0 -23 -7 -38.5t-25 -15.5q-33 0 -58.5 9.5t-25.5 19.5z M510 1577q2 41 16.5 68.5t36 43t44 20.5t40.5 5q25 0 44.5 -10t39 -20.5t37.5 -19.5t41 -9q12 -2 25.5 2t25.5 11t20.5 18.5t8.5 23.5q0 6 9 8t20.5 2t20.5 -5t9 -13q-2 -41 -16 -68.5t-34.5 -43t-43.5 -20.5t-41 -5q-25 0 -45 9t-39.5 20.5t-39 20.5t-40.5 9 q-23 0 -50.5 -13.5t-27.5 -41.5q0 -6 -9 -9.5t-21.5 -2t-21.5 5.5t-9 14z" />
<glyph unicode="&#xd2;" horiz-adv-x="1363" d="M119 518v438q0 154 33.5 257.5t102.5 167t173 91t246 27.5h16q141 0 244.5 -27.5t173.5 -91t103.5 -167t33.5 -257.5v-438q0 -154 -33.5 -257t-103.5 -166.5t-173.5 -91.5t-244.5 -28h-16q-141 0 -245.5 28t-173.5 91.5t-102.5 167t-33.5 256.5zM244 522 q0 -125 23.5 -209t75.5 -135t133 -73.5t198 -22.5h16q117 0 198 22.5t133 73.5t75.5 135t23.5 209v430q0 125 -23.5 209t-75.5 135.5t-133 73t-198 21.5h-16q-117 0 -198 -21.5t-133 -73t-75.5 -135.5t-23.5 -209v-430zM446.5 1775.5q-0.5 12.5 11 19.5t31 11t39.5 4 q10 0 21.5 -3t17.5 -13l142 -174q25 -31 23.5 -42t-15.5 -11q-23 0 -38 7t-34 23l-178 150q-20 16 -20.5 28.5z" />
<glyph unicode="&#xd3;" horiz-adv-x="1363" d="M119 518v438q0 154 33.5 257.5t102.5 167t173 91t246 27.5h16q141 0 244.5 -27.5t173.5 -91t103.5 -167t33.5 -257.5v-438q0 -154 -33.5 -257t-103.5 -166.5t-173.5 -91.5t-244.5 -28h-16q-141 0 -245.5 28t-173.5 91.5t-102.5 167t-33.5 256.5zM244 522 q0 -125 23.5 -209t75.5 -135t133 -73.5t198 -22.5h16q117 0 198 22.5t133 73.5t75.5 135t23.5 209v430q0 125 -23.5 209t-75.5 135.5t-133 73t-198 21.5h-16q-117 0 -198 -21.5t-133 -73t-75.5 -135.5t-23.5 -209v-430zM596 1579l137 209q8 12 36 10t44 -12q29 -16 35 -29.5 t0 -21.5l-162 -168q-18 -16 -29.5 -15.5t-33.5 0.5q-16 0 -26.5 5.5t-0.5 21.5z" />
<glyph unicode="&#xd4;" horiz-adv-x="1363" d="M119 518v438q0 154 33.5 257.5t102.5 167t173 91t246 27.5h16q141 0 244.5 -27.5t173.5 -91t103.5 -167t33.5 -257.5v-438q0 -154 -33.5 -257t-103.5 -166.5t-173.5 -91.5t-244.5 -28h-16q-141 0 -245.5 28t-173.5 91.5t-102.5 167t-33.5 256.5zM244 522 q0 -125 23.5 -209t75.5 -135t133 -73.5t198 -22.5h16q117 0 198 22.5t133 73.5t75.5 135t23.5 209v430q0 125 -23.5 209t-75.5 135.5t-133 73t-198 21.5h-16q-117 0 -198 -21.5t-133 -73t-75.5 -135.5t-23.5 -209v-430zM444.5 1603.5q1.5 10.5 22.5 24.5l195 141q6 6 10 7.5 t8 1.5t8 -1t10 -8l201 -141q20 -14 22.5 -24.5t-6.5 -20.5q-12 -12 -29.5 -19.5t-21.5 -2.5l-184 114l-178 -114q-4 -4 -21.5 3t-27.5 19q-10 10 -8.5 20.5z" />
<glyph unicode="&#xd5;" horiz-adv-x="1363" d="M119 518v438q0 154 33.5 257.5t102.5 167t173 91t246 27.5h16q141 0 244.5 -27.5t173.5 -91t103.5 -167t33.5 -257.5v-438q0 -154 -33.5 -257t-103.5 -166.5t-173.5 -91.5t-244.5 -28h-16q-141 0 -245.5 28t-173.5 91.5t-102.5 167t-33.5 256.5zM244 522 q0 -125 23.5 -209t75.5 -135t133 -73.5t198 -22.5h16q117 0 198 22.5t133 73.5t75.5 135t23.5 209v430q0 125 -23.5 209t-75.5 135.5t-133 73t-198 21.5h-16q-117 0 -198 -21.5t-133 -73t-75.5 -135.5t-23.5 -209v-430zM461 1577q2 41 16.5 68.5t36 43t44 20.5t40.5 5 q25 0 44.5 -10t38.5 -20.5t37.5 -19.5t41.5 -9q12 -2 25.5 2t25.5 11t20.5 18.5t8.5 23.5q0 6 9 8t20.5 2t20.5 -5t9 -13q-2 -41 -16.5 -68.5t-35 -43t-43 -20.5t-40.5 -5q-25 0 -45.5 9t-40 20.5t-38.5 20.5t-40 9q-23 0 -50.5 -13.5t-27.5 -41.5q0 -6 -9 -9.5t-21.5 -2 t-21.5 5.5t-9 14z" />
<glyph unicode="&#xd6;" horiz-adv-x="1363" d="M119 518v438q0 154 33.5 257.5t102.5 167t173 91t246 27.5h16q141 0 244.5 -27.5t173.5 -91t103.5 -167t33.5 -257.5v-438q0 -154 -33.5 -257t-103.5 -166.5t-173.5 -91.5t-244.5 -28h-16q-141 0 -245.5 28t-173.5 91.5t-102.5 167t-33.5 256.5zM244 522 q0 -125 23.5 -209t75.5 -135t133 -73.5t198 -22.5h16q117 0 198 22.5t133 73.5t75.5 135t23.5 209v430q0 125 -23.5 209t-75.5 135.5t-133 73t-198 21.5h-16q-117 0 -198 -21.5t-133 -73t-75.5 -135.5t-23.5 -209v-430zM459 1595v140q0 10 25.5 18t58.5 8q25 0 32 -15t7 -38 v-86q0 -23 -7.5 -38t-31.5 -15q-33 0 -58.5 8t-25.5 18zM766 1595v140q0 10 25.5 18t58.5 8q25 0 31 -15t6 -38v-86q0 -23 -6.5 -38t-30.5 -15q-33 0 -58.5 8t-25.5 18z" />
<glyph unicode="&#xd7;" horiz-adv-x="1292" d="M180 154l393 391l-389 393l68 66l393 -392l393 392l72 -66l-393 -393l389 -389l-70 -68l-391 389l-393 -389z" />
<glyph unicode="&#xd8;" horiz-adv-x="1372" d="M123 518v438q0 154 33.5 257.5t102.5 167t173.5 91t245.5 27.5h16q113 0 205 -18l37 98q14 37 53 23q23 -8 42.5 -19.5t15.5 -23.5l-43 -111q125 -53 185 -170t60 -322v-438q0 -154 -33.5 -257t-103.5 -166.5t-173 -91.5t-245 -28h-16q-123 0 -223 23l-33 -88 q-6 -18 -18.5 -28.5t-32.5 -2.5q-23 6 -43.5 17.5t-14.5 27.5l39 107q-117 53 -173 170.5t-56 316.5zM248 522q0 -152 33.5 -244t111.5 -139l467 1237q-70 14 -166 15h-16q-117 0 -198 -21.5t-133 -73t-75.5 -135.5t-23.5 -209v-430zM494 100q39 -10 85 -14t99 -4h16 q117 0 198 22.5t133 73.5t75.5 135t23.5 209v430q0 158 -37.5 250t-123.5 137z" />
<glyph unicode="&#xd9;" horiz-adv-x="1316" d="M147 510v956q0 10 28 21.5t61 11.5q18 0 26 -17.5t8 -39.5v-928q0 -121 21.5 -204t65.5 -133t115 -72.5t169 -22.5h16q104 0 178 22.5t121.5 72.5t69 133t21.5 204v952q0 10 27.5 21.5t58.5 11.5q20 0 28 -17.5t8 -39.5v-932q0 -152 -31.5 -253t-95 -164.5t-160 -90.5 t-225.5 -27h-16q-125 0 -217 27t-153.5 90.5t-92.5 164.5t-31 253zM418 1775.5q0 12.5 11 19.5t30.5 11t40.5 4q10 0 21.5 -3t17.5 -13l141 -174q25 -31 23.5 -42t-15.5 -11q-23 0 -38 7t-34 23l-178 150q-20 16 -20 28.5z" />
<glyph unicode="&#xda;" horiz-adv-x="1316" d="M147 510v956q0 10 28 21.5t61 11.5q18 0 26 -17.5t8 -39.5v-928q0 -121 21.5 -204t65.5 -133t115 -72.5t169 -22.5h16q104 0 178 22.5t121.5 72.5t69 133t21.5 204v952q0 10 27.5 21.5t58.5 11.5q20 0 28 -17.5t8 -39.5v-932q0 -152 -31.5 -253t-95 -164.5t-160 -90.5 t-225.5 -27h-16q-125 0 -217 27t-153.5 90.5t-92.5 164.5t-31 253zM567 1579l138 209q8 12 35.5 10t43.5 -12q29 -16 35 -29.5t0 -21.5l-162 -168q-18 -16 -29.5 -15.5t-33.5 0.5q-16 0 -26.5 5.5t-0.5 21.5z" />
<glyph unicode="&#xdb;" horiz-adv-x="1316" d="M147 510v956q0 10 28 21.5t61 11.5q18 0 26 -17.5t8 -39.5v-928q0 -121 21.5 -204t65.5 -133t115 -72.5t169 -22.5h16q104 0 178 22.5t121.5 72.5t69 133t21.5 204v952q0 10 27.5 21.5t58.5 11.5q20 0 28 -17.5t8 -39.5v-932q0 -152 -31.5 -253t-95 -164.5t-160 -90.5 t-225.5 -27h-16q-125 0 -217 27t-153.5 90.5t-92.5 164.5t-31 253zM416 1603.5q2 10.5 22 24.5l195 141q6 6 10 7.5t8 1.5t8.5 -1t10.5 -8l200 -141q20 -14 22.5 -24.5t-5.5 -20.5q-12 -12 -29.5 -19.5t-21.5 -2.5l-185 114l-178 -114q-4 -4 -21.5 3t-27.5 19 q-10 10 -8 20.5z" />
<glyph unicode="&#xdc;" horiz-adv-x="1316" d="M147 510v956q0 10 28 21.5t61 11.5q18 0 26 -17.5t8 -39.5v-928q0 -121 21.5 -204t65.5 -133t115 -72.5t169 -22.5h16q104 0 178 22.5t121.5 72.5t69 133t21.5 204v952q0 10 27.5 21.5t58.5 11.5q20 0 28 -17.5t8 -39.5v-932q0 -152 -31.5 -253t-95 -164.5t-160 -90.5 t-225.5 -27h-16q-125 0 -217 27t-153.5 90.5t-92.5 164.5t-31 253zM430 1595v140q0 10 25.5 18t58.5 8q25 0 32 -15t7 -38v-86q0 -23 -7 -38t-32 -15q-33 0 -58.5 8t-25.5 18zM737 1595v140q0 10 25.5 18t58.5 8q25 0 31 -15t6 -38v-86q0 -23 -6 -38t-31 -15q-33 0 -58.5 8 t-25.5 18z" />
<glyph unicode="&#xdd;" horiz-adv-x="1112" d="M48 1488q9 11 32 11q41 0 63.5 -5t30.5 -21l381 -771l381 768q10 18 32.5 23.5t63.5 5.5q23 0 31 -11t-4 -34l-443 -879v-546q0 -23 -7 -38.5t-27 -15.5q-33 0 -59.5 9.5t-26.5 19.5v571l-445 879q-12 23 -3 34zM471 1581l137 209q8 12 36 10t44 -12q29 -16 35 -29.5 t0 -21.5l-162 -168q-18 -16 -29.5 -15.5t-33.5 0.5q-16 0 -26.5 5.5t-0.5 21.5z" />
<glyph unicode="&#xde;" horiz-adv-x="1181" d="M147 2v1468q0 10 30 19.5t65 9.5q25 0 31 -15.5t6 -37.5v-277h339q121 0 212.5 -17t151.5 -63.5t91 -128t31 -210.5q0 -127 -28.5 -208t-87 -128t-144.5 -65.5t-203 -18.5h-362v-301q0 -23 -6.5 -38.5t-30.5 -15.5q-35 0 -65 8.5t-30 18.5zM279 440h339q111 0 178.5 13.5 t104.5 47.5t48.5 94t11.5 155q0 94 -11.5 155.5t-48.5 95t-104.5 47t-178.5 13.5h-339v-621z" />
<glyph unicode="&#xdf;" horiz-adv-x="1167" d="M160 6v1092q0 96 34.5 167.5t90 120t126 72t142.5 23.5q74 0 144.5 -24.5t123.5 -73t86 -120t33 -167.5q0 -109 -59.5 -197t-145.5 -135q47 -18 110.5 -47t122 -74t99.5 -107.5t41 -148.5q0 -193 -131 -302.5t-397 -109.5h-84q-29 0 -29 33q0 27 7 51.5t20 24.5h94 q80 0 151.5 16.5t127 53t88 94t32.5 139.5q0 61 -29.5 104.5t-73.5 75t-95.5 54t-95.5 43t-73.5 43t-29.5 53.5q0 41 36 67.5t80 57t79.5 79t35.5 132.5q0 70 -22.5 123t-59.5 86.5t-85 51t-99 17.5t-100 -17.5t-88 -52t-62.5 -87t-23.5 -121.5v-1082q0 -39 -35 -39 q-33 0 -59.5 8.5t-26.5 22.5z" />
<glyph unicode="&#xe0;" d="M86 303q0 172 80 241.5t250 69.5q88 0 179 -17t144 -36v234q0 61 -14 102t-47 65.5t-87 36t-136 11.5q-72 0 -142.5 -8.5t-130.5 -20.5q-18 -4 -24 18.5t-11 42.5q-4 25 15 31q31 10 122 22.5t201 12.5q92 0 162 -14.5t115 -50t67.5 -96t22.5 -152.5v-717 q0 -16 -34 -33.5t-88 -33t-123.5 -26t-139.5 -10.5q-188 0 -284.5 75t-96.5 253zM199 297q0 -129 62.5 -180t203.5 -51q37 0 84 5t88 14t69.5 18.5t32.5 19.5v342q-4 6 -35.5 15t-77.5 19.5t-98.5 17.5t-95.5 7q-59 0 -103 -9t-73 -34.5t-43 -69.5t-14 -114zM270.5 1533.5 q-0.5 12.5 11 20t31 11.5t39.5 4q10 0 21.5 -3.5t17.5 -13.5l141 -174q25 -31 24 -42t-15 -11q-23 0 -38.5 7t-33.5 24l-178 149q-20 16 -20.5 28.5z" />
<glyph unicode="&#xe1;" d="M86 303q0 172 80 241.5t250 69.5q88 0 179 -17t144 -36v234q0 61 -14 102t-47 65.5t-87 36t-136 11.5q-72 0 -142.5 -8.5t-130.5 -20.5q-18 -4 -24 18.5t-11 42.5q-4 25 15 31q31 10 122 22.5t201 12.5q92 0 162 -14.5t115 -50t67.5 -96t22.5 -152.5v-717 q0 -16 -34 -33.5t-88 -33t-123.5 -26t-139.5 -10.5q-188 0 -284.5 75t-96.5 253zM199 297q0 -129 62.5 -180t203.5 -51q37 0 84 5t88 14t69.5 18.5t32.5 19.5v342q-4 6 -35.5 15t-77.5 19.5t-98.5 17.5t-95.5 7q-59 0 -103 -9t-73 -34.5t-43 -69.5t-14 -114zM420 1316 q-10 5 0 21l137 209q8 12 36 10t44 -12q29 -16 35 -29.5t0 -21.5l-162 -168q-18 -16 -29.5 -15t-34.5 1q-16 0 -26 5z" />
<glyph unicode="&#xe2;" d="M86 303q0 172 80 241.5t250 69.5q88 0 179 -17t144 -36v234q0 61 -14 102t-47 65.5t-87 36t-136 11.5q-72 0 -142.5 -8.5t-130.5 -20.5q-18 -4 -24 18.5t-11 42.5q-4 25 15 31q31 10 122 22.5t201 12.5q92 0 162 -14.5t115 -50t67.5 -96t22.5 -152.5v-717 q0 -16 -34 -33.5t-88 -33t-123.5 -26t-139.5 -10.5q-188 0 -284.5 75t-96.5 253zM199 297q0 -129 62.5 -180t203.5 -51q37 0 84 5t88 14t69.5 18.5t32.5 19.5v342q-4 6 -35.5 15t-77.5 19.5t-98.5 17.5t-95.5 7q-59 0 -103 -9t-73 -34.5t-43 -69.5t-14 -114zM266 1361.5 q2 10.5 23 24.5l194 142q6 6 10.5 7t8.5 1t8 -1t10 -7l201 -142q20 -14 22 -24t-6 -21q-12 -12 -29.5 -19t-21.5 -3l-184 115l-178 -115q-4 -4 -22 3t-28 19q-10 10 -8 20.5z" />
<glyph unicode="&#xe3;" d="M86 303q0 172 80 241.5t250 69.5q88 0 179 -17t144 -36v234q0 61 -14 102t-47 65.5t-87 36t-136 11.5q-72 0 -142.5 -8.5t-130.5 -20.5q-18 -4 -24 18.5t-11 42.5q-4 25 15 31q31 10 122 22.5t201 12.5q92 0 162 -14.5t115 -50t67.5 -96t22.5 -152.5v-717 q0 -16 -34 -33.5t-88 -33t-123.5 -26t-139.5 -10.5q-188 0 -284.5 75t-96.5 253zM199 297q0 -129 62.5 -180t203.5 -51q37 0 84 5t88 14t69.5 18.5t32.5 19.5v342q-4 6 -35.5 15t-77.5 19.5t-98.5 17.5t-95.5 7q-59 0 -103 -9t-73 -34.5t-43 -69.5t-14 -114zM287 1335 q2 41 16 69t35.5 43t44.5 20.5t41 5.5q25 0 44 -10.5t38.5 -20.5t38 -19.5t41.5 -9.5q12 -2 25.5 2t25.5 11.5t20.5 18.5t8.5 23q0 6 9 8.5t20.5 2.5t20.5 -5.5t9 -13.5q-2 -41 -16.5 -68.5t-35 -43t-43 -20.5t-40.5 -5q-25 0 -45.5 9t-40 20.5t-39 20.5t-39.5 9 q-23 0 -50.5 -13t-27.5 -42q0 -6 -9 -9t-21.5 -2t-21.5 5t-9 14z" />
<glyph unicode="&#xe4;" d="M86 303q0 172 80 241.5t250 69.5q88 0 179 -17t144 -36v234q0 61 -14 102t-47 65.5t-87 36t-136 11.5q-72 0 -142.5 -8.5t-130.5 -20.5q-18 -4 -24 18.5t-11 42.5q-4 25 15 31q31 10 122 22.5t201 12.5q92 0 162 -14.5t115 -50t67.5 -96t22.5 -152.5v-717 q0 -16 -34 -33.5t-88 -33t-123.5 -26t-139.5 -10.5q-188 0 -284.5 75t-96.5 253zM199 297q0 -129 62.5 -180t203.5 -51q37 0 84 5t88 14t69.5 18.5t32.5 19.5v342q-4 6 -35.5 15t-77.5 19.5t-98.5 17.5t-95.5 7q-59 0 -103 -9t-73 -34.5t-43 -69.5t-14 -114zM283 1354v139 q0 10 25.5 18.5t58.5 8.5q25 0 32 -15.5t7 -38.5v-86q0 -23 -7.5 -38t-31.5 -15q-33 0 -58.5 8.5t-25.5 18.5zM590 1354v139q0 10 25.5 18.5t58.5 8.5q25 0 31 -15.5t6 -38.5v-86q0 -23 -6.5 -38t-30.5 -15q-33 0 -58.5 8.5t-25.5 18.5z" />
<glyph unicode="&#xe5;" d="M86 303q0 172 80 241.5t250 69.5q88 0 179 -17t144 -36v234q0 61 -14 102t-47 65.5t-87 36t-136 11.5q-72 0 -142.5 -8.5t-130.5 -20.5q-18 -4 -24 18.5t-11 42.5q-4 25 15 31q31 10 122 22.5t201 12.5q92 0 162 -14.5t115 -50t67.5 -96t22.5 -152.5v-717 q0 -16 -34 -33.5t-88 -33t-123.5 -26t-139.5 -10.5q-188 0 -284.5 75t-96.5 253zM199 297q0 -129 62.5 -180t203.5 -51q37 0 84 5t88 14t69.5 18.5t32.5 19.5v342q-4 6 -35.5 15t-77.5 19.5t-98.5 17.5t-95.5 7q-59 0 -103 -9t-73 -34.5t-43 -69.5t-14 -114zM313 1507 q0 82 55.5 131.5t133.5 49.5q80 0 136 -49.5t56 -133.5q0 -78 -54 -127t-138 -49t-136.5 49t-52.5 129zM393 1507q0 -45 31 -74.5t80 -29.5q47 0 78.5 29.5t31.5 74.5q0 43 -31.5 76t-80.5 33q-47 0 -78 -32t-31 -77z" />
<glyph unicode="&#xe6;" horiz-adv-x="1574" d="M88 303q0 172 80 241.5t250 69.5q88 0 179 -17t144 -36v234q0 61 -14 102t-47 65.5t-87 36t-136 11.5q-72 0 -142.5 -8.5t-130.5 -20.5q-18 -4 -24 18.5t-10 42.5q-4 25 14 31q31 10 122 22.5t201 12.5q121 0 201 -25.5t121 -91.5q47 63 128 90t193 27h31q356 0 357 -291 v-51q0 -92 -24 -156.5t-94.5 -105.5t-200.5 -59.5t-345 -18.5v-18q0 -86 16.5 -149.5t56.5 -105.5t103.5 -61.5t159.5 -19.5q82 0 154.5 12t125.5 20q16 2 23.5 -4t9.5 -45q4 -23 -1 -32t-23 -13q-78 -18 -161 -26.5t-149 -8.5q-115 0 -191.5 24t-125.5 73q-6 -16 -42 -32.5 t-89 -31t-118.5 -24t-133.5 -9.5q-188 0 -284.5 75t-96.5 253zM201 297q0 -129 62.5 -180t203.5 -51q37 0 84 5t88 14t69.5 18.5t32.5 19.5v342q-4 6 -35.5 15t-77.5 19.5t-98.5 17.5t-95.5 7q-59 0 -103 -9t-73 -34.5t-43 -69.5t-14 -114zM854 516q174 0 281.5 11.5t168 40 t81 79.5t20.5 129v45q0 96 -62.5 145.5t-205.5 49.5q-61 0 -113.5 -11.5t-89.5 -40t-58.5 -76.5t-21.5 -124v-248z" />
<glyph unicode="&#xe7;" horiz-adv-x="864" d="M119 391v301q0 217 91 316.5t308 99.5q74 0 138.5 -8t86.5 -15q18 -4 30.5 -10t8.5 -26q-4 -37 -11 -51.5t-21 -12.5q-8 0 -32 4t-56.5 9.5t-69.5 8.5t-74 3q-145 0 -216 -73t-71 -245v-299q0 -178 72 -248.5t223 -70.5q45 0 95.5 6t130.5 18q16 2 20 -13t8 -42 q4 -23 -9 -31t-32 -12q-53 -10 -80.5 -14t-46 -6.5t-35 -2.5t-47.5 -2l-20 -41q27 -2 54.5 -10t49 -23.5t35 -40t10.5 -59.5q-2 -43 -18 -69.5t-38.5 -41t-49.5 -19.5t-47 -7q-35 -4 -80 3t-64 22q-8 10 1.5 30.5t29.5 16.5q16 -6 40 -13.5t46 -7.5q39 0 66.5 21.5 t27.5 68.5q0 39 -23.5 55.5t-51 22.5t-48 9.5t-14.5 15.5l35 69q-188 8 -270 107.5t-82 306.5z" />
<glyph unicode="&#xe8;" horiz-adv-x="948" d="M117 498v250q0 100 25.5 169.5t74.5 111.5t122 60.5t165 18.5h31q356 0 356 -291v-51q0 -92 -23.5 -156.5t-94.5 -105.5t-201 -59.5t-345 -18.5q0 -92 16.5 -158.5t54.5 -109.5t102.5 -64.5t162.5 -21.5q82 0 155 12t126 20q16 2 23 -4t10 -45q4 -23 -1.5 -32t-23.5 -13 q-78 -18 -161 -26.5t-148 -8.5q-129 0 -211 31t-130 94.5t-66.5 161.5t-18.5 236zM227 516q174 0 281.5 11.5t168 40t81 79.5t20.5 129v45q0 96 -62.5 145.5t-205.5 49.5q-63 0 -115.5 -11.5t-89.5 -42t-57.5 -82t-20.5 -130.5v-234zM252 1533.5q0 12.5 11 20t30.5 11.5 t40.5 4q10 0 21.5 -3.5t17.5 -13.5l141 -174q25 -31 24 -42t-16 -11q-23 0 -38 7t-33 24l-179 149q-20 16 -20 28.5z" />
<glyph unicode="&#xe9;" horiz-adv-x="948" d="M117 498v250q0 100 25.5 169.5t74.5 111.5t122 60.5t165 18.5h31q356 0 356 -291v-51q0 -92 -23.5 -156.5t-94.5 -105.5t-201 -59.5t-345 -18.5q0 -92 16.5 -158.5t54.5 -109.5t102.5 -64.5t162.5 -21.5q82 0 155 12t126 20q16 2 23 -4t10 -45q4 -23 -1.5 -32t-23.5 -13 q-78 -18 -161 -26.5t-148 -8.5q-129 0 -211 31t-130 94.5t-66.5 161.5t-18.5 236zM227 516q174 0 281.5 11.5t168 40t81 79.5t20.5 129v45q0 96 -62.5 145.5t-205.5 49.5q-63 0 -115.5 -11.5t-89.5 -42t-57.5 -82t-20.5 -130.5v-234zM401 1337l138 209q8 12 35.5 10 t43.5 -12q29 -16 35 -29.5t0 -21.5l-161 -168q-18 -16 -29.5 -15t-34.5 1q-16 0 -26.5 5t-0.5 21z" />
<glyph unicode="&#xea;" horiz-adv-x="948" d="M117 498v250q0 100 25.5 169.5t74.5 111.5t122 60.5t165 18.5h31q356 0 356 -291v-51q0 -92 -23.5 -156.5t-94.5 -105.5t-201 -59.5t-345 -18.5q0 -92 16.5 -158.5t54.5 -109.5t102.5 -64.5t162.5 -21.5q82 0 155 12t126 20q16 2 23 -4t10 -45q4 -23 -1.5 -32t-23.5 -13 q-78 -18 -161 -26.5t-148 -8.5q-129 0 -211 31t-130 94.5t-66.5 161.5t-18.5 236zM227 516q174 0 281.5 11.5t168 40t81 79.5t20.5 129v45q0 96 -62.5 145.5t-205.5 49.5q-63 0 -115.5 -11.5t-89.5 -42t-57.5 -82t-20.5 -130.5v-234zM250 1361.5q2 10.5 22 24.5l195 142 q6 6 10 7t8 1t8.5 -1t10.5 -7l201 -142q20 -14 22 -24t-6 -21q-12 -12 -29.5 -19t-21.5 -3l-185 115l-178 -115q-4 -4 -21.5 3t-27.5 19q-10 10 -8 20.5z" />
<glyph unicode="&#xeb;" horiz-adv-x="948" d="M117 498v250q0 100 25.5 169.5t74.5 111.5t122 60.5t165 18.5h31q356 0 356 -291v-51q0 -92 -23.5 -156.5t-94.5 -105.5t-201 -59.5t-345 -18.5q0 -92 16.5 -158.5t54.5 -109.5t102.5 -64.5t162.5 -21.5q82 0 155 12t126 20q16 2 23 -4t10 -45q4 -23 -1.5 -32t-23.5 -13 q-78 -18 -161 -26.5t-148 -8.5q-129 0 -211 31t-130 94.5t-66.5 161.5t-18.5 236zM227 516q174 0 281.5 11.5t168 40t81 79.5t20.5 129v45q0 96 -62.5 145.5t-205.5 49.5q-63 0 -115.5 -11.5t-89.5 -42t-57.5 -82t-20.5 -130.5v-234zM264 1354v139q0 10 25.5 18.5t58.5 8.5 q25 0 32 -15.5t7 -38.5v-86q0 -23 -7 -38t-32 -15q-33 0 -58.5 8.5t-25.5 18.5zM571 1354v139q0 10 26 18.5t58 8.5q25 0 31 -15.5t6 -38.5v-86q0 -23 -6 -38t-31 -15q-33 0 -58.5 8.5t-25.5 18.5z" />
<glyph unicode="&#xec;" horiz-adv-x="512" d="M-38.5 1531.5q-0.5 12.5 11 20t31 11.5t39.5 4q10 0 21.5 -3.5t17.5 -13.5l141 -174q25 -31 24 -42t-16 -11q-23 0 -38 7t-33 24l-178 149q-20 16 -20.5 28.5zM137 225v858q0 14 30 18.5t48 4.5q35 0 35 -45v-821q0 -72 26.5 -115t102.5 -43q25 0 50.5 4t66.5 16 q8 0 13 -8t8 -20.5t5 -23.5t2 -17q2 -23 -37 -37q-59 -20 -133 -21q-47 0 -87 11.5t-68.5 40t-45 77t-16.5 121.5z" />
<glyph unicode="&#xed;" horiz-adv-x="512" d="M111 1314q-10 5 0 21l137 209q8 12 35.5 10t44.5 -12q29 -16 35 -29.5t-1 -21.5l-161 -168q-18 -16 -29.5 -15t-34.5 1q-16 0 -26 5zM137 225v858q0 14 30 18.5t48 4.5q35 0 35 -45v-821q0 -72 26.5 -115t102.5 -43q25 0 50.5 4t66.5 16q8 0 13 -8t8 -20.5t5 -23.5t2 -17 q2 -23 -37 -37q-59 -20 -133 -21q-47 0 -87 11.5t-68.5 40t-45 77t-16.5 121.5z" />
<glyph unicode="&#xee;" horiz-adv-x="512" d="M-43 1359.5q2 10.5 23 24.5l194 142q6 6 10 7t9 1q4 0 8 -1t10 -7l201 -142q20 -14 22 -24t-6 -21q-12 -12 -29.5 -19t-21.5 -3l-184 115l-179 -115q-4 -4 -21.5 3t-27.5 19q-10 10 -8 20.5zM137 225v858q0 14 30 18.5t48 4.5q35 0 35 -45v-821q0 -72 26.5 -115 t102.5 -43q25 0 50.5 4t66.5 16q8 0 13 -8t8 -20.5t5 -23.5t2 -17q2 -23 -37 -37q-59 -20 -133 -21q-47 0 -87 11.5t-68.5 40t-45 77t-16.5 121.5z" />
<glyph unicode="&#xef;" horiz-adv-x="512" d="M-27 1352v139q0 10 26 18.5t58 8.5q25 0 32 -15.5t7 -38.5v-86q0 -23 -7 -38t-32 -15q-33 0 -58.5 8.5t-25.5 18.5zM137 225v858q0 14 30 18.5t48 4.5q35 0 35 -45v-821q0 -72 26.5 -115t102.5 -43q25 0 50.5 4t66.5 16q8 0 13 -8t8 -20.5t5 -23.5t2 -17q2 -23 -37 -37 q-59 -20 -133 -21q-47 0 -87 11.5t-68.5 40t-45 77t-16.5 121.5zM281 1352v139q0 10 25.5 18.5t58.5 8.5q25 0 30.5 -15.5t5.5 -38.5v-86q0 -23 -6 -38t-30 -15q-33 0 -58.5 8.5t-25.5 18.5z" />
<glyph unicode="&#xf0;" horiz-adv-x="1150" d="M88 442v27q0 125 26.5 213t81 144.5t138.5 82t198 25.5h19q90 0 171 -19.5t146 -85.5q-59 141 -135 239.5t-160 168.5l-73 -131q-4 -10 -14.5 -15.5t-22.5 1.5q-20 10 -42 28.5t-9 40.5l77 139q-18 12 -33.5 22.5t-30.5 20t-34.5 22t-48.5 28.5t-26 43.5t20 50.5 q8 10 20.5 9t28.5 -9q33 -16 71 -39t85 -53l75 135q16 25 39 12q23 -12 43.5 -29.5t10.5 -37.5l-80 -142q199 -156 313.5 -379t114.5 -491v-21q0 -131 -29 -220t-87 -144t-147 -79t-212 -24h-19q-123 0 -212 24t-147.5 79t-87 144t-28.5 220zM209 442q0 -80 12 -146.5 t51 -114.5t108 -73.5t183 -25.5h19q113 0 182.5 25.5t107 73.5t50 114.5t12.5 146.5l-2 21q-8 76 -17.5 142.5t-42 116.5t-100 78.5t-190.5 28.5h-19q-115 0 -183.5 -25.5t-107.5 -73.5t-51 -114.5t-12 -146.5v-27z" />
<glyph unicode="&#xf1;" horiz-adv-x="1044" d="M135 0v944q0 25 43 53.5t112.5 53t159 41t181.5 16.5q76 0 129 -15.5t86 -52t47 -98t14 -154.5v-768q0 -29 -10 -37t-27 -8q-25 0 -50 7.5t-25 17.5v791q0 57 -7.5 97t-28 65.5t-57 38t-94.5 12.5q-59 0 -122.5 -11.5t-116 -29t-86 -36t-33.5 -30.5v-877q0 -29 -10.5 -37 t-26.5 -8q-25 0 -51.5 7.5t-26.5 17.5zM311 1335q2 41 16.5 69t36 43t44.5 20.5t41 5.5q25 0 44 -10.5t38.5 -20.5t38 -19.5t40.5 -9.5q12 -2 25.5 2t26 11.5t20.5 18.5t8 23q0 6 9.5 8.5t20.5 2.5t20.5 -5.5t9.5 -13.5q-2 -41 -16.5 -68.5t-35 -43t-43 -20.5t-41.5 -5 q-25 0 -45 9t-39.5 20.5t-39 20.5t-39.5 9q-23 0 -50.5 -13t-27.5 -42q0 -6 -9.5 -9t-21.5 -2t-21.5 5t-9.5 14z" />
<glyph unicode="&#xf2;" horiz-adv-x="1013" d="M119 315v449q0 184 96 264t305 80h4q211 0 307.5 -80t96.5 -264v-449q0 -184 -96.5 -262t-307.5 -78h-4q-209 0 -305 78t-96 262zM231 315q0 -121 64.5 -180t224.5 -59h6q160 0 224.5 59.5t64.5 179.5v449q0 123 -64.5 183.5t-224.5 60.5h-6q-160 0 -224.5 -60.5 t-64.5 -183.5v-449zM272.5 1533.5q-0.5 12.5 11 20t31 11.5t39.5 4q10 0 21.5 -3.5t17.5 -13.5l142 -174q25 -31 23.5 -42t-15.5 -11q-23 0 -38.5 7t-33.5 24l-178 149q-20 16 -20.5 28.5z" />
<glyph unicode="&#xf3;" horiz-adv-x="1013" d="M119 315v449q0 184 96 264t305 80h4q211 0 307.5 -80t96.5 -264v-449q0 -184 -96.5 -262t-307.5 -78h-4q-209 0 -305 78t-96 262zM231 315q0 -121 64.5 -180t224.5 -59h6q160 0 224.5 59.5t64.5 179.5v449q0 123 -64.5 183.5t-224.5 60.5h-6q-160 0 -224.5 -60.5 t-64.5 -183.5v-449zM438 1341l137 209q8 12 36 10.5t44 -12.5q29 -16 35 -29.5t0 -21.5l-162 -168q-18 -16 -29.5 -15t-33.5 1q-16 0 -26.5 5t-0.5 21z" />
<glyph unicode="&#xf4;" horiz-adv-x="1013" d="M119 315v449q0 184 96 264t305 80h4q211 0 307.5 -80t96.5 -264v-449q0 -184 -96.5 -262t-307.5 -78h-4q-209 0 -305 78t-96 262zM231 315q0 -121 64.5 -180t224.5 -59h6q160 0 224.5 59.5t64.5 179.5v449q0 123 -64.5 183.5t-224.5 60.5h-6q-160 0 -224.5 -60.5 t-64.5 -183.5v-449zM270.5 1361.5q1.5 10.5 22.5 24.5l194 142q6 6 10.5 7t8.5 1t8 -1t10 -7l201 -142q20 -14 22.5 -24t-6.5 -21q-12 -12 -29.5 -19t-21.5 -3l-184 115l-178 -115q-4 -4 -21.5 3t-27.5 19q-10 10 -8.5 20.5z" />
<glyph unicode="&#xf5;" horiz-adv-x="1013" d="M119 315v449q0 184 96 264t305 80h4q211 0 307.5 -80t96.5 -264v-449q0 -184 -96.5 -262t-307.5 -78h-4q-209 0 -305 78t-96 262zM231 315q0 -121 64.5 -180t224.5 -59h6q160 0 224.5 59.5t64.5 179.5v449q0 123 -64.5 183.5t-224.5 60.5h-6q-160 0 -224.5 -60.5 t-64.5 -183.5v-449zM289 1335q2 41 16 69t35.5 43t44.5 20.5t41 5.5q25 0 44 -10.5t38.5 -20.5t38 -19.5t41.5 -9.5q12 -2 25.5 2t25.5 11.5t20.5 18.5t8.5 23q0 6 9 8.5t20.5 2.5t20.5 -5.5t9 -13.5q-2 -41 -16.5 -68.5t-35 -43t-43 -20.5t-40.5 -5q-25 0 -45.5 9t-40 20.5 t-38.5 20.5t-40 9q-23 0 -50.5 -13t-27.5 -42q0 -6 -9 -9t-21.5 -2t-21.5 5t-9 14z" />
<glyph unicode="&#xf6;" horiz-adv-x="1013" d="M119 315v449q0 184 96 264t305 80h4q211 0 307.5 -80t96.5 -264v-449q0 -184 -96.5 -262t-307.5 -78h-4q-209 0 -305 78t-96 262zM231 315q0 -121 64.5 -180t224.5 -59h6q160 0 224.5 59.5t64.5 179.5v449q0 123 -64.5 183.5t-224.5 60.5h-6q-160 0 -224.5 -60.5 t-64.5 -183.5v-449zM285 1354v139q0 10 25.5 18.5t58.5 8.5q25 0 32 -15.5t7 -38.5v-86q0 -23 -7.5 -38t-31.5 -15q-33 0 -58.5 8.5t-25.5 18.5zM592 1354v139q0 10 25.5 18.5t58.5 8.5q25 0 31 -15.5t6 -38.5v-86q0 -23 -6.5 -38t-30.5 -15q-33 0 -58.5 8.5t-25.5 18.5z " />
<glyph unicode="&#xf7;" horiz-adv-x="997" d="M47 541q0 25 7 52.5t30 27.5h834q33 0 32 -27q0 -25 -7 -52.5t-32 -27.5h-833q-31 0 -31 27zM432 25v151q0 10 25.5 19.5t58.5 9.5q23 0 31 -15.5t8 -37.5v-101q0 -23 -8 -38t-31 -15q-33 0 -58.5 8.5t-25.5 18.5zM432 963v151q0 10 25.5 18.5t58.5 8.5q23 0 31 -15.5 t8 -38.5v-100q0 -23 -8 -38t-31 -15q-33 0 -58.5 9.5t-25.5 19.5z" />
<glyph unicode="&#xf8;" horiz-adv-x="1013" d="M119 315v449q0 184 96 264t305 80h4q106 0 181 -21l81 183q14 33 50 22q18 -6 30.5 -17t7.5 -22l-90 -194q143 -74 144 -295v-449q0 -184 -96.5 -262t-307.5 -78h-4q-125 0 -215 29l-74 -162q-6 -18 -18 -28.5t-31 -1.5q-29 10 -36 20t-3 23l84 188q-108 77 -108 272z M231 315q0 -106 48 -161l380 837q-29 8 -60.5 12.5t-72.5 4.5h-6q-160 0 -224.5 -60.5t-64.5 -183.5v-449zM350 102q61 -26 170 -26h6q160 0 224.5 59.5t64.5 179.5v449q0 66 -17.5 114t-58.5 78z" />
<glyph unicode="&#xf9;" horiz-adv-x="1044" d="M135 326v757q0 10 25.5 17.5t50.5 7.5q16 0 27.5 -8t11.5 -37v-731q0 -63 10 -111.5t36 -81.5t73 -49t120 -16q49 0 103.5 6t99.5 14t74 17.5t29 13.5v958q0 10 25.5 17.5t49.5 7.5q16 0 26.5 -8t10.5 -37v-973q0 -27 -10 -35t-29 -16q-53 -20 -157.5 -42t-221.5 -22 q-109 0 -177 22.5t-108 68t-54.5 111t-14.5 149.5zM295 1533.5q0 12.5 11 20t30.5 11.5t40.5 4q10 0 21.5 -3.5t17.5 -13.5l141 -174q25 -31 24 -42t-16 -11q-23 0 -38 7t-33 24l-179 149q-20 16 -20 28.5z" />
<glyph unicode="&#xfa;" horiz-adv-x="1044" d="M135 326v757q0 10 25.5 17.5t50.5 7.5q16 0 27.5 -8t11.5 -37v-731q0 -63 10 -111.5t36 -81.5t73 -49t120 -16q49 0 103.5 6t99.5 14t74 17.5t29 13.5v958q0 10 25.5 17.5t49.5 7.5q16 0 26.5 -8t10.5 -37v-973q0 -27 -10 -35t-29 -16q-53 -20 -157.5 -42t-221.5 -22 q-109 0 -177 22.5t-108 68t-54.5 111t-14.5 149.5zM444 1337l138 209q8 12 35.5 10t44.5 -12q29 -16 34.5 -29.5t-0.5 -21.5l-161 -168q-18 -16 -29.5 -15t-34.5 1q-16 0 -26.5 5t-0.5 21z" />
<glyph unicode="&#xfb;" horiz-adv-x="1044" d="M135 326v757q0 10 25.5 17.5t50.5 7.5q16 0 27.5 -8t11.5 -37v-731q0 -63 10 -111.5t36 -81.5t73 -49t120 -16q49 0 103.5 6t99.5 14t74 17.5t29 13.5v958q0 10 25.5 17.5t49.5 7.5q16 0 26.5 -8t10.5 -37v-973q0 -27 -10 -35t-29 -16q-53 -20 -157.5 -42t-221.5 -22 q-109 0 -177 22.5t-108 68t-54.5 111t-14.5 149.5zM291 1361.5q2 10.5 22 24.5l195 142q6 6 10 7t8 1t8.5 -1t10.5 -7l200 -142q20 -14 22.5 -24t-5.5 -21q-12 -12 -29.5 -19t-21.5 -3l-185 115l-178 -115q-4 -4 -21.5 3t-27.5 19q-10 10 -8 20.5z" />
<glyph unicode="&#xfc;" horiz-adv-x="1044" d="M135 326v757q0 10 25.5 17.5t50.5 7.5q16 0 27.5 -8t11.5 -37v-731q0 -63 10 -111.5t36 -81.5t73 -49t120 -16q49 0 103.5 6t99.5 14t74 17.5t29 13.5v958q0 10 25.5 17.5t49.5 7.5q16 0 26.5 -8t10.5 -37v-973q0 -27 -10 -35t-29 -16q-53 -20 -157.5 -42t-221.5 -22 q-109 0 -177 22.5t-108 68t-54.5 111t-14.5 149.5zM307 1354v139q0 10 25.5 18.5t58.5 8.5q25 0 32 -15.5t7 -38.5v-86q0 -23 -7 -38t-32 -15q-33 0 -58.5 8.5t-25.5 18.5zM614 1354v139q0 10 26 18.5t58 8.5q25 0 31 -15.5t6 -38.5v-86q0 -23 -6 -38t-31 -15 q-33 0 -58.5 8.5t-25.5 18.5z" />
<glyph unicode="&#xfd;" horiz-adv-x="1048" d="M137 -418q0 68 27 68q6 0 32.5 -4t68.5 -10.5t93.5 -10.5t106.5 -4q61 0 120.5 11.5t107.5 46t77 99t29 173.5v131q-31 -18 -74 -37.5t-95 -35t-109.5 -25t-112.5 -9.5q-135 0 -190.5 70t-55.5 229v809q0 10 25.5 17.5t50.5 7.5q16 0 27 -8t11 -37v-776q0 -123 38 -165 t126 -42q59 0 123 13t115 32.5t85 40t36 35.5v882q0 10 26.5 17.5t48.5 7.5q27 0 33 -19.5t6 -48.5v-1089q0 -227 -102 -329.5t-334 -102.5q-127 0 -207 13t-96 17q-23 6 -30 11.5t-7 21.5zM457 1316q-10 5 0 21l137 209q8 12 35.5 10t44.5 -12q29 -16 35 -29.5t0 -21.5 l-162 -168q-18 -16 -29.5 -15t-34.5 1q-16 0 -26 5z" />
<glyph unicode="&#xfe;" horiz-adv-x="1015" d="M145 -543v2095q0 10 27 17.5t59 7.5q23 0 28 -14.5t5 -32.5v-516q90 47 191.5 70.5t206.5 23.5q80 0 127 -27.5t71.5 -75t31.5 -109.5t7 -130q0 -35 -1 -71t-1 -72v-261q0 -78 -3 -147.5t-25.5 -123.5t-70.5 -86t-139 -32q-61 0 -167.5 9.5t-227.5 40.5v-543 q0 -20 -5 -34.5t-28 -14.5q-33 0 -59.5 8t-26.5 18zM264 170q-6 -18 12 -39q43 -25 137.5 -41t213.5 -16q43 0 73 18q29 14 44.5 45t21.5 73t7 94t1 110v342q0 84 -13 143t-54 90q-16 8 -33 13.5t-39 5.5q-29 0 -56.5 -2t-54.5 -7q-113 -14 -186.5 -43.5t-73.5 -58.5v-727z " />
<glyph unicode="&#xff;" horiz-adv-x="1048" d="M137 -418q0 68 27 68q6 0 32.5 -4t68.5 -10.5t93.5 -10.5t106.5 -4q61 0 120.5 11.5t107.5 46t77 99t29 173.5v131q-31 -18 -74 -37.5t-95 -35t-109.5 -25t-112.5 -9.5q-135 0 -190.5 70t-55.5 229v809q0 10 25.5 17.5t50.5 7.5q16 0 27 -8t11 -37v-776q0 -123 38 -165 t126 -42q59 0 123 13t115 32.5t85 40t36 35.5v882q0 10 26.5 17.5t48.5 7.5q27 0 33 -19.5t6 -48.5v-1089q0 -227 -102 -329.5t-334 -102.5q-127 0 -207 13t-96 17q-23 6 -30 11.5t-7 21.5zM319 1354v139q0 10 26 18.5t58 8.5q25 0 32 -15.5t7 -38.5v-86q0 -23 -7 -38 t-32 -15q-33 0 -58.5 8.5t-25.5 18.5zM627 1354v139q0 10 25.5 18.5t58.5 8.5q25 0 31 -15.5t6 -38.5v-86q0 -23 -6.5 -38t-30.5 -15q-33 0 -58.5 8.5t-25.5 18.5z" />
<glyph unicode="&#x152;" horiz-adv-x="2064" d="M119 518v438q0 154 33.5 257.5t102.5 167t173 91t246 27.5h16q170 0 285 -42t178 -146v106q0 35 18.5 45.5t34.5 10.5h713q16 0 30.5 -5.5t14.5 -27.5q0 -20 -3 -46t-13 -30h-703v-561h629q18 0 32.5 -7.5t14.5 -25.5q0 -25 -9 -50.5t-20 -25.5h-647v-585h674 q16 0 30.5 -7.5t14.5 -25.5q0 -27 -7 -51.5t-18 -24.5h-710q-23 0 -49.5 8.5t-26.5 22.5v129q-63 -100 -178 -142.5t-285 -42.5h-16q-141 0 -245.5 28t-173.5 91.5t-102.5 167t-33.5 256.5zM244 530q0 -125 23.5 -209.5t75.5 -137t133 -76t198 -23.5h16q117 0 198 23.5 t133 76t75.5 137.5t23.5 209v414q0 125 -23.5 210t-75.5 137t-133 76t-198 24h-16q-117 0 -198 -24t-133 -76t-75.5 -137t-23.5 -210v-414z" />
<glyph unicode="&#x153;" horiz-adv-x="1615" d="M119 426v305q0 201 92 288t295 87q135 0 218 -41t122 -129q37 86 110.5 129t204.5 43h45q100 0 159.5 -33t90.5 -85t40 -119.5t9 -137.5v-78q0 -29 -19.5 -56.5t-84 -49t-184 -35.5t-320.5 -14q0 -201 40 -299.5t150 -118.5q23 -2 44.5 -3t44.5 -1q31 0 58.5 2t56 6t62 9 t74.5 14q10 2 19.5 -19.5t15.5 -46.5q4 -16 -8.5 -24.5t-30.5 -12.5q-31 -10 -101.5 -20.5t-143.5 -10.5q-51 0 -91 7q-88 12 -143 52t-88 116q-37 -92 -122 -135.5t-226 -43.5q-117 0 -192.5 26t-119.5 80t-60.5 140t-16.5 209zM231 410q0 -86 9.5 -149.5t39 -105.5 t83 -62.5t141.5 -20.5q92 0 147.5 21.5t84 64.5t37.5 107.5t9 152.5v250q0 86 -10 149.5t-38.5 105.5t-83 62.5t-142.5 20.5q-90 0 -145.5 -21.5t-84 -64.5t-38 -106.5t-9.5 -149.5v-254zM897 592q115 0 206 4t155.5 14.5t99.5 27.5t35 46v113q0 104 -48.5 161.5 t-140.5 57.5q-72 0 -128 -12.5t-96 -47t-61.5 -96t-21.5 -160.5v-108z" />
<glyph unicode="&#x178;" horiz-adv-x="1112" d="M48 1488q9 11 32 11q41 0 63.5 -5t30.5 -21l381 -771l381 768q10 18 32.5 23.5t63.5 5.5q23 0 31 -11t-4 -34l-443 -879v-546q0 -23 -7 -38.5t-27 -15.5q-33 0 -59.5 9.5t-26.5 19.5v571l-445 879q-12 23 -3 34zM334 1595v140q0 10 25.5 18t58.5 8q25 0 32 -15t7 -38v-86 q0 -23 -7.5 -38t-31.5 -15q-33 0 -58.5 8t-25.5 18zM641 1595v140q0 10 25.5 18t58.5 8q25 0 31 -15t6 -38v-86q0 -23 -6 -38t-31 -15q-33 0 -58.5 8t-25.5 18z" />
<glyph unicode="&#x2c6;" horiz-adv-x="458" d="M-4 1417q2 10 22 25l195 141q6 6 10 7t8 1t8.5 -1t10.5 -7l201 -141q20 -14 22 -24.5t-6 -20.5q-12 -12 -29.5 -19.5t-21.5 -3.5l-185 115l-178 -115q-4 -4 -21.5 3.5t-27.5 19.5q-10 10 -8 20z" />
<glyph unicode="&#x2dc;" horiz-adv-x="565" d="M63 1309q2 41 16.5 68.5t36 43t44.5 20.5t41 5q25 0 44 -10.5t38.5 -20.5t38 -19.5t40.5 -9.5q12 -2 25.5 2.5t26 11.5t20.5 18.5t8 23.5q0 6 9.5 8t20.5 2t20.5 -5t9.5 -13q-2 -41 -16.5 -69t-35 -43t-43 -20.5t-40.5 -5.5q-25 0 -45.5 9.5t-40 20.5t-39 20.5t-39.5 9.5 q-23 0 -50.5 -13.5t-27.5 -42.5q0 -6 -9.5 -9t-21.5 -2t-21.5 5t-9.5 15z" />
<glyph unicode="&#x2000;" horiz-adv-x="906" />
<glyph unicode="&#x2001;" horiz-adv-x="1812" />
<glyph unicode="&#x2002;" horiz-adv-x="906" />
<glyph unicode="&#x2003;" horiz-adv-x="1812" />
<glyph unicode="&#x2004;" horiz-adv-x="604" />
<glyph unicode="&#x2005;" horiz-adv-x="453" />
<glyph unicode="&#x2006;" horiz-adv-x="302" />
<glyph unicode="&#x2007;" horiz-adv-x="302" />
<glyph unicode="&#x2008;" horiz-adv-x="226" />
<glyph unicode="&#x2009;" horiz-adv-x="362" />
<glyph unicode="&#x200a;" horiz-adv-x="100" />
<glyph unicode="&#x2010;" horiz-adv-x="706" d="M102 580q0 25 6.5 52t30.5 27h441q31 0 30 -26q0 -25 -6 -52.5t-31 -27.5h-440q-31 0 -31 27z" />
<glyph unicode="&#x2011;" horiz-adv-x="706" d="M102 580q0 25 6.5 52t30.5 27h441q31 0 30 -26q0 -25 -6 -52.5t-31 -27.5h-440q-31 0 -31 27z" />
<glyph unicode="&#x2012;" horiz-adv-x="706" d="M102 580q0 25 6.5 52t30.5 27h441q31 0 30 -26q0 -25 -6 -52.5t-31 -27.5h-440q-31 0 -31 27z" />
<glyph unicode="&#x2013;" horiz-adv-x="983" d="M47 563q0 25 6 52.5t29 27.5h803q29 0 28 -27q0 -25 -5.5 -52t-30.5 -27h-801q-29 0 -29 26z" />
<glyph unicode="&#x2014;" horiz-adv-x="1607" d="M57 580q0 25 6.5 52t28.5 27h1426q31 0 30 -26q0 -25 -7 -52.5t-30 -27.5h-1425q-29 0 -29 27z" />
<glyph unicode="&#x2018;" horiz-adv-x="387" d="M164 1171q-4 14 6 43l84 252q10 29 26.5 35t51.5 6q12 0 17 -8t-1 -35l-61 -272q-4 -23 -29 -29t-61 -6q-29 0 -33 14z" />
<glyph unicode="&#x2019;" horiz-adv-x="360" d="M111.5 1177.5q-5.5 8.5 1.5 34.5l61 273q4 23 28.5 29t61.5 6q29 0 33 -14.5t-6 -43.5l-84 -252q-10 -29 -26.5 -35t-51.5 -6q-12 0 -17.5 8.5z" />
<glyph unicode="&#x201a;" horiz-adv-x="325" d="M39 -166q0 4 2 10t2 13l70 290q4 10 31.5 19.5t62.5 9.5q20 0 30.5 -10t10.5 -27q0 -6 -4 -18l-133 -262q-8 -16 -18.5 -29.5t-37.5 -13.5q-16 0 -16 18z" />
<glyph unicode="&#x201c;" horiz-adv-x="647" d="M178 1171q-4 14 6 43l84 252q10 29 26.5 35t51.5 6q12 0 17.5 -8t-1.5 -35l-61 -272q-4 -23 -28.5 -29t-61.5 -6q-29 0 -33 14zM438 1171q-4 14 6 43l84 252q10 29 26.5 35t51.5 6q12 0 17.5 -8t-0.5 -35l-62 -272q-4 -23 -28.5 -29t-61.5 -6q-29 0 -33 14z" />
<glyph unicode="&#x201d;" horiz-adv-x="641" d="M25.5 1175.5q-5.5 8.5 1.5 34.5l61 273q4 23 28.5 29t61.5 6q29 0 33 -14.5t-6 -43.5l-84 -252q-10 -29 -26.5 -35t-51.5 -6q-12 0 -17.5 8.5zM284 1175.5q-5 8.5 1 34.5l61 273q4 23 28.5 29t61.5 6q29 0 33 -14.5t-6 -43.5l-84 -252q-10 -29 -26.5 -35t-51.5 -6 q-12 0 -17 8.5z" />
<glyph unicode="&#x201e;" horiz-adv-x="647" d="M30 -207q-5 8 1 35l61 272q4 23 28.5 29t61.5 6q29 0 33 -14t-6 -43l-84 -252q-10 -29 -26.5 -35t-51.5 -6q-12 0 -17 8zM351.5 -207q-5.5 8 0.5 35l62 272q4 23 28.5 29t61.5 6q29 0 32.5 -14t-6.5 -43l-84 -252q-10 -29 -26.5 -35t-50.5 -6q-12 0 -17.5 8z" />
<glyph unicode="&#x2022;" horiz-adv-x="716" d="M180 356v398q0 14 17.5 27.5t48 24.5t70.5 18t83 7q59 0 80 -44t21 -103v-258q0 -59 -20.5 -101t-80.5 -42q-43 0 -83 6t-70.5 16t-48 23.5t-17.5 27.5z" />
<glyph unicode="&#x2026;" horiz-adv-x="970" d="M98 2v152q0 10 26 18t58 8q25 0 31 -15t6 -38v-98q0 -23 -6 -38.5t-31 -15.5q-33 0 -58.5 8.5t-25.5 18.5zM426 2v152q0 10 24.5 18t59.5 8q25 0 31 -15t6 -38v-98q0 -23 -6 -38.5t-31 -15.5q-35 0 -59.5 8.5t-24.5 18.5zM750 2v152q0 10 26.5 18t57.5 8q27 0 32.5 -15 t5.5 -38v-98q0 -23 -6 -38.5t-32 -15.5q-31 0 -57.5 8.5t-26.5 18.5z" />
<glyph unicode="&#x202f;" horiz-adv-x="362" />
<glyph unicode="&#x2039;" horiz-adv-x="624" d="M106 594l326 403q20 20 29 21q2 0 10 -6t16.5 -13.5t14.5 -15.5t6 -14q0 -12 -10 -27l-262 -348l262 -350q10 -12 10 -27q0 -4 -6 -12t-14.5 -16.5t-16.5 -13.5t-10 -5q-9 0 -29 20z" />
<glyph unicode="&#x203a;" horiz-adv-x="624" d="M106 217q0 4 2.5 11.5t10.5 15.5l262 350l-262 348q-12 14 -13 29q0 12 9.5 21t22 13.5t25.5 2.5t19 -11l326 -403l-326 -404q-6 -6 -18 -8t-25.5 1t-23 12.5t-9.5 21.5z" />
<glyph unicode="&#x205f;" horiz-adv-x="453" />
<glyph unicode="&#x20ac;" horiz-adv-x="1218" d="M55 561q0 23 6.5 46.5t28.5 23.5h201v104h-207q-29 0 -29 23q0 25 6.5 47t28.5 22h201v129q0 154 31.5 257.5t97 167t164 91t231.5 27.5h16q49 0 105.5 -4t103.5 -11t79 -16.5t32 -21.5q0 -29 -5 -56.5t-20 -25.5q-12 2 -38.5 7t-65.5 10t-85 9.5t-97 4.5h-17 q-113 0 -190.5 -23.5t-125.5 -76t-69.5 -139.5t-21.5 -212v-117h350q29 0 29 -22q0 -23 -6.5 -46.5t-28.5 -23.5h-344v-104h350q29 0 29 -23q0 -25 -6.5 -48t-28.5 -23h-344v-7q0 -127 21.5 -213t69.5 -139t125 -76.5t187 -23.5h17q109 0 183.5 14t100.5 19q16 2 22.5 -29 t6.5 -53q0 -10 -28.5 -20.5t-75 -17.5t-103.5 -11.5t-115 -4.5h-16q-133 0 -230.5 28t-162 91.5t-96 167t-31.5 256.5v19h-207q-29 0 -29 24z" />
<glyph unicode="&#x2122;" horiz-adv-x="1470" d="M4 1446q0 16 3 36.5t13 20.5h529q27 0 26 -20q0 -16 -5 -38t-13 -22h-223v-647q0 -27 -25 -26q-16 0 -40.5 4t-24.5 14v655h-215q-25 0 -25 23zM494 776l165 725q2 10 20.5 13.5t35.5 3.5q23 0 28 -17l218 -606l213 606q4 10 23.5 13.5t37.5 3.5t25 -17l161 -725 q4 -16 -6 -21t-16 -5q-20 0 -43 3t-27 17l-123 580l-205 -580q-6 -20 -24 -20t-38.5 4t-25.5 16l-202 580l-125 -580q-4 -12 -27.5 -16t-42.5 -4q-6 0 -16.5 5t-5.5 21z" />
<glyph unicode="&#x25fc;" horiz-adv-x="1105" d="M0 0v1106h1106v-1106h-1106z" />
<glyph unicode="&#xfb01;" horiz-adv-x="1128" d="M23 1004q0 27 9 52t29 25h160v191q0 141 89 212.5t255 71.5q90 0 144.5 -6t103.5 -20q29 -8 34 -17.5t5 -19.5q0 -29 -8 -51.5t-25 -18.5q-66 16 -114 23.5t-101 7.5q-150 0 -210 -55.5t-60 -151.5v-166h497q37 0 37 -45v-796q0 -74 27 -116t106 -42q25 0 48.5 5t62.5 15 q8 0 13 -8t9.5 -20.5t6.5 -23.5t2 -15q0 -29 -39 -41q-29 -10 -68 -14.5t-71 -4.5q-45 0 -83 12.5t-67 41t-45 77t-16 119.5v754h-420v-959q0 -27 -9.5 -36t-25.5 -9q-18 0 -48 4.5t-30 20.5v979h-168q-31 0 -30 25z" />
<glyph unicode="&#xfb02;" horiz-adv-x="1093" d="M23 1001q0 25 8 52.5t32 27.5h175v207q0 111 62 181.5t179 70.5q66 0 101.5 -9t74.5 -26q14 -6 25.5 -18t9.5 -23q-4 -23 -17.5 -45t-25.5 -18q-51 20 -83 26.5t-77 6.5q-76 0 -106.5 -43t-30.5 -117v-193h373v430q0 10 26.5 17.5t55.5 7.5q33 0 33 -51v-1245 q0 -72 27.5 -115t103.5 -43q23 0 42 5t60 15q10 2 20.5 -20.5t14.5 -42.5q4 -16 -8.5 -25.5t-24.5 -13.5q-43 -14 -71.5 -19.5t-65.5 -5.5q-43 0 -81 13.5t-67.5 42t-47 77t-17.5 117.5v754h-373v-959q0 -45 -31 -45q-29 0 -55 7.5t-26 17.5v979h-183q-33 0 -32 22z" />
<glyph unicode="&#xfb03;" horiz-adv-x="1669" d="M23 1004q0 27 9 52t29 25h160v84q0 61 16.5 113.5t54.5 90.5t100.5 59.5t154.5 21.5q96 0 149.5 -19.5t85.5 -35.5q35 80 117 120.5t207 40.5q90 0 144.5 -5t103.5 -21q27 -8 33 -17.5t6 -19.5q0 -29 -9.5 -51.5t-23.5 -18.5q-66 16 -115 23.5t-102 7.5 q-147 0 -208 -55.5t-61 -151.5v-166h498q35 0 35 -45v-796q0 -74 27.5 -116t107.5 -42q25 0 48.5 5t62.5 15q8 0 13 -8t8 -20.5t5 -23.5t2 -15q2 -12 -9 -24.5t-27 -16.5q-29 -10 -68 -14.5t-72 -4.5q-45 0 -84 12.5t-66.5 41t-44 77t-16.5 119.5v754h-420v-959 q0 -27 -10 -36t-26 -9q-18 0 -48 4.5t-30 20.5v979h-426v-959q0 -27 -9.5 -36t-25.5 -9q-18 0 -48 4.5t-30 20.5v979h-168q-31 0 -30 25zM334 1081h426v222q-35 18 -82 33.5t-125 15.5q-49 0 -89 -9.5t-68.5 -31t-45 -59.5t-16.5 -95v-76z" />
<glyph unicode="&#xfb04;" horiz-adv-x="1646" d="M23 1004q0 27 9 52t29 25h160v84q0 61 16.5 113.5t54.5 90.5t100.5 59.5t154.5 21.5q96 0 149.5 -19.5t85.5 -35.5q35 80 117 120.5t207 40.5q90 0 149.5 -6t108.5 -14q29 -6 29 -45v-1251q0 -66 28.5 -112t106.5 -46q29 0 52 6t52 12q10 2 18.5 -21.5t10.5 -45.5 q2 -27 -37 -39q-39 -10 -67.5 -14.5t-57.5 -4.5q-43 0 -83 12.5t-70.5 42t-48 77t-17.5 118.5v754h-406v-959q0 -27 -10 -36t-26 -9q-18 0 -48 4.5t-30 20.5v979h-426v-959q0 -27 -9.5 -36t-25.5 -9q-18 0 -48 4.5t-30 20.5v979h-168q-31 0 -30 25zM334 1081h426v222 q-35 18 -82 33.5t-125 15.5q-49 0 -89 -9.5t-68.5 -31t-45 -59.5t-16.5 -95v-76zM874 1081h406v365q-29 4 -60.5 6t-76.5 2q-147 0 -208 -55.5t-61 -151.5v-166z" />
</font>
</defs>
</svg>
